  0
SECTION
  2
HEADER
  9
$ACADVER
  1
AC1009
  9
$FILLMODE
 70
1
  9
$EXTMIN
 10
-6.7552
 20
-10.9050
 30
0.0000
  9
$EXTMAX
 10
93.4550
 20
9.2952
 30
0.0000
  0
ENDSEC
  0
SECTION
  2
TABLES
  0
TABLE
  2
LTYPE
 70
1
  0
LTYPE
  2
CONTINUOUS
 70
64
  3
Solid line
 72
65
 73
0
 40
0
  0
ENDTAB
  0
TABLE
  2
LAYER
 70
255
  0
LAYER
  2
1
 70
64
 62
14
  6
CONTINUOUS
  0
LAYER
  2
16
 70
64
 62
174
  6
CONTINUOUS
  0
LAYER
  2
17
 70
64
 62
94
  6
CONTINUOUS
  0
LAYER
  2
18
 70
64
 62
94
  6
CONTINUOUS
  0
LAYER
  2
19
 70
64
 62
54
  6
CONTINUOUS
  0
LAYER
  2
20
 70
64
 62
178
  6
CONTINUOUS
  0
LAYER
  2
21
 70
64
 62
251
  6
CONTINUOUS
  0
LAYER
  2
22
 70
64
 62
251
  6
CONTINUOUS
  0
LAYER
  2
23
 70
64
 62
178
  6
CONTINUOUS
  0
LAYER
  2
24
 70
64
 62
178
  6
CONTINUOUS
  0
LAYER
  2
25
 70
64
 62
251
  6
CONTINUOUS
  0
LAYER
  2
26
 70
64
 62
251
  6
CONTINUOUS
  0
LAYER
  2
27
 70
64
 62
251
  6
CONTINUOUS
  0
LAYER
  2
28
 70
64
 62
251
  6
CONTINUOUS
  0
LAYER
  2
29
 70
64
 62
251
  6
CONTINUOUS
  0
LAYER
  2
30
 70
64
 62
251
  6
CONTINUOUS
  0
LAYER
  2
31
 70
64
 62
251
  6
CONTINUOUS
  0
LAYER
  2
32
 70
64
 62
251
  6
CONTINUOUS
  0
LAYER
  2
33
 70
64
 62
54
  6
CONTINUOUS
  0
LAYER
  2
34
 70
64
 62
54
  6
CONTINUOUS
  0
LAYER
  2
35
 70
64
 62
251
  6
CONTINUOUS
  0
LAYER
  2
36
 70
64
 62
251
  6
CONTINUOUS
  0
LAYER
  2
37
 70
64
 62
251
  6
CONTINUOUS
  0
LAYER
  2
38
 70
64
 62
251
  6
CONTINUOUS
  0
LAYER
  2
39
 70
64
 62
14
  6
CONTINUOUS
  0
LAYER
  2
40
 70
64
 62
174
  6
CONTINUOUS
  0
LAYER
  2
41
 70
64
 62
14
  6
CONTINUOUS
  0
LAYER
  2
42
 70
64
 62
174
  6
CONTINUOUS
  0
LAYER
  2
43
 70
64
 62
94
  6
CONTINUOUS
  0
LAYER
  2
44
 70
64
 62
251
  6
CONTINUOUS
  0
LAYER
  2
45
 70
64
 62
251
  6
CONTINUOUS
  0
LAYER
  2
46
 70
64
 62
134
  6
CONTINUOUS
  0
LAYER
  2
47
 70
64
 62
251
  6
CONTINUOUS
  0
LAYER
  2
48
 70
64
 62
251
  6
CONTINUOUS
  0
LAYER
  2
49
 70
64
 62
251
  6
CONTINUOUS
  0
LAYER
  2
51
 70
64
 62
251
  6
CONTINUOUS
  0
LAYER
  2
52
 70
64
 62
251
  6
CONTINUOUS
  0
ENDTAB
  0
ENDSEC
  0
SECTION
  2
BLOCKS
  0
BLOCK
  8
0
  2
RECT
 70
64
 10
0.0000
 20
0.0000
 30
0.0000
  3
RECT
  0
SOLID
  8
0
 10
-0.5000
 20
-0.5000
 30
0.0000
 11
0.5000
 21
-0.5000
 31
0.0000
 12
-0.5000
 22
0.5000
 32
0.0000
 13
0.5000
 23
0.5000
 33
0.0000
  0
ENDBLK
  8
0
  0
BLOCK
  8
0
  2
PIE
 70
64
 10
0.0000
 20
0.0000
 30
0.0000
  3
PIE
  0
POLYLINE
  8
0
 66
1
 10
0.0000
 20
0.0000
 30
0.0000
 40
0.5000
 41
0.5000
 70
0
  0
VERTEX
  8
0
 10
0.0000
 20
-0.2500
 30
0.0000
 42
1.0000
  0
VERTEX
  8
0
 10
0.0000
 20
0.2500
 30
0.0000
 42
1.0000
  0
VERTEX
  8
0
 10
0.0000
 20
-0.2500
 30
0.0000
  0
SEQEND
  8
0
  0
ENDBLK
  8
0
  0
BLOCK
  8
0
  2
OCTAGONP
 70
64
 10
0.0000
 20
0.0000
 30
0.0000
  3
OCTAGONP
  0
POLYLINE
  8
0
 66
1
 10
0.0000
 20
0.0000
 30
0.0000
 40
0.5000
 41
0.5000
 70
0
  0
VERTEX
  8
0
 10
-0.2500
 20
-0.1036
 30
0.0000
  0
VERTEX
  8
0
 10
-0.2500
 20
0.1036
 30
0.0000
  0
VERTEX
  8
0
 10
-0.1036
 20
0.2500
 30
0.0000
  0
VERTEX
  8
0
 10
0.1036
 20
0.2500
 30
0.0000
  0
VERTEX
  8
0
 10
0.2500
 20
0.1036
 30
0.0000
  0
VERTEX
  8
0
 10
0.2500
 20
-0.1036
 30
0.0000
  0
VERTEX
  8
0
 10
0.1036
 20
-0.2500
 30
0.0000
  0
VERTEX
  8
0
 10
-0.1036
 20
-0.2500
 30
0.0000
  0
VERTEX
  8
0
 10
-0.2500
 20
-0.1036
 30
0.0000
  0
VERTEX
  8
0
 10
-0.2500
 20
0.1036
 30
0.0000
  0
SEQEND
  8
0
  0
ENDBLK
  8
0
  0
BLOCK
  8
0
  2
SQUAREP
 70
64
 10
0.0000
 20
0.0000
 30
0.0000
  3
SQUAREP
  0
SOLID
  8
0
 10
-0.5000
 20
-0.5000
 30
0.0000
 11
0.5000
 21
-0.5000
 31
0.0000
 12
-0.5000
 22
0.5000
 32
0.0000
 13
0.5000
 23
0.5000
 33
0.0000
  0
ENDBLK
  8
0
  0
BLOCK
  8
0
  2
ROUNDP
 70
64
 10
0.0000
 20
0.0000
 30
0.0000
  3
ROUNDP
  0
POLYLINE
  8
0
 66
1
 10
0.0000
 20
0.0000
 30
0.0000
 40
0.5000
 41
0.5000
 70
0
  0
VERTEX
  8
0
 10
0.0000
 20
-0.2500
 30
0.0000
 42
1.0000
  0
VERTEX
  8
0
 10
0.0000
 20
0.2500
 30
0.0000
 42
1.0000
  0
VERTEX
  8
0
 10
0.0000
 20
-0.2500
 30
0.0000
  0
SEQEND
  8
0
  0
ENDBLK
  8
0
  0
BLOCK
  8
0
  2
ANNULUSP
 70
64
 10
0.0000
 20
0.0000
 30
0.0000
  3
ANNULUSP
  0
POLYLINE
  8
0
 66
1
 10
0.0000
 20
0.0000
 30
0.0000
 40
0.5000
 41
0.5000
 70
0
  0
VERTEX
  8
0
 10
0.0000
 20
-0.2500
 30
0.0000
 42
1.0000
  0
VERTEX
  8
0
 10
0.0000
 20
0.2500
 30
0.0000
 42
1.0000
  0
VERTEX
  8
0
 10
0.0000
 20
-0.2500
 30
0.0000
  0
SEQEND
  8
0
  0
ENDBLK
  8
0
  0
BLOCK
  8
0
  2
THERMALP
 70
64
 10
0.0000
 20
0.0000
 30
0.0000
  3
THERMALP
  0
POLYLINE
  8
0
 66
1
 10
0.0000
 20
0.0000
 30
0.0000
 40
0.1000
 41
0.1000
 70
0
  0
VERTEX
  8
0
 10
-0.2379
 20
0.4500
 30
0.0000
  0
VERTEX
  8
0
 10
0.2379
 20
0.4500
 30
0.0000
  0
SEQEND
  8
0
  0
POLYLINE
  8
0
 66
1
 10
0.0000
 20
0.0000
 30
0.0000
 40
0.0500
 41
0.0500
 70
0
  0
VERTEX
  8
0
 10
0.2379
 20
0.4250
 30
0.0000
 42
1.0000
  0
VERTEX
  8
0
 10
0.2379
 20
0.4750
 30
0.0000
  0
SEQEND
  8
0
  0
POLYLINE
  8
0
 66
1
 10
0.0000
 20
0.0000
 30
0.0000
 40
0.0500
 41
0.0500
 70
0
  0
VERTEX
  8
0
 10
-0.2379
 20
0.4750
 30
0.0000
 42
1.0000
  0
VERTEX
  8
0
 10
-0.2379
 20
0.4250
 30
0.0000
  0
SEQEND
  8
0
  0
POLYLINE
  8
0
 66
1
 10
0.0000
 20
0.0000
 30
0.0000
 40
0.1000
 41
0.1000
 70
0
  0
VERTEX
  8
0
 10
0.4500
 20
0.2379
 30
0.0000
  0
VERTEX
  8
0
 10
0.4500
 20
-0.2379
 30
0.0000
  0
SEQEND
  8
0
  0
POLYLINE
  8
0
 66
1
 10
0.0000
 20
0.0000
 30
0.0000
 40
0.0500
 41
0.0500
 70
0
  0
VERTEX
  8
0
 10
0.4250
 20
-0.2379
 30
0.0000
 42
1.0000
  0
VERTEX
  8
0
 10
0.4750
 20
-0.2379
 30
0.0000
  0
SEQEND
  8
0
  0
POLYLINE
  8
0
 66
1
 10
0.0000
 20
0.0000
 30
0.0000
 40
0.0500
 41
0.0500
 70
0
  0
VERTEX
  8
0
 10
0.4750
 20
0.2379
 30
0.0000
 42
1.0000
  0
VERTEX
  8
0
 10
0.4250
 20
0.2379
 30
0.0000
  0
SEQEND
  8
0
  0
POLYLINE
  8
0
 66
1
 10
0.0000
 20
0.0000
 30
0.0000
 40
0.1000
 41
0.1000
 70
0
  0
VERTEX
  8
0
 10
0.2379
 20
-0.4500
 30
0.0000
  0
VERTEX
  8
0
 10
-0.2379
 20
-0.4500
 30
0.0000
  0
SEQEND
  8
0
  0
POLYLINE
  8
0
 66
1
 10
0.0000
 20
0.0000
 30
0.0000
 40
0.0500
 41
0.0500
 70
0
  0
VERTEX
  8
0
 10
-0.2379
 20
-0.4250
 30
0.0000
 42
1.0000
  0
VERTEX
  8
0
 10
-0.2379
 20
-0.4750
 30
0.0000
  0
SEQEND
  8
0
  0
POLYLINE
  8
0
 66
1
 10
0.0000
 20
0.0000
 30
0.0000
 40
0.0500
 41
0.0500
 70
0
  0
VERTEX
  8
0
 10
0.2379
 20
-0.4750
 30
0.0000
 42
1.0000
  0
VERTEX
  8
0
 10
0.2379
 20
-0.4250
 30
0.0000
  0
SEQEND
  8
0
  0
POLYLINE
  8
0
 66
1
 10
0.0000
 20
0.0000
 30
0.0000
 40
0.1000
 41
0.1000
 70
0
  0
VERTEX
  8
0
 10
-0.4500
 20
-0.2379
 30
0.0000
  0
VERTEX
  8
0
 10
-0.4500
 20
0.2379
 30
0.0000
  0
SEQEND
  8
0
  0
POLYLINE
  8
0
 66
1
 10
0.0000
 20
0.0000
 30
0.0000
 40
0.0500
 41
0.0500
 70
0
  0
VERTEX
  8
0
 10
-0.4250
 20
0.2379
 30
0.0000
 42
1.0000
  0
VERTEX
  8
0
 10
-0.4750
 20
0.2379
 30
0.0000
  0
SEQEND
  8
0
  0
POLYLINE
  8
0
 66
1
 10
0.0000
 20
0.0000
 30
0.0000
 40
0.0500
 41
0.0500
 70
0
  0
VERTEX
  8
0
 10
-0.4750
 20
-0.2379
 30
0.0000
 42
1.0000
  0
VERTEX
  8
0
 10
-0.4250
 20
-0.2379
 30
0.0000
  0
SEQEND
  8
0
  0
ENDBLK
  8
0
  0
BLOCK
  8
0
  2
OCTAGONV
 70
64
 10
0.0000
 20
0.0000
 30
0.0000
  3
OCTAGONV
  0
POLYLINE
  8
0
 66
1
 10
0.0000
 20
0.0000
 30
0.0000
 40
0.5000
 41
0.5000
 70
0
  0
VERTEX
  8
0
 10
-0.2500
 20
-0.1036
 30
0.0000
  0
VERTEX
  8
0
 10
-0.2500
 20
0.1036
 30
0.0000
  0
VERTEX
  8
0
 10
-0.1036
 20
0.2500
 30
0.0000
  0
VERTEX
  8
0
 10
0.1036
 20
0.2500
 30
0.0000
  0
VERTEX
  8
0
 10
0.2500
 20
0.1036
 30
0.0000
  0
VERTEX
  8
0
 10
0.2500
 20
-0.1036
 30
0.0000
  0
VERTEX
  8
0
 10
0.1036
 20
-0.2500
 30
0.0000
  0
VERTEX
  8
0
 10
-0.1036
 20
-0.2500
 30
0.0000
  0
VERTEX
  8
0
 10
-0.2500
 20
-0.1036
 30
0.0000
  0
VERTEX
  8
0
 10
-0.2500
 20
0.1036
 30
0.0000
  0
SEQEND
  8
0
  0
ENDBLK
  8
0
  0
BLOCK
  8
0
  2
SQUAREV
 70
64
 10
0.0000
 20
0.0000
 30
0.0000
  3
SQUAREV
  0
SOLID
  8
0
 10
-0.5000
 20
-0.5000
 30
0.0000
 11
0.5000
 21
-0.5000
 31
0.0000
 12
-0.5000
 22
0.5000
 32
0.0000
 13
0.5000
 23
0.5000
 33
0.0000
  0
ENDBLK
  8
0
  0
BLOCK
  8
0
  2
ROUNDV
 70
64
 10
0.0000
 20
0.0000
 30
0.0000
  3
ROUNDV
  0
POLYLINE
  8
0
 66
1
 10
0.0000
 20
0.0000
 30
0.0000
 40
0.5000
 41
0.5000
 70
0
  0
VERTEX
  8
0
 10
0.0000
 20
-0.2500
 30
0.0000
 42
1.0000
  0
VERTEX
  8
0
 10
0.0000
 20
0.2500
 30
0.0000
 42
1.0000
  0
VERTEX
  8
0
 10
0.0000
 20
-0.2500
 30
0.0000
  0
SEQEND
  8
0
  0
ENDBLK
  8
0
  0
BLOCK
  8
0
  2
ANNULUSV
 70
64
 10
0.0000
 20
0.0000
 30
0.0000
  3
ANNULUSV
  0
POLYLINE
  8
0
 66
1
 10
0.0000
 20
0.0000
 30
0.0000
 40
0.5000
 41
0.5000
 70
0
  0
VERTEX
  8
0
 10
0.0000
 20
-0.2500
 30
0.0000
 42
1.0000
  0
VERTEX
  8
0
 10
0.0000
 20
0.2500
 30
0.0000
 42
1.0000
  0
VERTEX
  8
0
 10
0.0000
 20
-0.2500
 30
0.0000
  0
SEQEND
  8
0
  0
ENDBLK
  8
0
  0
BLOCK
  8
0
  2
THERMALV
 70
64
 10
0.0000
 20
0.0000
 30
0.0000
  3
THERMALV
  0
POLYLINE
  8
0
 66
1
 10
0.0000
 20
0.0000
 30
0.0000
 40
0.1000
 41
0.1000
 70
0
  0
VERTEX
  8
0
 10
-0.2379
 20
0.4500
 30
0.0000
  0
VERTEX
  8
0
 10
0.2379
 20
0.4500
 30
0.0000
  0
SEQEND
  8
0
  0
POLYLINE
  8
0
 66
1
 10
0.0000
 20
0.0000
 30
0.0000
 40
0.0500
 41
0.0500
 70
0
  0
VERTEX
  8
0
 10
0.2379
 20
0.4250
 30
0.0000
 42
1.0000
  0
VERTEX
  8
0
 10
0.2379
 20
0.4750
 30
0.0000
  0
SEQEND
  8
0
  0
POLYLINE
  8
0
 66
1
 10
0.0000
 20
0.0000
 30
0.0000
 40
0.0500
 41
0.0500
 70
0
  0
VERTEX
  8
0
 10
-0.2379
 20
0.4750
 30
0.0000
 42
1.0000
  0
VERTEX
  8
0
 10
-0.2379
 20
0.4250
 30
0.0000
  0
SEQEND
  8
0
  0
POLYLINE
  8
0
 66
1
 10
0.0000
 20
0.0000
 30
0.0000
 40
0.1000
 41
0.1000
 70
0
  0
VERTEX
  8
0
 10
0.4500
 20
0.2379
 30
0.0000
  0
VERTEX
  8
0
 10
0.4500
 20
-0.2379
 30
0.0000
  0
SEQEND
  8
0
  0
POLYLINE
  8
0
 66
1
 10
0.0000
 20
0.0000
 30
0.0000
 40
0.0500
 41
0.0500
 70
0
  0
VERTEX
  8
0
 10
0.4250
 20
-0.2379
 30
0.0000
 42
1.0000
  0
VERTEX
  8
0
 10
0.4750
 20
-0.2379
 30
0.0000
  0
SEQEND
  8
0
  0
POLYLINE
  8
0
 66
1
 10
0.0000
 20
0.0000
 30
0.0000
 40
0.0500
 41
0.0500
 70
0
  0
VERTEX
  8
0
 10
0.4750
 20
0.2379
 30
0.0000
 42
1.0000
  0
VERTEX
  8
0
 10
0.4250
 20
0.2379
 30
0.0000
  0
SEQEND
  8
0
  0
POLYLINE
  8
0
 66
1
 10
0.0000
 20
0.0000
 30
0.0000
 40
0.1000
 41
0.1000
 70
0
  0
VERTEX
  8
0
 10
0.2379
 20
-0.4500
 30
0.0000
  0
VERTEX
  8
0
 10
-0.2379
 20
-0.4500
 30
0.0000
  0
SEQEND
  8
0
  0
POLYLINE
  8
0
 66
1
 10
0.0000
 20
0.0000
 30
0.0000
 40
0.0500
 41
0.0500
 70
0
  0
VERTEX
  8
0
 10
-0.2379
 20
-0.4250
 30
0.0000
 42
1.0000
  0
VERTEX
  8
0
 10
-0.2379
 20
-0.4750
 30
0.0000
  0
SEQEND
  8
0
  0
POLYLINE
  8
0
 66
1
 10
0.0000
 20
0.0000
 30
0.0000
 40
0.0500
 41
0.0500
 70
0
  0
VERTEX
  8
0
 10
0.2379
 20
-0.4750
 30
0.0000
 42
1.0000
  0
VERTEX
  8
0
 10
0.2379
 20
-0.4250
 30
0.0000
  0
SEQEND
  8
0
  0
POLYLINE
  8
0
 66
1
 10
0.0000
 20
0.0000
 30
0.0000
 40
0.1000
 41
0.1000
 70
0
  0
VERTEX
  8
0
 10
-0.4500
 20
-0.2379
 30
0.0000
  0
VERTEX
  8
0
 10
-0.4500
 20
0.2379
 30
0.0000
  0
SEQEND
  8
0
  0
POLYLINE
  8
0
 66
1
 10
0.0000
 20
0.0000
 30
0.0000
 40
0.0500
 41
0.0500
 70
0
  0
VERTEX
  8
0
 10
-0.4250
 20
0.2379
 30
0.0000
 42
1.0000
  0
VERTEX
  8
0
 10
-0.4750
 20
0.2379
 30
0.0000
  0
SEQEND
  8
0
  0
POLYLINE
  8
0
 66
1
 10
0.0000
 20
0.0000
 30
0.0000
 40
0.0500
 41
0.0500
 70
0
  0
VERTEX
  8
0
 10
-0.4750
 20
-0.2379
 30
0.0000
 42
1.0000
  0
VERTEX
  8
0
 10
-0.4250
 20
-0.2379
 30
0.0000
  0
SEQEND
  8
0
  0
ENDBLK
  8
0
  0
ENDSEC
  0
SECTION
  2
ENTITIES
  0
POLYLINE
  8
20
 66
1
 10
0.0000
 20
0.0000
 30
0.0000
 40
0.1500
 41
0.1500
 70
0
  0
VERTEX
  8
20
 10
0.0000
 20
3.0000
 30
0.0000
  0
VERTEX
  8
20
 10
30.0000
 20
3.0000
 30
0.0000
  0
SEQEND
  8
0
  0
POLYLINE
  8
20
 66
1
 10
0.0000
 20
0.0000
 30
0.0000
 40
0.0750
 41
0.0750
 70
0
  0
VERTEX
  8
20
 10
30.0000
 20
2.9625
 30
0.0000
 42
1.0000
  0
VERTEX
  8
20
 10
30.0000
 20
3.0375
 30
0.0000
  0
SEQEND
  8
0
  0
POLYLINE
  8
20
 66
1
 10
0.0000
 20
0.0000
 30
0.0000
 40
0.0750
 41
0.0750
 70
0
  0
VERTEX
  8
20
 10
0.0000
 20
3.0375
 30
0.0000
 42
1.0000
  0
VERTEX
  8
20
 10
0.0000
 20
2.9625
 30
0.0000
  0
SEQEND
  8
0
  0
LINE
  8
20
 10
30.0000
 20
3.0000
 30
0.0000
 11
30.0000
 21
2.0000
 31
0.0000
  0
LINE
  8
20
 10
30.0000
 20
2.0000
 30
0.0000
 11
77.0000
 21
2.0000
 31
0.0000
  0
LINE
  8
20
 10
77.0000
 20
2.0000
 30
0.0000
 11
77.0000
 21
-2.0000
 31
0.0000
  0
LINE
  8
20
 10
77.0000
 20
-2.0000
 30
0.0000
 11
30.0000
 21
-2.0000
 31
0.0000
  0
LINE
  8
20
 10
30.0000
 20
-2.0000
 30
0.0000
 11
30.0000
 21
-3.0000
 31
0.0000
  0
LINE
  8
20
 10
0.0000
 20
-3.0000
 30
0.0000
 11
0.0000
 21
3.0000
 31
0.0000
  0
LINE
  8
49
 10
35.0000
 20
0.0000
 30
0.0000
 11
72.0000
 21
0.0000
 31
0.0000
  0
LINE
  8
20
 10
30.0000
 20
-3.0000
 30
0.0000
 11
0.0000
 21
-3.0000
 31
0.0000
  0
POLYLINE
  8
1
 66
1
 10
0.0000
 20
0.0000
 30
0.0000
 40
0.0762
 41
0.0762
 70
0
  0
VERTEX
  8
1
 10
11.8096
 20
1.9753
 30
0.0000
  0
VERTEX
  8
1
 10
11.3181
 20
1.9753
 30
0.0000
  0
SEQEND
  8
0
  0
POLYLINE
  8
1
 66
1
 10
0.0000
 20
0.0000
 30
0.0000
 40
0.0381
 41
0.0381
 70
0
  0
VERTEX
  8
1
 10
11.3181
 20
1.9944
 30
0.0000
 42
1.0000
  0
VERTEX
  8
1
 10
11.3181
 20
1.9563
 30
0.0000
  0
SEQEND
  8
0
  0
POLYLINE
  8
1
 66
1
 10
0.0000
 20
0.0000
 30
0.0000
 40
0.0381
 41
0.0381
 70
0
  0
VERTEX
  8
1
 10
11.8096
 20
1.9563
 30
0.0000
 42
1.0000
  0
VERTEX
  8
1
 10
11.8096
 20
1.9944
 30
0.0000
  0
SEQEND
  8
0
  0
POLYLINE
  8
1
 66
1
 10
0.0000
 20
0.0000
 30
0.0000
 40
0.0762
 41
0.0762
 70
0
  0
VERTEX
  8
1
 10
11.3181
 20
1.9753
 30
0.0000
  0
VERTEX
  8
1
 10
11.3181
 20
1.6067
 30
0.0000
  0
SEQEND
  8
0
  0
POLYLINE
  8
1
 66
1
 10
0.0000
 20
0.0000
 30
0.0000
 40
0.0381
 41
0.0381
 70
0
  0
VERTEX
  8
1
 10
11.2991
 20
1.6067
 30
0.0000
 42
1.0000
  0
VERTEX
  8
1
 10
11.3372
 20
1.6067
 30
0.0000
  0
SEQEND
  8
0
  0
POLYLINE
  8
1
 66
1
 10
0.0000
 20
0.0000
 30
0.0000
 40
0.0381
 41
0.0381
 70
0
  0
VERTEX
  8
1
 10
11.3372
 20
1.9753
 30
0.0000
 42
1.0000
  0
VERTEX
  8
1
 10
11.2991
 20
1.9753
 30
0.0000
  0
SEQEND
  8
0
  0
POLYLINE
  8
1
 66
1
 10
0.0000
 20
0.0000
 30
0.0000
 40
0.0762
 41
0.0762
 70
0
  0
VERTEX
  8
1
 10
11.3181
 20
1.6067
 30
0.0000
  0
VERTEX
  8
1
 10
11.5638
 20
1.7296
 30
0.0000
  0
SEQEND
  8
0
  0
POLYLINE
  8
1
 66
1
 10
0.0000
 20
0.0000
 30
0.0000
 40
0.0381
 41
0.0381
 70
0
  0
VERTEX
  8
1
 10
11.5724
 20
1.7125
 30
0.0000
 42
1.0000
  0
VERTEX
  8
1
 10
11.5553
 20
1.7466
 30
0.0000
  0
SEQEND
  8
0
  0
POLYLINE
  8
1
 66
1
 10
0.0000
 20
0.0000
 30
0.0000
 40
0.0381
 41
0.0381
 70
0
  0
VERTEX
  8
1
 10
11.3096
 20
1.6238
 30
0.0000
 42
1.0000
  0
VERTEX
  8
1
 10
11.3266
 20
1.5897
 30
0.0000
  0
SEQEND
  8
0
  0
POLYLINE
  8
1
 66
1
 10
0.0000
 20
0.0000
 30
0.0000
 40
0.0762
 41
0.0762
 70
0
  0
VERTEX
  8
1
 10
11.5638
 20
1.7296
 30
0.0000
  0
VERTEX
  8
1
 10
11.6867
 20
1.7296
 30
0.0000
  0
SEQEND
  8
0
  0
POLYLINE
  8
1
 66
1
 10
0.0000
 20
0.0000
 30
0.0000
 40
0.0381
 41
0.0381
 70
0
  0
VERTEX
  8
1
 10
11.6867
 20
1.7105
 30
0.0000
 42
1.0000
  0
VERTEX
  8
1
 10
11.6867
 20
1.7486
 30
0.0000
  0
SEQEND
  8
0
  0
POLYLINE
  8
1
 66
1
 10
0.0000
 20
0.0000
 30
0.0000
 40
0.0381
 41
0.0381
 70
0
  0
VERTEX
  8
1
 10
11.5638
 20
1.7486
 30
0.0000
 42
1.0000
  0
VERTEX
  8
1
 10
11.5638
 20
1.7105
 30
0.0000
  0
SEQEND
  8
0
  0
POLYLINE
  8
1
 66
1
 10
0.0000
 20
0.0000
 30
0.0000
 40
0.0762
 41
0.0762
 70
0
  0
VERTEX
  8
1
 10
11.6867
 20
1.7296
 30
0.0000
  0
VERTEX
  8
1
 10
11.8096
 20
1.6067
 30
0.0000
  0
SEQEND
  8
0
  0
POLYLINE
  8
1
 66
1
 10
0.0000
 20
0.0000
 30
0.0000
 40
0.0381
 41
0.0381
 70
0
  0
VERTEX
  8
1
 10
11.7961
 20
1.5932
 30
0.0000
 42
1.0000
  0
VERTEX
  8
1
 10
11.8231
 20
1.6202
 30
0.0000
  0
SEQEND
  8
0
  0
POLYLINE
  8
1
 66
1
 10
0.0000
 20
0.0000
 30
0.0000
 40
0.0381
 41
0.0381
 70
0
  0
VERTEX
  8
1
 10
11.7002
 20
1.7431
 30
0.0000
 42
1.0000
  0
VERTEX
  8
1
 10
11.6732
 20
1.7161
 30
0.0000
  0
SEQEND
  8
0
  0
POLYLINE
  8
1
 66
1
 10
0.0000
 20
0.0000
 30
0.0000
 40
0.0762
 41
0.0762
 70
0
  0
VERTEX
  8
1
 10
11.8096
 20
1.6067
 30
0.0000
  0
VERTEX
  8
1
 10
11.8096
 20
1.3610
 30
0.0000
  0
SEQEND
  8
0
  0
POLYLINE
  8
1
 66
1
 10
0.0000
 20
0.0000
 30
0.0000
 40
0.0381
 41
0.0381
 70
0
  0
VERTEX
  8
1
 10
11.7905
 20
1.3610
 30
0.0000
 42
1.0000
  0
VERTEX
  8
1
 10
11.8286
 20
1.3610
 30
0.0000
  0
SEQEND
  8
0
  0
POLYLINE
  8
1
 66
1
 10
0.0000
 20
0.0000
 30
0.0000
 40
0.0381
 41
0.0381
 70
0
  0
VERTEX
  8
1
 10
11.8286
 20
1.6067
 30
0.0000
 42
1.0000
  0
VERTEX
  8
1
 10
11.7905
 20
1.6067
 30
0.0000
  0
SEQEND
  8
0
  0
POLYLINE
  8
1
 66
1
 10
0.0000
 20
0.0000
 30
0.0000
 40
0.0762
 41
0.0762
 70
0
  0
VERTEX
  8
1
 10
11.8096
 20
1.3610
 30
0.0000
  0
VERTEX
  8
1
 10
11.6867
 20
1.2381
 30
0.0000
  0
SEQEND
  8
0
  0
POLYLINE
  8
1
 66
1
 10
0.0000
 20
0.0000
 30
0.0000
 40
0.0381
 41
0.0381
 70
0
  0
VERTEX
  8
1
 10
11.6732
 20
1.2516
 30
0.0000
 42
1.0000
  0
VERTEX
  8
1
 10
11.7002
 20
1.2246
 30
0.0000
  0
SEQEND
  8
0
  0
POLYLINE
  8
1
 66
1
 10
0.0000
 20
0.0000
 30
0.0000
 40
0.0381
 41
0.0381
 70
0
  0
VERTEX
  8
1
 10
11.8231
 20
1.3475
 30
0.0000
 42
1.0000
  0
VERTEX
  8
1
 10
11.7961
 20
1.3744
 30
0.0000
  0
SEQEND
  8
0
  0
POLYLINE
  8
1
 66
1
 10
0.0000
 20
0.0000
 30
0.0000
 40
0.0762
 41
0.0762
 70
0
  0
VERTEX
  8
1
 10
11.6867
 20
1.2381
 30
0.0000
  0
VERTEX
  8
1
 10
11.4410
 20
1.2381
 30
0.0000
  0
SEQEND
  8
0
  0
POLYLINE
  8
1
 66
1
 10
0.0000
 20
0.0000
 30
0.0000
 40
0.0381
 41
0.0381
 70
0
  0
VERTEX
  8
1
 10
11.4410
 20
1.2571
 30
0.0000
 42
1.0000
  0
VERTEX
  8
1
 10
11.4410
 20
1.2190
 30
0.0000
  0
SEQEND
  8
0
  0
POLYLINE
  8
1
 66
1
 10
0.0000
 20
0.0000
 30
0.0000
 40
0.0381
 41
0.0381
 70
0
  0
VERTEX
  8
1
 10
11.6867
 20
1.2190
 30
0.0000
 42
1.0000
  0
VERTEX
  8
1
 10
11.6867
 20
1.2571
 30
0.0000
  0
SEQEND
  8
0
  0
POLYLINE
  8
1
 66
1
 10
0.0000
 20
0.0000
 30
0.0000
 40
0.0762
 41
0.0762
 70
0
  0
VERTEX
  8
1
 10
11.4410
 20
1.2381
 30
0.0000
  0
VERTEX
  8
1
 10
11.3181
 20
1.3610
 30
0.0000
  0
SEQEND
  8
0
  0
POLYLINE
  8
1
 66
1
 10
0.0000
 20
0.0000
 30
0.0000
 40
0.0381
 41
0.0381
 70
0
  0
VERTEX
  8
1
 10
11.3316
 20
1.3744
 30
0.0000
 42
1.0000
  0
VERTEX
  8
1
 10
11.3046
 20
1.3475
 30
0.0000
  0
SEQEND
  8
0
  0
POLYLINE
  8
1
 66
1
 10
0.0000
 20
0.0000
 30
0.0000
 40
0.0381
 41
0.0381
 70
0
  0
VERTEX
  8
1
 10
11.4275
 20
1.2246
 30
0.0000
 42
1.0000
  0
VERTEX
  8
1
 10
11.4544
 20
1.2516
 30
0.0000
  0
SEQEND
  8
0
  0
POLYLINE
  8
1
 66
1
 10
0.0000
 20
0.0000
 30
0.0000
 40
0.0762
 41
0.0762
 70
0
  0
VERTEX
  8
1
 10
11.3181
 20
0.2525
 30
0.0000
  0
VERTEX
  8
1
 10
11.4410
 20
0.3753
 30
0.0000
  0
SEQEND
  8
0
  0
POLYLINE
  8
1
 66
1
 10
0.0000
 20
0.0000
 30
0.0000
 40
0.0381
 41
0.0381
 70
0
  0
VERTEX
  8
1
 10
11.4544
 20
0.3619
 30
0.0000
 42
1.0000
  0
VERTEX
  8
1
 10
11.4275
 20
0.3888
 30
0.0000
  0
SEQEND
  8
0
  0
POLYLINE
  8
1
 66
1
 10
0.0000
 20
0.0000
 30
0.0000
 40
0.0381
 41
0.0381
 70
0
  0
VERTEX
  8
1
 10
11.3046
 20
0.2659
 30
0.0000
 42
1.0000
  0
VERTEX
  8
1
 10
11.3316
 20
0.2390
 30
0.0000
  0
SEQEND
  8
0
  0
POLYLINE
  8
1
 66
1
 10
0.0000
 20
0.0000
 30
0.0000
 40
0.0762
 41
0.0762
 70
0
  0
VERTEX
  8
1
 10
11.4410
 20
0.3753
 30
0.0000
  0
VERTEX
  8
1
 10
11.6867
 20
0.3753
 30
0.0000
  0
SEQEND
  8
0
  0
POLYLINE
  8
1
 66
1
 10
0.0000
 20
0.0000
 30
0.0000
 40
0.0381
 41
0.0381
 70
0
  0
VERTEX
  8
1
 10
11.6867
 20
0.3563
 30
0.0000
 42
1.0000
  0
VERTEX
  8
1
 10
11.6867
 20
0.3944
 30
0.0000
  0
SEQEND
  8
0
  0
POLYLINE
  8
1
 66
1
 10
0.0000
 20
0.0000
 30
0.0000
 40
0.0381
 41
0.0381
 70
0
  0
VERTEX
  8
1
 10
11.4410
 20
0.3944
 30
0.0000
 42
1.0000
  0
VERTEX
  8
1
 10
11.4410
 20
0.3563
 30
0.0000
  0
SEQEND
  8
0
  0
POLYLINE
  8
1
 66
1
 10
0.0000
 20
0.0000
 30
0.0000
 40
0.0762
 41
0.0762
 70
0
  0
VERTEX
  8
1
 10
11.6867
 20
0.3753
 30
0.0000
  0
VERTEX
  8
1
 10
11.8096
 20
0.2525
 30
0.0000
  0
SEQEND
  8
0
  0
POLYLINE
  8
1
 66
1
 10
0.0000
 20
0.0000
 30
0.0000
 40
0.0381
 41
0.0381
 70
0
  0
VERTEX
  8
1
 10
11.7961
 20
0.2390
 30
0.0000
 42
1.0000
  0
VERTEX
  8
1
 10
11.8231
 20
0.2659
 30
0.0000
  0
SEQEND
  8
0
  0
POLYLINE
  8
1
 66
1
 10
0.0000
 20
0.0000
 30
0.0000
 40
0.0381
 41
0.0381
 70
0
  0
VERTEX
  8
1
 10
11.7002
 20
0.3888
 30
0.0000
 42
1.0000
  0
VERTEX
  8
1
 10
11.6732
 20
0.3619
 30
0.0000
  0
SEQEND
  8
0
  0
POLYLINE
  8
1
 66
1
 10
0.0000
 20
0.0000
 30
0.0000
 40
0.0762
 41
0.0762
 70
0
  0
VERTEX
  8
1
 10
11.8096
 20
0.2525
 30
0.0000
  0
VERTEX
  8
1
 10
11.8096
 20
0.1296
 30
0.0000
  0
SEQEND
  8
0
  0
POLYLINE
  8
1
 66
1
 10
0.0000
 20
0.0000
 30
0.0000
 40
0.0381
 41
0.0381
 70
0
  0
VERTEX
  8
1
 10
11.7905
 20
0.1296
 30
0.0000
 42
1.0000
  0
VERTEX
  8
1
 10
11.8286
 20
0.1296
 30
0.0000
  0
SEQEND
  8
0
  0
POLYLINE
  8
1
 66
1
 10
0.0000
 20
0.0000
 30
0.0000
 40
0.0381
 41
0.0381
 70
0
  0
VERTEX
  8
1
 10
11.8286
 20
0.2525
 30
0.0000
 42
1.0000
  0
VERTEX
  8
1
 10
11.7905
 20
0.2525
 30
0.0000
  0
SEQEND
  8
0
  0
POLYLINE
  8
1
 66
1
 10
0.0000
 20
0.0000
 30
0.0000
 40
0.0762
 41
0.0762
 70
0
  0
VERTEX
  8
1
 10
11.8096
 20
0.1296
 30
0.0000
  0
VERTEX
  8
1
 10
11.6867
 20
0.0067
 30
0.0000
  0
SEQEND
  8
0
  0
POLYLINE
  8
1
 66
1
 10
0.0000
 20
0.0000
 30
0.0000
 40
0.0381
 41
0.0381
 70
0
  0
VERTEX
  8
1
 10
11.6732
 20
0.0202
 30
0.0000
 42
1.0000
  0
VERTEX
  8
1
 10
11.7002
 20
-0.0068
 30
0.0000
  0
SEQEND
  8
0
  0
POLYLINE
  8
1
 66
1
 10
0.0000
 20
0.0000
 30
0.0000
 40
0.0381
 41
0.0381
 70
0
  0
VERTEX
  8
1
 10
11.8231
 20
0.1161
 30
0.0000
 42
1.0000
  0
VERTEX
  8
1
 10
11.7961
 20
0.1431
 30
0.0000
  0
SEQEND
  8
0
  0
POLYLINE
  8
1
 66
1
 10
0.0000
 20
0.0000
 30
0.0000
 40
0.0762
 41
0.0762
 70
0
  0
VERTEX
  8
1
 10
11.6867
 20
0.0067
 30
0.0000
  0
VERTEX
  8
1
 10
11.5638
 20
0.0067
 30
0.0000
  0
SEQEND
  8
0
  0
POLYLINE
  8
1
 66
1
 10
0.0000
 20
0.0000
 30
0.0000
 40
0.0381
 41
0.0381
 70
0
  0
VERTEX
  8
1
 10
11.5638
 20
0.0258
 30
0.0000
 42
1.0000
  0
VERTEX
  8
1
 10
11.5638
 20
-0.0123
 30
0.0000
  0
SEQEND
  8
0
  0
POLYLINE
  8
1
 66
1
 10
0.0000
 20
0.0000
 30
0.0000
 40
0.0381
 41
0.0381
 70
0
  0
VERTEX
  8
1
 10
11.6867
 20
-0.0123
 30
0.0000
 42
1.0000
  0
VERTEX
  8
1
 10
11.6867
 20
0.0258
 30
0.0000
  0
SEQEND
  8
0
  0
POLYLINE
  8
1
 66
1
 10
0.0000
 20
0.0000
 30
0.0000
 40
0.0762
 41
0.0762
 70
0
  0
VERTEX
  8
1
 10
11.6867
 20
0.0067
 30
0.0000
  0
VERTEX
  8
1
 10
11.8096
 20
-0.1162
 30
0.0000
  0
SEQEND
  8
0
  0
POLYLINE
  8
1
 66
1
 10
0.0000
 20
0.0000
 30
0.0000
 40
0.0381
 41
0.0381
 70
0
  0
VERTEX
  8
1
 10
11.7961
 20
-0.1296
 30
0.0000
 42
1.0000
  0
VERTEX
  8
1
 10
11.8231
 20
-0.1027
 30
0.0000
  0
SEQEND
  8
0
  0
POLYLINE
  8
1
 66
1
 10
0.0000
 20
0.0000
 30
0.0000
 40
0.0381
 41
0.0381
 70
0
  0
VERTEX
  8
1
 10
11.7002
 20
0.0202
 30
0.0000
 42
1.0000
  0
VERTEX
  8
1
 10
11.6732
 20
-0.0068
 30
0.0000
  0
SEQEND
  8
0
  0
POLYLINE
  8
1
 66
1
 10
0.0000
 20
0.0000
 30
0.0000
 40
0.0762
 41
0.0762
 70
0
  0
VERTEX
  8
1
 10
11.8096
 20
-0.1162
 30
0.0000
  0
VERTEX
  8
1
 10
11.8096
 20
-0.2390
 30
0.0000
  0
SEQEND
  8
0
  0
POLYLINE
  8
1
 66
1
 10
0.0000
 20
0.0000
 30
0.0000
 40
0.0381
 41
0.0381
 70
0
  0
VERTEX
  8
1
 10
11.7905
 20
-0.2390
 30
0.0000
 42
1.0000
  0
VERTEX
  8
1
 10
11.8286
 20
-0.2390
 30
0.0000
  0
SEQEND
  8
0
  0
POLYLINE
  8
1
 66
1
 10
0.0000
 20
0.0000
 30
0.0000
 40
0.0381
 41
0.0381
 70
0
  0
VERTEX
  8
1
 10
11.8286
 20
-0.1162
 30
0.0000
 42
1.0000
  0
VERTEX
  8
1
 10
11.7905
 20
-0.1162
 30
0.0000
  0
SEQEND
  8
0
  0
POLYLINE
  8
1
 66
1
 10
0.0000
 20
0.0000
 30
0.0000
 40
0.0762
 41
0.0762
 70
0
  0
VERTEX
  8
1
 10
11.8096
 20
-0.2390
 30
0.0000
  0
VERTEX
  8
1
 10
11.6867
 20
-0.3619
 30
0.0000
  0
SEQEND
  8
0
  0
POLYLINE
  8
1
 66
1
 10
0.0000
 20
0.0000
 30
0.0000
 40
0.0381
 41
0.0381
 70
0
  0
VERTEX
  8
1
 10
11.6732
 20
-0.3484
 30
0.0000
 42
1.0000
  0
VERTEX
  8
1
 10
11.7002
 20
-0.3754
 30
0.0000
  0
SEQEND
  8
0
  0
POLYLINE
  8
1
 66
1
 10
0.0000
 20
0.0000
 30
0.0000
 40
0.0381
 41
0.0381
 70
0
  0
VERTEX
  8
1
 10
11.8231
 20
-0.2525
 30
0.0000
 42
1.0000
  0
VERTEX
  8
1
 10
11.7961
 20
-0.2256
 30
0.0000
  0
SEQEND
  8
0
  0
POLYLINE
  8
1
 66
1
 10
0.0000
 20
0.0000
 30
0.0000
 40
0.0762
 41
0.0762
 70
0
  0
VERTEX
  8
1
 10
11.6867
 20
-0.3619
 30
0.0000
  0
VERTEX
  8
1
 10
11.4410
 20
-0.3619
 30
0.0000
  0
SEQEND
  8
0
  0
POLYLINE
  8
1
 66
1
 10
0.0000
 20
0.0000
 30
0.0000
 40
0.0381
 41
0.0381
 70
0
  0
VERTEX
  8
1
 10
11.4410
 20
-0.3428
 30
0.0000
 42
1.0000
  0
VERTEX
  8
1
 10
11.4410
 20
-0.3810
 30
0.0000
  0
SEQEND
  8
0
  0
POLYLINE
  8
1
 66
1
 10
0.0000
 20
0.0000
 30
0.0000
 40
0.0381
 41
0.0381
 70
0
  0
VERTEX
  8
1
 10
11.6867
 20
-0.3810
 30
0.0000
 42
1.0000
  0
VERTEX
  8
1
 10
11.6867
 20
-0.3428
 30
0.0000
  0
SEQEND
  8
0
  0
POLYLINE
  8
1
 66
1
 10
0.0000
 20
0.0000
 30
0.0000
 40
0.0762
 41
0.0762
 70
0
  0
VERTEX
  8
1
 10
11.4410
 20
-0.3619
 30
0.0000
  0
VERTEX
  8
1
 10
11.3181
 20
-0.2390
 30
0.0000
  0
SEQEND
  8
0
  0
POLYLINE
  8
1
 66
1
 10
0.0000
 20
0.0000
 30
0.0000
 40
0.0381
 41
0.0381
 70
0
  0
VERTEX
  8
1
 10
11.3316
 20
-0.2256
 30
0.0000
 42
1.0000
  0
VERTEX
  8
1
 10
11.3046
 20
-0.2525
 30
0.0000
  0
SEQEND
  8
0
  0
POLYLINE
  8
1
 66
1
 10
0.0000
 20
0.0000
 30
0.0000
 40
0.0381
 41
0.0381
 70
0
  0
VERTEX
  8
1
 10
11.4275
 20
-0.3754
 30
0.0000
 42
1.0000
  0
VERTEX
  8
1
 10
11.4544
 20
-0.3484
 30
0.0000
  0
SEQEND
  8
0
  0
POLYLINE
  8
1
 66
1
 10
0.0000
 20
0.0000
 30
0.0000
 40
0.0762
 41
0.0762
 70
0
  0
VERTEX
  8
1
 10
11.3181
 20
-1.4704
 30
0.0000
  0
VERTEX
  8
1
 10
11.5638
 20
-1.2247
 30
0.0000
  0
SEQEND
  8
0
  0
POLYLINE
  8
1
 66
1
 10
0.0000
 20
0.0000
 30
0.0000
 40
0.0381
 41
0.0381
 70
0
  0
VERTEX
  8
1
 10
11.5773
 20
-1.2381
 30
0.0000
 42
1.0000
  0
VERTEX
  8
1
 10
11.5504
 20
-1.2112
 30
0.0000
  0
SEQEND
  8
0
  0
POLYLINE
  8
1
 66
1
 10
0.0000
 20
0.0000
 30
0.0000
 40
0.0381
 41
0.0381
 70
0
  0
VERTEX
  8
1
 10
11.3046
 20
-1.4569
 30
0.0000
 42
1.0000
  0
VERTEX
  8
1
 10
11.3316
 20
-1.4839
 30
0.0000
  0
SEQEND
  8
0
  0
POLYLINE
  8
1
 66
1
 10
0.0000
 20
0.0000
 30
0.0000
 40
0.0762
 41
0.0762
 70
0
  0
VERTEX
  8
1
 10
11.5638
 20
-1.2247
 30
0.0000
  0
VERTEX
  8
1
 10
11.5638
 20
-1.9619
 30
0.0000
  0
SEQEND
  8
0
  0
POLYLINE
  8
1
 66
1
 10
0.0000
 20
0.0000
 30
0.0000
 40
0.0381
 41
0.0381
 70
0
  0
VERTEX
  8
1
 10
11.5448
 20
-1.9619
 30
0.0000
 42
1.0000
  0
VERTEX
  8
1
 10
11.5829
 20
-1.9619
 30
0.0000
  0
SEQEND
  8
0
  0
POLYLINE
  8
1
 66
1
 10
0.0000
 20
0.0000
 30
0.0000
 40
0.0381
 41
0.0381
 70
0
  0
VERTEX
  8
1
 10
11.5829
 20
-1.2247
 30
0.0000
 42
1.0000
  0
VERTEX
  8
1
 10
11.5448
 20
-1.2247
 30
0.0000
  0
SEQEND
  8
0
  0
POLYLINE
  8
1
 66
1
 10
0.0000
 20
0.0000
 30
0.0000
 40
0.0762
 41
0.0762
 70
0
  0
VERTEX
  8
1
 10
11.3181
 20
-1.9619
 30
0.0000
  0
VERTEX
  8
1
 10
11.8096
 20
-1.9619
 30
0.0000
  0
SEQEND
  8
0
  0
POLYLINE
  8
1
 66
1
 10
0.0000
 20
0.0000
 30
0.0000
 40
0.0381
 41
0.0381
 70
0
  0
VERTEX
  8
1
 10
11.8096
 20
-1.9810
 30
0.0000
 42
1.0000
  0
VERTEX
  8
1
 10
11.8096
 20
-1.9429
 30
0.0000
  0
SEQEND
  8
0
  0
POLYLINE
  8
1
 66
1
 10
0.0000
 20
0.0000
 30
0.0000
 40
0.0381
 41
0.0381
 70
0
  0
VERTEX
  8
1
 10
11.3181
 20
-1.9429
 30
0.0000
 42
1.0000
  0
VERTEX
  8
1
 10
11.3181
 20
-1.9810
 30
0.0000
  0
SEQEND
  8
0
  0
POLYLINE
  8
1
 66
1
 10
0.0000
 20
0.0000
 30
0.0000
 40
0.0762
 41
0.0762
 70
0
  0
VERTEX
  8
1
 10
15.5696
 20
-1.0319
 30
0.0000
  0
VERTEX
  8
1
 10
15.0781
 20
-1.0319
 30
0.0000
  0
SEQEND
  8
0
  0
POLYLINE
  8
1
 66
1
 10
0.0000
 20
0.0000
 30
0.0000
 40
0.0381
 41
0.0381
 70
0
  0
VERTEX
  8
1
 10
15.0781
 20
-1.0129
 30
0.0000
 42
1.0000
  0
VERTEX
  8
1
 10
15.0781
 20
-1.0510
 30
0.0000
  0
SEQEND
  8
0
  0
POLYLINE
  8
1
 66
1
 10
0.0000
 20
0.0000
 30
0.0000
 40
0.0381
 41
0.0381
 70
0
  0
VERTEX
  8
1
 10
15.5696
 20
-1.0510
 30
0.0000
 42
1.0000
  0
VERTEX
  8
1
 10
15.5696
 20
-1.0129
 30
0.0000
  0
SEQEND
  8
0
  0
POLYLINE
  8
1
 66
1
 10
0.0000
 20
0.0000
 30
0.0000
 40
0.0762
 41
0.0762
 70
0
  0
VERTEX
  8
1
 10
15.0781
 20
-1.0319
 30
0.0000
  0
VERTEX
  8
1
 10
15.5696
 20
-0.5404
 30
0.0000
  0
SEQEND
  8
0
  0
POLYLINE
  8
1
 66
1
 10
0.0000
 20
0.0000
 30
0.0000
 40
0.0381
 41
0.0381
 70
0
  0
VERTEX
  8
1
 10
15.5831
 20
-0.5539
 30
0.0000
 42
1.0000
  0
VERTEX
  8
1
 10
15.5561
 20
-0.5269
 30
0.0000
  0
SEQEND
  8
0
  0
POLYLINE
  8
1
 66
1
 10
0.0000
 20
0.0000
 30
0.0000
 40
0.0381
 41
0.0381
 70
0
  0
VERTEX
  8
1
 10
15.0646
 20
-1.0184
 30
0.0000
 42
1.0000
  0
VERTEX
  8
1
 10
15.0916
 20
-1.0454
 30
0.0000
  0
SEQEND
  8
0
  0
POLYLINE
  8
1
 66
1
 10
0.0000
 20
0.0000
 30
0.0000
 40
0.0762
 41
0.0762
 70
0
  0
VERTEX
  8
1
 10
15.5696
 20
-0.5404
 30
0.0000
  0
VERTEX
  8
1
 10
15.5696
 20
-0.4175
 30
0.0000
  0
SEQEND
  8
0
  0
POLYLINE
  8
1
 66
1
 10
0.0000
 20
0.0000
 30
0.0000
 40
0.0381
 41
0.0381
 70
0
  0
VERTEX
  8
1
 10
15.5886
 20
-0.4175
 30
0.0000
 42
1.0000
  0
VERTEX
  8
1
 10
15.5505
 20
-0.4175
 30
0.0000
  0
SEQEND
  8
0
  0
POLYLINE
  8
1
 66
1
 10
0.0000
 20
0.0000
 30
0.0000
 40
0.0381
 41
0.0381
 70
0
  0
VERTEX
  8
1
 10
15.5505
 20
-0.5404
 30
0.0000
 42
1.0000
  0
VERTEX
  8
1
 10
15.5886
 20
-0.5404
 30
0.0000
  0
SEQEND
  8
0
  0
POLYLINE
  8
1
 66
1
 10
0.0000
 20
0.0000
 30
0.0000
 40
0.0762
 41
0.0762
 70
0
  0
VERTEX
  8
1
 10
15.5696
 20
-0.4175
 30
0.0000
  0
VERTEX
  8
1
 10
15.4467
 20
-0.2947
 30
0.0000
  0
SEQEND
  8
0
  0
POLYLINE
  8
1
 66
1
 10
0.0000
 20
0.0000
 30
0.0000
 40
0.0381
 41
0.0381
 70
0
  0
VERTEX
  8
1
 10
15.4602
 20
-0.2812
 30
0.0000
 42
1.0000
  0
VERTEX
  8
1
 10
15.4332
 20
-0.3081
 30
0.0000
  0
SEQEND
  8
0
  0
POLYLINE
  8
1
 66
1
 10
0.0000
 20
0.0000
 30
0.0000
 40
0.0381
 41
0.0381
 70
0
  0
VERTEX
  8
1
 10
15.5561
 20
-0.4310
 30
0.0000
 42
1.0000
  0
VERTEX
  8
1
 10
15.5831
 20
-0.4041
 30
0.0000
  0
SEQEND
  8
0
  0
POLYLINE
  8
1
 66
1
 10
0.0000
 20
0.0000
 30
0.0000
 40
0.0762
 41
0.0762
 70
0
  0
VERTEX
  8
1
 10
15.4467
 20
-0.2947
 30
0.0000
  0
VERTEX
  8
1
 10
15.2010
 20
-0.2947
 30
0.0000
  0
SEQEND
  8
0
  0
POLYLINE
  8
1
 66
1
 10
0.0000
 20
0.0000
 30
0.0000
 40
0.0381
 41
0.0381
 70
0
  0
VERTEX
  8
1
 10
15.2010
 20
-0.2756
 30
0.0000
 42
1.0000
  0
VERTEX
  8
1
 10
15.2010
 20
-0.3137
 30
0.0000
  0
SEQEND
  8
0
  0
POLYLINE
  8
1
 66
1
 10
0.0000
 20
0.0000
 30
0.0000
 40
0.0381
 41
0.0381
 70
0
  0
VERTEX
  8
1
 10
15.4467
 20
-0.3137
 30
0.0000
 42
1.0000
  0
VERTEX
  8
1
 10
15.4467
 20
-0.2756
 30
0.0000
  0
SEQEND
  8
0
  0
POLYLINE
  8
1
 66
1
 10
0.0000
 20
0.0000
 30
0.0000
 40
0.0762
 41
0.0762
 70
0
  0
VERTEX
  8
1
 10
15.2010
 20
-0.2947
 30
0.0000
  0
VERTEX
  8
1
 10
15.0781
 20
-0.4175
 30
0.0000
  0
SEQEND
  8
0
  0
POLYLINE
  8
1
 66
1
 10
0.0000
 20
0.0000
 30
0.0000
 40
0.0381
 41
0.0381
 70
0
  0
VERTEX
  8
1
 10
15.0646
 20
-0.4041
 30
0.0000
 42
1.0000
  0
VERTEX
  8
1
 10
15.0916
 20
-0.4310
 30
0.0000
  0
SEQEND
  8
0
  0
POLYLINE
  8
1
 66
1
 10
0.0000
 20
0.0000
 30
0.0000
 40
0.0381
 41
0.0381
 70
0
  0
VERTEX
  8
1
 10
15.2144
 20
-0.3081
 30
0.0000
 42
1.0000
  0
VERTEX
  8
1
 10
15.1875
 20
-0.2812
 30
0.0000
  0
SEQEND
  8
0
  0
POLYLINE
  8
1
 66
1
 10
0.0000
 20
0.0000
 30
0.0000
 40
0.0762
 41
0.0762
 70
0
  0
VERTEX
  8
1
 10
15.5696
 20
1.0453
 30
0.0000
  0
VERTEX
  8
1
 10
15.3238
 20
0.9225
 30
0.0000
  0
SEQEND
  8
0
  0
POLYLINE
  8
1
 66
1
 10
0.0000
 20
0.0000
 30
0.0000
 40
0.0381
 41
0.0381
 70
0
  0
VERTEX
  8
1
 10
15.3153
 20
0.9395
 30
0.0000
 42
1.0000
  0
VERTEX
  8
1
 10
15.3324
 20
0.9054
 30
0.0000
  0
SEQEND
  8
0
  0
POLYLINE
  8
1
 66
1
 10
0.0000
 20
0.0000
 30
0.0000
 40
0.0381
 41
0.0381
 70
0
  0
VERTEX
  8
1
 10
15.5781
 20
1.0283
 30
0.0000
 42
1.0000
  0
VERTEX
  8
1
 10
15.5611
 20
1.0624
 30
0.0000
  0
SEQEND
  8
0
  0
POLYLINE
  8
1
 66
1
 10
0.0000
 20
0.0000
 30
0.0000
 40
0.0762
 41
0.0762
 70
0
  0
VERTEX
  8
1
 10
15.3238
 20
0.9225
 30
0.0000
  0
VERTEX
  8
1
 10
15.0781
 20
0.6767
 30
0.0000
  0
SEQEND
  8
0
  0
POLYLINE
  8
1
 66
1
 10
0.0000
 20
0.0000
 30
0.0000
 40
0.0381
 41
0.0381
 70
0
  0
VERTEX
  8
1
 10
15.0646
 20
0.6902
 30
0.0000
 42
1.0000
  0
VERTEX
  8
1
 10
15.0916
 20
0.6632
 30
0.0000
  0
SEQEND
  8
0
  0
POLYLINE
  8
1
 66
1
 10
0.0000
 20
0.0000
 30
0.0000
 40
0.0381
 41
0.0381
 70
0
  0
VERTEX
  8
1
 10
15.3373
 20
0.9090
 30
0.0000
 42
1.0000
  0
VERTEX
  8
1
 10
15.3104
 20
0.9359
 30
0.0000
  0
SEQEND
  8
0
  0
POLYLINE
  8
1
 66
1
 10
0.0000
 20
0.0000
 30
0.0000
 40
0.0762
 41
0.0762
 70
0
  0
VERTEX
  8
1
 10
15.0781
 20
0.6767
 30
0.0000
  0
VERTEX
  8
1
 10
15.0781
 20
0.4310
 30
0.0000
  0
SEQEND
  8
0
  0
POLYLINE
  8
1
 66
1
 10
0.0000
 20
0.0000
 30
0.0000
 40
0.0381
 41
0.0381
 70
0
  0
VERTEX
  8
1
 10
15.0591
 20
0.4310
 30
0.0000
 42
1.0000
  0
VERTEX
  8
1
 10
15.0972
 20
0.4310
 30
0.0000
  0
SEQEND
  8
0
  0
POLYLINE
  8
1
 66
1
 10
0.0000
 20
0.0000
 30
0.0000
 40
0.0381
 41
0.0381
 70
0
  0
VERTEX
  8
1
 10
15.0972
 20
0.6767
 30
0.0000
 42
1.0000
  0
VERTEX
  8
1
 10
15.0591
 20
0.6767
 30
0.0000
  0
SEQEND
  8
0
  0
POLYLINE
  8
1
 66
1
 10
0.0000
 20
0.0000
 30
0.0000
 40
0.0762
 41
0.0762
 70
0
  0
VERTEX
  8
1
 10
15.0781
 20
0.4310
 30
0.0000
  0
VERTEX
  8
1
 10
15.2010
 20
0.3081
 30
0.0000
  0
SEQEND
  8
0
  0
POLYLINE
  8
1
 66
1
 10
0.0000
 20
0.0000
 30
0.0000
 40
0.0381
 41
0.0381
 70
0
  0
VERTEX
  8
1
 10
15.1875
 20
0.2946
 30
0.0000
 42
1.0000
  0
VERTEX
  8
1
 10
15.2144
 20
0.3216
 30
0.0000
  0
SEQEND
  8
0
  0
POLYLINE
  8
1
 66
1
 10
0.0000
 20
0.0000
 30
0.0000
 40
0.0381
 41
0.0381
 70
0
  0
VERTEX
  8
1
 10
15.0916
 20
0.4444
 30
0.0000
 42
1.0000
  0
VERTEX
  8
1
 10
15.0646
 20
0.4175
 30
0.0000
  0
SEQEND
  8
0
  0
POLYLINE
  8
1
 66
1
 10
0.0000
 20
0.0000
 30
0.0000
 40
0.0762
 41
0.0762
 70
0
  0
VERTEX
  8
1
 10
15.2010
 20
0.3081
 30
0.0000
  0
VERTEX
  8
1
 10
15.4467
 20
0.3081
 30
0.0000
  0
SEQEND
  8
0
  0
POLYLINE
  8
1
 66
1
 10
0.0000
 20
0.0000
 30
0.0000
 40
0.0381
 41
0.0381
 70
0
  0
VERTEX
  8
1
 10
15.4467
 20
0.2891
 30
0.0000
 42
1.0000
  0
VERTEX
  8
1
 10
15.4467
 20
0.3272
 30
0.0000
  0
SEQEND
  8
0
  0
POLYLINE
  8
1
 66
1
 10
0.0000
 20
0.0000
 30
0.0000
 40
0.0381
 41
0.0381
 70
0
  0
VERTEX
  8
1
 10
15.2010
 20
0.3272
 30
0.0000
 42
1.0000
  0
VERTEX
  8
1
 10
15.2010
 20
0.2891
 30
0.0000
  0
SEQEND
  8
0
  0
POLYLINE
  8
1
 66
1
 10
0.0000
 20
0.0000
 30
0.0000
 40
0.0762
 41
0.0762
 70
0
  0
VERTEX
  8
1
 10
15.4467
 20
0.3081
 30
0.0000
  0
VERTEX
  8
1
 10
15.5696
 20
0.4310
 30
0.0000
  0
SEQEND
  8
0
  0
POLYLINE
  8
1
 66
1
 10
0.0000
 20
0.0000
 30
0.0000
 40
0.0381
 41
0.0381
 70
0
  0
VERTEX
  8
1
 10
15.5831
 20
0.4175
 30
0.0000
 42
1.0000
  0
VERTEX
  8
1
 10
15.5561
 20
0.4444
 30
0.0000
  0
SEQEND
  8
0
  0
POLYLINE
  8
1
 66
1
 10
0.0000
 20
0.0000
 30
0.0000
 40
0.0381
 41
0.0381
 70
0
  0
VERTEX
  8
1
 10
15.4332
 20
0.3216
 30
0.0000
 42
1.0000
  0
VERTEX
  8
1
 10
15.4602
 20
0.2946
 30
0.0000
  0
SEQEND
  8
0
  0
POLYLINE
  8
1
 66
1
 10
0.0000
 20
0.0000
 30
0.0000
 40
0.0762
 41
0.0762
 70
0
  0
VERTEX
  8
1
 10
15.5696
 20
0.4310
 30
0.0000
  0
VERTEX
  8
1
 10
15.5696
 20
0.5538
 30
0.0000
  0
SEQEND
  8
0
  0
POLYLINE
  8
1
 66
1
 10
0.0000
 20
0.0000
 30
0.0000
 40
0.0381
 41
0.0381
 70
0
  0
VERTEX
  8
1
 10
15.5886
 20
0.5538
 30
0.0000
 42
1.0000
  0
VERTEX
  8
1
 10
15.5505
 20
0.5538
 30
0.0000
  0
SEQEND
  8
0
  0
POLYLINE
  8
1
 66
1
 10
0.0000
 20
0.0000
 30
0.0000
 40
0.0381
 41
0.0381
 70
0
  0
VERTEX
  8
1
 10
15.5505
 20
0.4310
 30
0.0000
 42
1.0000
  0
VERTEX
  8
1
 10
15.5886
 20
0.4310
 30
0.0000
  0
SEQEND
  8
0
  0
POLYLINE
  8
1
 66
1
 10
0.0000
 20
0.0000
 30
0.0000
 40
0.0762
 41
0.0762
 70
0
  0
VERTEX
  8
1
 10
15.5696
 20
0.5538
 30
0.0000
  0
VERTEX
  8
1
 10
15.4467
 20
0.6767
 30
0.0000
  0
SEQEND
  8
0
  0
POLYLINE
  8
1
 66
1
 10
0.0000
 20
0.0000
 30
0.0000
 40
0.0381
 41
0.0381
 70
0
  0
VERTEX
  8
1
 10
15.4602
 20
0.6902
 30
0.0000
 42
1.0000
  0
VERTEX
  8
1
 10
15.4332
 20
0.6632
 30
0.0000
  0
SEQEND
  8
0
  0
POLYLINE
  8
1
 66
1
 10
0.0000
 20
0.0000
 30
0.0000
 40
0.0381
 41
0.0381
 70
0
  0
VERTEX
  8
1
 10
15.5561
 20
0.5404
 30
0.0000
 42
1.0000
  0
VERTEX
  8
1
 10
15.5831
 20
0.5673
 30
0.0000
  0
SEQEND
  8
0
  0
POLYLINE
  8
1
 66
1
 10
0.0000
 20
0.0000
 30
0.0000
 40
0.0762
 41
0.0762
 70
0
  0
VERTEX
  8
1
 10
15.4467
 20
0.6767
 30
0.0000
  0
VERTEX
  8
1
 10
15.0781
 20
0.6767
 30
0.0000
  0
SEQEND
  8
0
  0
POLYLINE
  8
1
 66
1
 10
0.0000
 20
0.0000
 30
0.0000
 40
0.0381
 41
0.0381
 70
0
  0
VERTEX
  8
1
 10
15.0781
 20
0.6958
 30
0.0000
 42
1.0000
  0
VERTEX
  8
1
 10
15.0781
 20
0.6577
 30
0.0000
  0
SEQEND
  8
0
  0
POLYLINE
  8
1
 66
1
 10
0.0000
 20
0.0000
 30
0.0000
 40
0.0381
 41
0.0381
 70
0
  0
VERTEX
  8
1
 10
15.4467
 20
0.6577
 30
0.0000
 42
1.0000
  0
VERTEX
  8
1
 10
15.4467
 20
0.6958
 30
0.0000
  0
SEQEND
  8
0
  0
POLYLINE
  8
20
 66
1
 10
0.0000
 20
0.0000
 30
0.0000
 40
0.1300
 41
0.1300
 70
0
  0
VERTEX
  8
20
 10
0.0000
 20
-3.0000
 30
0.0000
  0
VERTEX
  8
20
 10
-5.7600
 20
-3.0000
 30
0.0000
  0
SEQEND
  8
0
  0
POLYLINE
  8
20
 66
1
 10
0.0000
 20
0.0000
 30
0.0000
 40
0.0650
 41
0.0650
 70
0
  0
VERTEX
  8
20
 10
-5.7600
 20
-2.9675
 30
0.0000
 42
1.0000
  0
VERTEX
  8
20
 10
-5.7600
 20
-3.0325
 30
0.0000
  0
SEQEND
  8
0
  0
POLYLINE
  8
20
 66
1
 10
0.0000
 20
0.0000
 30
0.0000
 40
0.0650
 41
0.0650
 70
0
  0
VERTEX
  8
20
 10
0.0000
 20
-3.0325
 30
0.0000
 42
1.0000
  0
VERTEX
  8
20
 10
0.0000
 20
-2.9675
 30
0.0000
  0
SEQEND
  8
0
  0
POLYLINE
  8
20
 66
1
 10
0.0000
 20
0.0000
 30
0.0000
 40
0.1300
 41
0.1300
 70
0
  0
VERTEX
  8
20
 10
0.0000
 20
3.0000
 30
0.0000
  0
VERTEX
  8
20
 10
-5.7600
 20
3.0000
 30
0.0000
  0
SEQEND
  8
0
  0
POLYLINE
  8
20
 66
1
 10
0.0000
 20
0.0000
 30
0.0000
 40
0.0650
 41
0.0650
 70
0
  0
VERTEX
  8
20
 10
-5.7600
 20
3.0325
 30
0.0000
 42
1.0000
  0
VERTEX
  8
20
 10
-5.7600
 20
2.9675
 30
0.0000
  0
SEQEND
  8
0
  0
POLYLINE
  8
20
 66
1
 10
0.0000
 20
0.0000
 30
0.0000
 40
0.0650
 41
0.0650
 70
0
  0
VERTEX
  8
20
 10
0.0000
 20
2.9675
 30
0.0000
 42
1.0000
  0
VERTEX
  8
20
 10
0.0000
 20
3.0325
 30
0.0000
  0
SEQEND
  8
0
  0
POLYLINE
  8
20
 66
1
 10
0.0000
 20
0.0000
 30
0.0000
 40
0.1300
 41
0.1300
 70
0
  0
VERTEX
  8
20
 10
-3.8100
 20
-2.9350
 30
0.0000
  0
VERTEX
  8
20
 10
-3.8100
 20
2.9350
 30
0.0000
  0
SEQEND
  8
0
  0
POLYLINE
  8
20
 66
1
 10
0.0000
 20
0.0000
 30
0.0000
 40
0.0650
 41
0.0650
 70
0
  0
VERTEX
  8
20
 10
-3.7775
 20
2.9350
 30
0.0000
 42
1.0000
  0
VERTEX
  8
20
 10
-3.8425
 20
2.9350
 30
0.0000
  0
SEQEND
  8
0
  0
POLYLINE
  8
20
 66
1
 10
0.0000
 20
0.0000
 30
0.0000
 40
0.0650
 41
0.0650
 70
0
  0
VERTEX
  8
20
 10
-3.8425
 20
-2.9350
 30
0.0000
 42
1.0000
  0
VERTEX
  8
20
 10
-3.7775
 20
-2.9350
 30
0.0000
  0
SEQEND
  8
0
  0
POLYLINE
  8
20
 66
1
 10
0.0000
 20
0.0000
 30
0.0000
 40
0.1300
 41
0.1300
 70
0
  0
VERTEX
  8
20
 10
-3.8100
 20
-2.9350
 30
0.0000
  0
VERTEX
  8
20
 10
-4.1292
 20
-0.4000
 30
0.0000
  0
SEQEND
  8
0
  0
POLYLINE
  8
20
 66
1
 10
0.0000
 20
0.0000
 30
0.0000
 40
0.0650
 41
0.0650
 70
0
  0
VERTEX
  8
20
 10
-4.0970
 20
-0.3959
 30
0.0000
 42
1.0000
  0
VERTEX
  8
20
 10
-4.1615
 20
-0.4041
 30
0.0000
  0
SEQEND
  8
0
  0
POLYLINE
  8
20
 66
1
 10
0.0000
 20
0.0000
 30
0.0000
 40
0.0650
 41
0.0650
 70
0
  0
VERTEX
  8
20
 10
-3.8422
 20
-2.9391
 30
0.0000
 42
1.0000
  0
VERTEX
  8
20
 10
-3.7778
 20
-2.9309
 30
0.0000
  0
SEQEND
  8
0
  0
POLYLINE
  8
20
 66
1
 10
0.0000
 20
0.0000
 30
0.0000
 40
0.1300
 41
0.1300
 70
0
  0
VERTEX
  8
20
 10
-4.1292
 20
-0.4000
 30
0.0000
  0
VERTEX
  8
20
 10
-3.4908
 20
-0.4000
 30
0.0000
  0
SEQEND
  8
0
  0
POLYLINE
  8
20
 66
1
 10
0.0000
 20
0.0000
 30
0.0000
 40
0.0650
 41
0.0650
 70
0
  0
VERTEX
  8
20
 10
-3.4908
 20
-0.4325
 30
0.0000
 42
1.0000
  0
VERTEX
  8
20
 10
-3.4908
 20
-0.3675
 30
0.0000
  0
SEQEND
  8
0
  0
POLYLINE
  8
20
 66
1
 10
0.0000
 20
0.0000
 30
0.0000
 40
0.0650
 41
0.0650
 70
0
  0
VERTEX
  8
20
 10
-4.1292
 20
-0.3675
 30
0.0000
 42
1.0000
  0
VERTEX
  8
20
 10
-4.1292
 20
-0.4325
 30
0.0000
  0
SEQEND
  8
0
  0
POLYLINE
  8
20
 66
1
 10
0.0000
 20
0.0000
 30
0.0000
 40
0.1300
 41
0.1300
 70
0
  0
VERTEX
  8
20
 10
-3.4908
 20
-0.4000
 30
0.0000
  0
VERTEX
  8
20
 10
-3.8100
 20
-2.9350
 30
0.0000
  0
SEQEND
  8
0
  0
POLYLINE
  8
20
 66
1
 10
0.0000
 20
0.0000
 30
0.0000
 40
0.0650
 41
0.0650
 70
0
  0
VERTEX
  8
20
 10
-3.8422
 20
-2.9309
 30
0.0000
 42
1.0000
  0
VERTEX
  8
20
 10
-3.7778
 20
-2.9391
 30
0.0000
  0
SEQEND
  8
0
  0
POLYLINE
  8
20
 66
1
 10
0.0000
 20
0.0000
 30
0.0000
 40
0.0650
 41
0.0650
 70
0
  0
VERTEX
  8
20
 10
-3.4585
 20
-0.4041
 30
0.0000
 42
1.0000
  0
VERTEX
  8
20
 10
-3.5230
 20
-0.3959
 30
0.0000
  0
SEQEND
  8
0
  0
POLYLINE
  8
20
 66
1
 10
0.0000
 20
0.0000
 30
0.0000
 40
0.1300
 41
0.1300
 70
0
  0
VERTEX
  8
20
 10
-3.8100
 20
-2.9350
 30
0.0000
  0
VERTEX
  8
20
 10
-3.9400
 20
-0.4000
 30
0.0000
  0
SEQEND
  8
0
  0
POLYLINE
  8
20
 66
1
 10
0.0000
 20
0.0000
 30
0.0000
 40
0.0650
 41
0.0650
 70
0
  0
VERTEX
  8
20
 10
-3.9075
 20
-0.3983
 30
0.0000
 42
1.0000
  0
VERTEX
  8
20
 10
-3.9725
 20
-0.4017
 30
0.0000
  0
SEQEND
  8
0
  0
POLYLINE
  8
20
 66
1
 10
0.0000
 20
0.0000
 30
0.0000
 40
0.0650
 41
0.0650
 70
0
  0
VERTEX
  8
20
 10
-3.8425
 20
-2.9367
 30
0.0000
 42
1.0000
  0
VERTEX
  8
20
 10
-3.7775
 20
-2.9333
 30
0.0000
  0
SEQEND
  8
0
  0
POLYLINE
  8
20
 66
1
 10
0.0000
 20
0.0000
 30
0.0000
 40
0.1300
 41
0.1300
 70
0
  0
VERTEX
  8
20
 10
-3.6800
 20
-0.4000
 30
0.0000
  0
VERTEX
  8
20
 10
-3.8100
 20
-2.9350
 30
0.0000
  0
SEQEND
  8
0
  0
POLYLINE
  8
20
 66
1
 10
0.0000
 20
0.0000
 30
0.0000
 40
0.0650
 41
0.0650
 70
0
  0
VERTEX
  8
20
 10
-3.8425
 20
-2.9333
 30
0.0000
 42
1.0000
  0
VERTEX
  8
20
 10
-3.7775
 20
-2.9367
 30
0.0000
  0
SEQEND
  8
0
  0
POLYLINE
  8
20
 66
1
 10
0.0000
 20
0.0000
 30
0.0000
 40
0.0650
 41
0.0650
 70
0
  0
VERTEX
  8
20
 10
-3.6475
 20
-0.4017
 30
0.0000
 42
1.0000
  0
VERTEX
  8
20
 10
-3.7125
 20
-0.3983
 30
0.0000
  0
SEQEND
  8
0
  0
POLYLINE
  8
20
 66
1
 10
0.0000
 20
0.0000
 30
0.0000
 40
0.1300
 41
0.1300
 70
0
  0
VERTEX
  8
20
 10
-3.8100
 20
-2.9350
 30
0.0000
  0
VERTEX
  8
20
 10
-4.0700
 20
-0.4000
 30
0.0000
  0
SEQEND
  8
0
  0
POLYLINE
  8
20
 66
1
 10
0.0000
 20
0.0000
 30
0.0000
 40
0.0650
 41
0.0650
 70
0
  0
VERTEX
  8
20
 10
-4.0377
 20
-0.3967
 30
0.0000
 42
1.0000
  0
VERTEX
  8
20
 10
-4.1023
 20
-0.4033
 30
0.0000
  0
SEQEND
  8
0
  0
POLYLINE
  8
20
 66
1
 10
0.0000
 20
0.0000
 30
0.0000
 40
0.0650
 41
0.0650
 70
0
  0
VERTEX
  8
20
 10
-3.8423
 20
-2.9383
 30
0.0000
 42
1.0000
  0
VERTEX
  8
20
 10
-3.7777
 20
-2.9317
 30
0.0000
  0
SEQEND
  8
0
  0
POLYLINE
  8
20
 66
1
 10
0.0000
 20
0.0000
 30
0.0000
 40
0.1300
 41
0.1300
 70
0
  0
VERTEX
  8
20
 10
-3.5500
 20
-0.4000
 30
0.0000
  0
VERTEX
  8
20
 10
-3.8100
 20
-2.9350
 30
0.0000
  0
SEQEND
  8
0
  0
POLYLINE
  8
20
 66
1
 10
0.0000
 20
0.0000
 30
0.0000
 40
0.0650
 41
0.0650
 70
0
  0
VERTEX
  8
20
 10
-3.8423
 20
-2.9317
 30
0.0000
 42
1.0000
  0
VERTEX
  8
20
 10
-3.7777
 20
-2.9383
 30
0.0000
  0
SEQEND
  8
0
  0
POLYLINE
  8
20
 66
1
 10
0.0000
 20
0.0000
 30
0.0000
 40
0.0650
 41
0.0650
 70
0
  0
VERTEX
  8
20
 10
-3.5177
 20
-0.4033
 30
0.0000
 42
1.0000
  0
VERTEX
  8
20
 10
-3.5823
 20
-0.3967
 30
0.0000
  0
SEQEND
  8
0
  0
POLYLINE
  8
20
 66
1
 10
0.0000
 20
0.0000
 30
0.0000
 40
0.1300
 41
0.1300
 70
0
  0
VERTEX
  8
20
 10
-3.8100
 20
2.9350
 30
0.0000
  0
VERTEX
  8
20
 10
-4.1292
 20
0.4000
 30
0.0000
  0
SEQEND
  8
0
  0
POLYLINE
  8
20
 66
1
 10
0.0000
 20
0.0000
 30
0.0000
 40
0.0650
 41
0.0650
 70
0
  0
VERTEX
  8
20
 10
-4.1615
 20
0.4041
 30
0.0000
 42
1.0000
  0
VERTEX
  8
20
 10
-4.0970
 20
0.3959
 30
0.0000
  0
SEQEND
  8
0
  0
POLYLINE
  8
20
 66
1
 10
0.0000
 20
0.0000
 30
0.0000
 40
0.0650
 41
0.0650
 70
0
  0
VERTEX
  8
20
 10
-3.7778
 20
2.9309
 30
0.0000
 42
1.0000
  0
VERTEX
  8
20
 10
-3.8422
 20
2.9391
 30
0.0000
  0
SEQEND
  8
0
  0
POLYLINE
  8
20
 66
1
 10
0.0000
 20
0.0000
 30
0.0000
 40
0.1300
 41
0.1300
 70
0
  0
VERTEX
  8
20
 10
-4.1292
 20
0.4000
 30
0.0000
  0
VERTEX
  8
20
 10
-3.4908
 20
0.4000
 30
0.0000
  0
SEQEND
  8
0
  0
POLYLINE
  8
20
 66
1
 10
0.0000
 20
0.0000
 30
0.0000
 40
0.0650
 41
0.0650
 70
0
  0
VERTEX
  8
20
 10
-3.4908
 20
0.3675
 30
0.0000
 42
1.0000
  0
VERTEX
  8
20
 10
-3.4908
 20
0.4325
 30
0.0000
  0
SEQEND
  8
0
  0
POLYLINE
  8
20
 66
1
 10
0.0000
 20
0.0000
 30
0.0000
 40
0.0650
 41
0.0650
 70
0
  0
VERTEX
  8
20
 10
-4.1292
 20
0.4325
 30
0.0000
 42
1.0000
  0
VERTEX
  8
20
 10
-4.1292
 20
0.3675
 30
0.0000
  0
SEQEND
  8
0
  0
POLYLINE
  8
20
 66
1
 10
0.0000
 20
0.0000
 30
0.0000
 40
0.1300
 41
0.1300
 70
0
  0
VERTEX
  8
20
 10
-3.4908
 20
0.4000
 30
0.0000
  0
VERTEX
  8
20
 10
-3.8100
 20
2.9350
 30
0.0000
  0
SEQEND
  8
0
  0
POLYLINE
  8
20
 66
1
 10
0.0000
 20
0.0000
 30
0.0000
 40
0.0650
 41
0.0650
 70
0
  0
VERTEX
  8
20
 10
-3.7778
 20
2.9391
 30
0.0000
 42
1.0000
  0
VERTEX
  8
20
 10
-3.8422
 20
2.9309
 30
0.0000
  0
SEQEND
  8
0
  0
POLYLINE
  8
20
 66
1
 10
0.0000
 20
0.0000
 30
0.0000
 40
0.0650
 41
0.0650
 70
0
  0
VERTEX
  8
20
 10
-3.5230
 20
0.3959
 30
0.0000
 42
1.0000
  0
VERTEX
  8
20
 10
-3.4585
 20
0.4041
 30
0.0000
  0
SEQEND
  8
0
  0
POLYLINE
  8
20
 66
1
 10
0.0000
 20
0.0000
 30
0.0000
 40
0.1300
 41
0.1300
 70
0
  0
VERTEX
  8
20
 10
-3.8100
 20
2.9350
 30
0.0000
  0
VERTEX
  8
20
 10
-3.9400
 20
0.4000
 30
0.0000
  0
SEQEND
  8
0
  0
POLYLINE
  8
20
 66
1
 10
0.0000
 20
0.0000
 30
0.0000
 40
0.0650
 41
0.0650
 70
0
  0
VERTEX
  8
20
 10
-3.9725
 20
0.4017
 30
0.0000
 42
1.0000
  0
VERTEX
  8
20
 10
-3.9075
 20
0.3983
 30
0.0000
  0
SEQEND
  8
0
  0
POLYLINE
  8
20
 66
1
 10
0.0000
 20
0.0000
 30
0.0000
 40
0.0650
 41
0.0650
 70
0
  0
VERTEX
  8
20
 10
-3.7775
 20
2.9333
 30
0.0000
 42
1.0000
  0
VERTEX
  8
20
 10
-3.8425
 20
2.9367
 30
0.0000
  0
SEQEND
  8
0
  0
POLYLINE
  8
20
 66
1
 10
0.0000
 20
0.0000
 30
0.0000
 40
0.1300
 41
0.1300
 70
0
  0
VERTEX
  8
20
 10
-3.6800
 20
0.4000
 30
0.0000
  0
VERTEX
  8
20
 10
-3.8100
 20
2.9350
 30
0.0000
  0
SEQEND
  8
0
  0
POLYLINE
  8
20
 66
1
 10
0.0000
 20
0.0000
 30
0.0000
 40
0.0650
 41
0.0650
 70
0
  0
VERTEX
  8
20
 10
-3.7775
 20
2.9367
 30
0.0000
 42
1.0000
  0
VERTEX
  8
20
 10
-3.8425
 20
2.9333
 30
0.0000
  0
SEQEND
  8
0
  0
POLYLINE
  8
20
 66
1
 10
0.0000
 20
0.0000
 30
0.0000
 40
0.0650
 41
0.0650
 70
0
  0
VERTEX
  8
20
 10
-3.7125
 20
0.3983
 30
0.0000
 42
1.0000
  0
VERTEX
  8
20
 10
-3.6475
 20
0.4017
 30
0.0000
  0
SEQEND
  8
0
  0
POLYLINE
  8
20
 66
1
 10
0.0000
 20
0.0000
 30
0.0000
 40
0.1300
 41
0.1300
 70
0
  0
VERTEX
  8
20
 10
-3.8100
 20
2.9350
 30
0.0000
  0
VERTEX
  8
20
 10
-4.0700
 20
0.4000
 30
0.0000
  0
SEQEND
  8
0
  0
POLYLINE
  8
20
 66
1
 10
0.0000
 20
0.0000
 30
0.0000
 40
0.0650
 41
0.0650
 70
0
  0
VERTEX
  8
20
 10
-4.1023
 20
0.4033
 30
0.0000
 42
1.0000
  0
VERTEX
  8
20
 10
-4.0377
 20
0.3967
 30
0.0000
  0
SEQEND
  8
0
  0
POLYLINE
  8
20
 66
1
 10
0.0000
 20
0.0000
 30
0.0000
 40
0.0650
 41
0.0650
 70
0
  0
VERTEX
  8
20
 10
-3.7777
 20
2.9317
 30
0.0000
 42
1.0000
  0
VERTEX
  8
20
 10
-3.8423
 20
2.9383
 30
0.0000
  0
SEQEND
  8
0
  0
POLYLINE
  8
20
 66
1
 10
0.0000
 20
0.0000
 30
0.0000
 40
0.1300
 41
0.1300
 70
0
  0
VERTEX
  8
20
 10
-3.5500
 20
0.4000
 30
0.0000
  0
VERTEX
  8
20
 10
-3.8100
 20
2.9350
 30
0.0000
  0
SEQEND
  8
0
  0
POLYLINE
  8
20
 66
1
 10
0.0000
 20
0.0000
 30
0.0000
 40
0.0650
 41
0.0650
 70
0
  0
VERTEX
  8
20
 10
-3.7777
 20
2.9383
 30
0.0000
 42
1.0000
  0
VERTEX
  8
20
 10
-3.8423
 20
2.9317
 30
0.0000
  0
SEQEND
  8
0
  0
POLYLINE
  8
20
 66
1
 10
0.0000
 20
0.0000
 30
0.0000
 40
0.0650
 41
0.0650
 70
0
  0
VERTEX
  8
20
 10
-3.5823
 20
0.3967
 30
0.0000
 42
1.0000
  0
VERTEX
  8
20
 10
-3.5177
 20
0.4033
 30
0.0000
  0
SEQEND
  8
0
  0
POLYLINE
  8
20
 66
1
 10
0.0000
 20
0.0000
 30
0.0000
 40
0.1524
 41
0.1524
 70
0
  0
VERTEX
  8
20
 10
-6.0877
 20
0.4513
 30
0.0000
  0
VERTEX
  8
20
 10
-5.8165
 20
-0.0911
 30
0.0000
  0
SEQEND
  8
0
  0
POLYLINE
  8
20
 66
1
 10
0.0000
 20
0.0000
 30
0.0000
 40
0.0762
 41
0.0762
 70
0
  0
VERTEX
  8
20
 10
-5.8506
 20
-0.1081
 30
0.0000
 42
1.0000
  0
VERTEX
  8
20
 10
-5.7824
 20
-0.0740
 30
0.0000
  0
SEQEND
  8
0
  0
POLYLINE
  8
20
 66
1
 10
0.0000
 20
0.0000
 30
0.0000
 40
0.0762
 41
0.0762
 70
0
  0
VERTEX
  8
20
 10
-6.0536
 20
0.4683
 30
0.0000
 42
1.0000
  0
VERTEX
  8
20
 10
-6.1218
 20
0.4342
 30
0.0000
  0
SEQEND
  8
0
  0
POLYLINE
  8
20
 66
1
 10
0.0000
 20
0.0000
 30
0.0000
 40
0.1524
 41
0.1524
 70
0
  0
VERTEX
  8
20
 10
-5.8165
 20
-0.0911
 30
0.0000
  0
VERTEX
  8
20
 10
-5.2742
 20
-0.6334
 30
0.0000
  0
SEQEND
  8
0
  0
POLYLINE
  8
20
 66
1
 10
0.0000
 20
0.0000
 30
0.0000
 40
0.0762
 41
0.0762
 70
0
  0
VERTEX
  8
20
 10
-5.3011
 20
-0.6603
 30
0.0000
 42
1.0000
  0
VERTEX
  8
20
 10
-5.2473
 20
-0.6065
 30
0.0000
  0
SEQEND
  8
0
  0
POLYLINE
  8
20
 66
1
 10
0.0000
 20
0.0000
 30
0.0000
 40
0.0762
 41
0.0762
 70
0
  0
VERTEX
  8
20
 10
-5.7896
 20
-0.0641
 30
0.0000
 42
1.0000
  0
VERTEX
  8
20
 10
-5.8435
 20
-0.1180
 30
0.0000
  0
SEQEND
  8
0
  0
POLYLINE
  8
20
 66
1
 10
0.0000
 20
0.0000
 30
0.0000
 40
0.1524
 41
0.1524
 70
0
  0
VERTEX
  8
20
 10
-5.2742
 20
-0.6334
 30
0.0000
  0
VERTEX
  8
20
 10
-4.7319
 20
-0.6334
 30
0.0000
  0
SEQEND
  8
0
  0
POLYLINE
  8
20
 66
1
 10
0.0000
 20
0.0000
 30
0.0000
 40
0.0762
 41
0.0762
 70
0
  0
VERTEX
  8
20
 10
-4.7319
 20
-0.6715
 30
0.0000
 42
1.0000
  0
VERTEX
  8
20
 10
-4.7319
 20
-0.5953
 30
0.0000
  0
SEQEND
  8
0
  0
POLYLINE
  8
20
 66
1
 10
0.0000
 20
0.0000
 30
0.0000
 40
0.0762
 41
0.0762
 70
0
  0
VERTEX
  8
20
 10
-5.2742
 20
-0.5953
 30
0.0000
 42
1.0000
  0
VERTEX
  8
20
 10
-5.2742
 20
-0.6715
 30
0.0000
  0
SEQEND
  8
0
  0
POLYLINE
  8
20
 66
1
 10
0.0000
 20
0.0000
 30
0.0000
 40
0.1524
 41
0.1524
 70
0
  0
VERTEX
  8
20
 10
-4.7319
 20
-0.6334
 30
0.0000
  0
VERTEX
  8
20
 10
-4.4607
 20
-0.3622
 30
0.0000
  0
SEQEND
  8
0
  0
POLYLINE
  8
20
 66
1
 10
0.0000
 20
0.0000
 30
0.0000
 40
0.0762
 41
0.0762
 70
0
  0
VERTEX
  8
20
 10
-4.4338
 20
-0.3892
 30
0.0000
 42
1.0000
  0
VERTEX
  8
20
 10
-4.4876
 20
-0.3353
 30
0.0000
  0
SEQEND
  8
0
  0
POLYLINE
  8
20
 66
1
 10
0.0000
 20
0.0000
 30
0.0000
 40
0.0762
 41
0.0762
 70
0
  0
VERTEX
  8
20
 10
-4.7588
 20
-0.6065
 30
0.0000
 42
1.0000
  0
VERTEX
  8
20
 10
-4.7049
 20
-0.6603
 30
0.0000
  0
SEQEND
  8
0
  0
POLYLINE
  8
20
 66
1
 10
0.0000
 20
0.0000
 30
0.0000
 40
0.1524
 41
0.1524
 70
0
  0
VERTEX
  8
20
 10
-4.4607
 20
-0.3622
 30
0.0000
  0
VERTEX
  8
20
 10
-4.4607
 20
0.1801
 30
0.0000
  0
SEQEND
  8
0
  0
POLYLINE
  8
20
 66
1
 10
0.0000
 20
0.0000
 30
0.0000
 40
0.0762
 41
0.0762
 70
0
  0
VERTEX
  8
20
 10
-4.4226
 20
0.1801
 30
0.0000
 42
1.0000
  0
VERTEX
  8
20
 10
-4.4988
 20
0.1801
 30
0.0000
  0
SEQEND
  8
0
  0
POLYLINE
  8
20
 66
1
 10
0.0000
 20
0.0000
 30
0.0000
 40
0.0762
 41
0.0762
 70
0
  0
VERTEX
  8
20
 10
-4.4988
 20
-0.3622
 30
0.0000
 42
1.0000
  0
VERTEX
  8
20
 10
-4.4226
 20
-0.3622
 30
0.0000
  0
SEQEND
  8
0
  0
POLYLINE
  8
20
 66
1
 10
0.0000
 20
0.0000
 30
0.0000
 40
0.1524
 41
0.1524
 70
0
  0
VERTEX
  8
20
 10
-4.4607
 20
0.1801
 30
0.0000
  0
VERTEX
  8
20
 10
-4.7319
 20
0.4513
 30
0.0000
  0
SEQEND
  8
0
  0
POLYLINE
  8
20
 66
1
 10
0.0000
 20
0.0000
 30
0.0000
 40
0.0762
 41
0.0762
 70
0
  0
VERTEX
  8
20
 10
-4.7049
 20
0.4782
 30
0.0000
 42
1.0000
  0
VERTEX
  8
20
 10
-4.7588
 20
0.4243
 30
0.0000
  0
SEQEND
  8
0
  0
POLYLINE
  8
20
 66
1
 10
0.0000
 20
0.0000
 30
0.0000
 40
0.0762
 41
0.0762
 70
0
  0
VERTEX
  8
20
 10
-4.4876
 20
0.1531
 30
0.0000
 42
1.0000
  0
VERTEX
  8
20
 10
-4.4338
 20
0.2070
 30
0.0000
  0
SEQEND
  8
0
  0
POLYLINE
  8
20
 66
1
 10
0.0000
 20
0.0000
 30
0.0000
 40
0.1524
 41
0.1524
 70
0
  0
VERTEX
  8
20
 10
-4.7319
 20
0.4513
 30
0.0000
  0
VERTEX
  8
20
 10
-5.0030
 20
0.4513
 30
0.0000
  0
SEQEND
  8
0
  0
POLYLINE
  8
20
 66
1
 10
0.0000
 20
0.0000
 30
0.0000
 40
0.0762
 41
0.0762
 70
0
  0
VERTEX
  8
20
 10
-5.0030
 20
0.4894
 30
0.0000
 42
1.0000
  0
VERTEX
  8
20
 10
-5.0030
 20
0.4132
 30
0.0000
  0
SEQEND
  8
0
  0
POLYLINE
  8
20
 66
1
 10
0.0000
 20
0.0000
 30
0.0000
 40
0.0762
 41
0.0762
 70
0
  0
VERTEX
  8
20
 10
-4.7319
 20
0.4132
 30
0.0000
 42
1.0000
  0
VERTEX
  8
20
 10
-4.7319
 20
0.4894
 30
0.0000
  0
SEQEND
  8
0
  0
POLYLINE
  8
20
 66
1
 10
0.0000
 20
0.0000
 30
0.0000
 40
0.1524
 41
0.1524
 70
0
  0
VERTEX
  8
20
 10
-5.0030
 20
0.4513
 30
0.0000
  0
VERTEX
  8
20
 10
-5.2742
 20
0.1801
 30
0.0000
  0
SEQEND
  8
0
  0
POLYLINE
  8
20
 66
1
 10
0.0000
 20
0.0000
 30
0.0000
 40
0.0762
 41
0.0762
 70
0
  0
VERTEX
  8
20
 10
-5.3011
 20
0.2070
 30
0.0000
 42
1.0000
  0
VERTEX
  8
20
 10
-5.2473
 20
0.1531
 30
0.0000
  0
SEQEND
  8
0
  0
POLYLINE
  8
20
 66
1
 10
0.0000
 20
0.0000
 30
0.0000
 40
0.0762
 41
0.0762
 70
0
  0
VERTEX
  8
20
 10
-4.9761
 20
0.4243
 30
0.0000
 42
1.0000
  0
VERTEX
  8
20
 10
-5.0300
 20
0.4782
 30
0.0000
  0
SEQEND
  8
0
  0
POLYLINE
  8
20
 66
1
 10
0.0000
 20
0.0000
 30
0.0000
 40
0.1524
 41
0.1524
 70
0
  0
VERTEX
  8
20
 10
-5.2742
 20
0.1801
 30
0.0000
  0
VERTEX
  8
20
 10
-5.2742
 20
-0.6334
 30
0.0000
  0
SEQEND
  8
0
  0
POLYLINE
  8
20
 66
1
 10
0.0000
 20
0.0000
 30
0.0000
 40
0.0762
 41
0.0762
 70
0
  0
VERTEX
  8
20
 10
-5.3123
 20
-0.6334
 30
0.0000
 42
1.0000
  0
VERTEX
  8
20
 10
-5.2361
 20
-0.6334
 30
0.0000
  0
SEQEND
  8
0
  0
POLYLINE
  8
20
 66
1
 10
0.0000
 20
0.0000
 30
0.0000
 40
0.0762
 41
0.0762
 70
0
  0
VERTEX
  8
20
 10
-5.2361
 20
0.1801
 30
0.0000
 42
1.0000
  0
VERTEX
  8
20
 10
-5.3123
 20
0.1801
 30
0.0000
  0
SEQEND
  8
0
  0
POLYLINE
  8
20
 66
1
 10
0.0000
 20
0.0000
 30
0.0000
 40
0.1300
 41
0.1300
 70
0
  0
VERTEX
  8
20
 10
0.0000
 20
3.0000
 30
0.0000
  0
VERTEX
  8
20
 10
0.0000
 20
8.3000
 30
0.0000
  0
SEQEND
  8
0
  0
POLYLINE
  8
20
 66
1
 10
0.0000
 20
0.0000
 30
0.0000
 40
0.0650
 41
0.0650
 70
0
  0
VERTEX
  8
20
 10
0.0325
 20
8.3000
 30
0.0000
 42
1.0000
  0
VERTEX
  8
20
 10
-0.0325
 20
8.3000
 30
0.0000
  0
SEQEND
  8
0
  0
POLYLINE
  8
20
 66
1
 10
0.0000
 20
0.0000
 30
0.0000
 40
0.0650
 41
0.0650
 70
0
  0
VERTEX
  8
20
 10
-0.0325
 20
3.0000
 30
0.0000
 42
1.0000
  0
VERTEX
  8
20
 10
0.0325
 20
3.0000
 30
0.0000
  0
SEQEND
  8
0
  0
POLYLINE
  8
20
 66
1
 10
0.0000
 20
0.0000
 30
0.0000
 40
0.1300
 41
0.1300
 70
0
  0
VERTEX
  8
20
 10
30.0000
 20
3.0000
 30
0.0000
  0
VERTEX
  8
20
 10
30.0000
 20
8.3000
 30
0.0000
  0
SEQEND
  8
0
  0
POLYLINE
  8
20
 66
1
 10
0.0000
 20
0.0000
 30
0.0000
 40
0.0650
 41
0.0650
 70
0
  0
VERTEX
  8
20
 10
30.0325
 20
8.3000
 30
0.0000
 42
1.0000
  0
VERTEX
  8
20
 10
29.9675
 20
8.3000
 30
0.0000
  0
SEQEND
  8
0
  0
POLYLINE
  8
20
 66
1
 10
0.0000
 20
0.0000
 30
0.0000
 40
0.0650
 41
0.0650
 70
0
  0
VERTEX
  8
20
 10
29.9675
 20
3.0000
 30
0.0000
 42
1.0000
  0
VERTEX
  8
20
 10
30.0325
 20
3.0000
 30
0.0000
  0
SEQEND
  8
0
  0
POLYLINE
  8
20
 66
1
 10
0.0000
 20
0.0000
 30
0.0000
 40
0.1300
 41
0.1300
 70
0
  0
VERTEX
  8
20
 10
0.0650
 20
6.3500
 30
0.0000
  0
VERTEX
  8
20
 10
29.9350
 20
6.3500
 30
0.0000
  0
SEQEND
  8
0
  0
POLYLINE
  8
20
 66
1
 10
0.0000
 20
0.0000
 30
0.0000
 40
0.0650
 41
0.0650
 70
0
  0
VERTEX
  8
20
 10
29.9350
 20
6.3175
 30
0.0000
 42
1.0000
  0
VERTEX
  8
20
 10
29.9350
 20
6.3825
 30
0.0000
  0
SEQEND
  8
0
  0
POLYLINE
  8
20
 66
1
 10
0.0000
 20
0.0000
 30
0.0000
 40
0.0650
 41
0.0650
 70
0
  0
VERTEX
  8
20
 10
0.0650
 20
6.3825
 30
0.0000
 42
1.0000
  0
VERTEX
  8
20
 10
0.0650
 20
6.3175
 30
0.0000
  0
SEQEND
  8
0
  0
POLYLINE
  8
20
 66
1
 10
0.0000
 20
0.0000
 30
0.0000
 40
0.1300
 41
0.1300
 70
0
  0
VERTEX
  8
20
 10
0.0650
 20
6.3500
 30
0.0000
  0
VERTEX
  8
20
 10
2.6000
 20
6.6692
 30
0.0000
  0
SEQEND
  8
0
  0
POLYLINE
  8
20
 66
1
 10
0.0000
 20
0.0000
 30
0.0000
 40
0.0650
 41
0.0650
 70
0
  0
VERTEX
  8
20
 10
2.6041
 20
6.6370
 30
0.0000
 42
1.0000
  0
VERTEX
  8
20
 10
2.5959
 20
6.7015
 30
0.0000
  0
SEQEND
  8
0
  0
POLYLINE
  8
20
 66
1
 10
0.0000
 20
0.0000
 30
0.0000
 40
0.0650
 41
0.0650
 70
0
  0
VERTEX
  8
20
 10
0.0609
 20
6.3822
 30
0.0000
 42
1.0000
  0
VERTEX
  8
20
 10
0.0691
 20
6.3178
 30
0.0000
  0
SEQEND
  8
0
  0
POLYLINE
  8
20
 66
1
 10
0.0000
 20
0.0000
 30
0.0000
 40
0.1300
 41
0.1300
 70
0
  0
VERTEX
  8
20
 10
2.6000
 20
6.6692
 30
0.0000
  0
VERTEX
  8
20
 10
2.6000
 20
6.0308
 30
0.0000
  0
SEQEND
  8
0
  0
POLYLINE
  8
20
 66
1
 10
0.0000
 20
0.0000
 30
0.0000
 40
0.0650
 41
0.0650
 70
0
  0
VERTEX
  8
20
 10
2.5675
 20
6.0308
 30
0.0000
 42
1.0000
  0
VERTEX
  8
20
 10
2.6325
 20
6.0308
 30
0.0000
  0
SEQEND
  8
0
  0
POLYLINE
  8
20
 66
1
 10
0.0000
 20
0.0000
 30
0.0000
 40
0.0650
 41
0.0650
 70
0
  0
VERTEX
  8
20
 10
2.6325
 20
6.6692
 30
0.0000
 42
1.0000
  0
VERTEX
  8
20
 10
2.5675
 20
6.6692
 30
0.0000
  0
SEQEND
  8
0
  0
POLYLINE
  8
20
 66
1
 10
0.0000
 20
0.0000
 30
0.0000
 40
0.1300
 41
0.1300
 70
0
  0
VERTEX
  8
20
 10
2.6000
 20
6.0308
 30
0.0000
  0
VERTEX
  8
20
 10
0.0650
 20
6.3500
 30
0.0000
  0
SEQEND
  8
0
  0
POLYLINE
  8
20
 66
1
 10
0.0000
 20
0.0000
 30
0.0000
 40
0.0650
 41
0.0650
 70
0
  0
VERTEX
  8
20
 10
0.0691
 20
6.3822
 30
0.0000
 42
1.0000
  0
VERTEX
  8
20
 10
0.0609
 20
6.3178
 30
0.0000
  0
SEQEND
  8
0
  0
POLYLINE
  8
20
 66
1
 10
0.0000
 20
0.0000
 30
0.0000
 40
0.0650
 41
0.0650
 70
0
  0
VERTEX
  8
20
 10
2.5959
 20
5.9985
 30
0.0000
 42
1.0000
  0
VERTEX
  8
20
 10
2.6041
 20
6.0630
 30
0.0000
  0
SEQEND
  8
0
  0
POLYLINE
  8
20
 66
1
 10
0.0000
 20
0.0000
 30
0.0000
 40
0.1300
 41
0.1300
 70
0
  0
VERTEX
  8
20
 10
0.0650
 20
6.3500
 30
0.0000
  0
VERTEX
  8
20
 10
2.6000
 20
6.4800
 30
0.0000
  0
SEQEND
  8
0
  0
POLYLINE
  8
20
 66
1
 10
0.0000
 20
0.0000
 30
0.0000
 40
0.0650
 41
0.0650
 70
0
  0
VERTEX
  8
20
 10
2.6017
 20
6.4475
 30
0.0000
 42
1.0000
  0
VERTEX
  8
20
 10
2.5983
 20
6.5125
 30
0.0000
  0
SEQEND
  8
0
  0
POLYLINE
  8
20
 66
1
 10
0.0000
 20
0.0000
 30
0.0000
 40
0.0650
 41
0.0650
 70
0
  0
VERTEX
  8
20
 10
0.0633
 20
6.3825
 30
0.0000
 42
1.0000
  0
VERTEX
  8
20
 10
0.0667
 20
6.3175
 30
0.0000
  0
SEQEND
  8
0
  0
POLYLINE
  8
20
 66
1
 10
0.0000
 20
0.0000
 30
0.0000
 40
0.1300
 41
0.1300
 70
0
  0
VERTEX
  8
20
 10
2.6000
 20
6.2200
 30
0.0000
  0
VERTEX
  8
20
 10
0.0650
 20
6.3500
 30
0.0000
  0
SEQEND
  8
0
  0
POLYLINE
  8
20
 66
1
 10
0.0000
 20
0.0000
 30
0.0000
 40
0.0650
 41
0.0650
 70
0
  0
VERTEX
  8
20
 10
0.0667
 20
6.3825
 30
0.0000
 42
1.0000
  0
VERTEX
  8
20
 10
0.0633
 20
6.3175
 30
0.0000
  0
SEQEND
  8
0
  0
POLYLINE
  8
20
 66
1
 10
0.0000
 20
0.0000
 30
0.0000
 40
0.0650
 41
0.0650
 70
0
  0
VERTEX
  8
20
 10
2.5983
 20
6.1875
 30
0.0000
 42
1.0000
  0
VERTEX
  8
20
 10
2.6017
 20
6.2525
 30
0.0000
  0
SEQEND
  8
0
  0
POLYLINE
  8
20
 66
1
 10
0.0000
 20
0.0000
 30
0.0000
 40
0.1300
 41
0.1300
 70
0
  0
VERTEX
  8
20
 10
0.0650
 20
6.3500
 30
0.0000
  0
VERTEX
  8
20
 10
2.6000
 20
6.6100
 30
0.0000
  0
SEQEND
  8
0
  0
POLYLINE
  8
20
 66
1
 10
0.0000
 20
0.0000
 30
0.0000
 40
0.0650
 41
0.0650
 70
0
  0
VERTEX
  8
20
 10
2.6033
 20
6.5777
 30
0.0000
 42
1.0000
  0
VERTEX
  8
20
 10
2.5967
 20
6.6423
 30
0.0000
  0
SEQEND
  8
0
  0
POLYLINE
  8
20
 66
1
 10
0.0000
 20
0.0000
 30
0.0000
 40
0.0650
 41
0.0650
 70
0
  0
VERTEX
  8
20
 10
0.0617
 20
6.3823
 30
0.0000
 42
1.0000
  0
VERTEX
  8
20
 10
0.0683
 20
6.3177
 30
0.0000
  0
SEQEND
  8
0
  0
POLYLINE
  8
20
 66
1
 10
0.0000
 20
0.0000
 30
0.0000
 40
0.1300
 41
0.1300
 70
0
  0
VERTEX
  8
20
 10
2.6000
 20
6.0900
 30
0.0000
  0
VERTEX
  8
20
 10
0.0650
 20
6.3500
 30
0.0000
  0
SEQEND
  8
0
  0
POLYLINE
  8
20
 66
1
 10
0.0000
 20
0.0000
 30
0.0000
 40
0.0650
 41
0.0650
 70
0
  0
VERTEX
  8
20
 10
0.0683
 20
6.3823
 30
0.0000
 42
1.0000
  0
VERTEX
  8
20
 10
0.0617
 20
6.3177
 30
0.0000
  0
SEQEND
  8
0
  0
POLYLINE
  8
20
 66
1
 10
0.0000
 20
0.0000
 30
0.0000
 40
0.0650
 41
0.0650
 70
0
  0
VERTEX
  8
20
 10
2.5967
 20
6.0577
 30
0.0000
 42
1.0000
  0
VERTEX
  8
20
 10
2.6033
 20
6.1223
 30
0.0000
  0
SEQEND
  8
0
  0
POLYLINE
  8
20
 66
1
 10
0.0000
 20
0.0000
 30
0.0000
 40
0.1300
 41
0.1300
 70
0
  0
VERTEX
  8
20
 10
29.9350
 20
6.3500
 30
0.0000
  0
VERTEX
  8
20
 10
27.4000
 20
6.6692
 30
0.0000
  0
SEQEND
  8
0
  0
POLYLINE
  8
20
 66
1
 10
0.0000
 20
0.0000
 30
0.0000
 40
0.0650
 41
0.0650
 70
0
  0
VERTEX
  8
20
 10
27.4041
 20
6.7015
 30
0.0000
 42
1.0000
  0
VERTEX
  8
20
 10
27.3959
 20
6.6370
 30
0.0000
  0
SEQEND
  8
0
  0
POLYLINE
  8
20
 66
1
 10
0.0000
 20
0.0000
 30
0.0000
 40
0.0650
 41
0.0650
 70
0
  0
VERTEX
  8
20
 10
29.9309
 20
6.3178
 30
0.0000
 42
1.0000
  0
VERTEX
  8
20
 10
29.9391
 20
6.3822
 30
0.0000
  0
SEQEND
  8
0
  0
POLYLINE
  8
20
 66
1
 10
0.0000
 20
0.0000
 30
0.0000
 40
0.1300
 41
0.1300
 70
0
  0
VERTEX
  8
20
 10
27.4000
 20
6.6692
 30
0.0000
  0
VERTEX
  8
20
 10
27.4000
 20
6.0308
 30
0.0000
  0
SEQEND
  8
0
  0
POLYLINE
  8
20
 66
1
 10
0.0000
 20
0.0000
 30
0.0000
 40
0.0650
 41
0.0650
 70
0
  0
VERTEX
  8
20
 10
27.3675
 20
6.0308
 30
0.0000
 42
1.0000
  0
VERTEX
  8
20
 10
27.4325
 20
6.0308
 30
0.0000
  0
SEQEND
  8
0
  0
POLYLINE
  8
20
 66
1
 10
0.0000
 20
0.0000
 30
0.0000
 40
0.0650
 41
0.0650
 70
0
  0
VERTEX
  8
20
 10
27.4325
 20
6.6692
 30
0.0000
 42
1.0000
  0
VERTEX
  8
20
 10
27.3675
 20
6.6692
 30
0.0000
  0
SEQEND
  8
0
  0
POLYLINE
  8
20
 66
1
 10
0.0000
 20
0.0000
 30
0.0000
 40
0.1300
 41
0.1300
 70
0
  0
VERTEX
  8
20
 10
27.4000
 20
6.0308
 30
0.0000
  0
VERTEX
  8
20
 10
29.9350
 20
6.3500
 30
0.0000
  0
SEQEND
  8
0
  0
POLYLINE
  8
20
 66
1
 10
0.0000
 20
0.0000
 30
0.0000
 40
0.0650
 41
0.0650
 70
0
  0
VERTEX
  8
20
 10
29.9391
 20
6.3178
 30
0.0000
 42
1.0000
  0
VERTEX
  8
20
 10
29.9309
 20
6.3822
 30
0.0000
  0
SEQEND
  8
0
  0
POLYLINE
  8
20
 66
1
 10
0.0000
 20
0.0000
 30
0.0000
 40
0.0650
 41
0.0650
 70
0
  0
VERTEX
  8
20
 10
27.3959
 20
6.0630
 30
0.0000
 42
1.0000
  0
VERTEX
  8
20
 10
27.4041
 20
5.9985
 30
0.0000
  0
SEQEND
  8
0
  0
POLYLINE
  8
20
 66
1
 10
0.0000
 20
0.0000
 30
0.0000
 40
0.1300
 41
0.1300
 70
0
  0
VERTEX
  8
20
 10
29.9350
 20
6.3500
 30
0.0000
  0
VERTEX
  8
20
 10
27.4000
 20
6.4800
 30
0.0000
  0
SEQEND
  8
0
  0
POLYLINE
  8
20
 66
1
 10
0.0000
 20
0.0000
 30
0.0000
 40
0.0650
 41
0.0650
 70
0
  0
VERTEX
  8
20
 10
27.4017
 20
6.5125
 30
0.0000
 42
1.0000
  0
VERTEX
  8
20
 10
27.3983
 20
6.4475
 30
0.0000
  0
SEQEND
  8
0
  0
POLYLINE
  8
20
 66
1
 10
0.0000
 20
0.0000
 30
0.0000
 40
0.0650
 41
0.0650
 70
0
  0
VERTEX
  8
20
 10
29.9333
 20
6.3175
 30
0.0000
 42
1.0000
  0
VERTEX
  8
20
 10
29.9367
 20
6.3825
 30
0.0000
  0
SEQEND
  8
0
  0
POLYLINE
  8
20
 66
1
 10
0.0000
 20
0.0000
 30
0.0000
 40
0.1300
 41
0.1300
 70
0
  0
VERTEX
  8
20
 10
27.4000
 20
6.2200
 30
0.0000
  0
VERTEX
  8
20
 10
29.9350
 20
6.3500
 30
0.0000
  0
SEQEND
  8
0
  0
POLYLINE
  8
20
 66
1
 10
0.0000
 20
0.0000
 30
0.0000
 40
0.0650
 41
0.0650
 70
0
  0
VERTEX
  8
20
 10
29.9367
 20
6.3175
 30
0.0000
 42
1.0000
  0
VERTEX
  8
20
 10
29.9333
 20
6.3825
 30
0.0000
  0
SEQEND
  8
0
  0
POLYLINE
  8
20
 66
1
 10
0.0000
 20
0.0000
 30
0.0000
 40
0.0650
 41
0.0650
 70
0
  0
VERTEX
  8
20
 10
27.3983
 20
6.2525
 30
0.0000
 42
1.0000
  0
VERTEX
  8
20
 10
27.4017
 20
6.1875
 30
0.0000
  0
SEQEND
  8
0
  0
POLYLINE
  8
20
 66
1
 10
0.0000
 20
0.0000
 30
0.0000
 40
0.1300
 41
0.1300
 70
0
  0
VERTEX
  8
20
 10
29.9350
 20
6.3500
 30
0.0000
  0
VERTEX
  8
20
 10
27.4000
 20
6.6100
 30
0.0000
  0
SEQEND
  8
0
  0
POLYLINE
  8
20
 66
1
 10
0.0000
 20
0.0000
 30
0.0000
 40
0.0650
 41
0.0650
 70
0
  0
VERTEX
  8
20
 10
27.4033
 20
6.6423
 30
0.0000
 42
1.0000
  0
VERTEX
  8
20
 10
27.3967
 20
6.5777
 30
0.0000
  0
SEQEND
  8
0
  0
POLYLINE
  8
20
 66
1
 10
0.0000
 20
0.0000
 30
0.0000
 40
0.0650
 41
0.0650
 70
0
  0
VERTEX
  8
20
 10
29.9317
 20
6.3177
 30
0.0000
 42
1.0000
  0
VERTEX
  8
20
 10
29.9383
 20
6.3823
 30
0.0000
  0
SEQEND
  8
0
  0
POLYLINE
  8
20
 66
1
 10
0.0000
 20
0.0000
 30
0.0000
 40
0.1300
 41
0.1300
 70
0
  0
VERTEX
  8
20
 10
27.4000
 20
6.0900
 30
0.0000
  0
VERTEX
  8
20
 10
29.9350
 20
6.3500
 30
0.0000
  0
SEQEND
  8
0
  0
POLYLINE
  8
20
 66
1
 10
0.0000
 20
0.0000
 30
0.0000
 40
0.0650
 41
0.0650
 70
0
  0
VERTEX
  8
20
 10
29.9383
 20
6.3177
 30
0.0000
 42
1.0000
  0
VERTEX
  8
20
 10
29.9317
 20
6.3823
 30
0.0000
  0
SEQEND
  8
0
  0
POLYLINE
  8
20
 66
1
 10
0.0000
 20
0.0000
 30
0.0000
 40
0.0650
 41
0.0650
 70
0
  0
VERTEX
  8
20
 10
27.3967
 20
6.1223
 30
0.0000
 42
1.0000
  0
VERTEX
  8
20
 10
27.4033
 20
6.0577
 30
0.0000
  0
SEQEND
  8
0
  0
POLYLINE
  8
20
 66
1
 10
0.0000
 20
0.0000
 30
0.0000
 40
0.1524
 41
0.1524
 70
0
  0
VERTEX
  8
20
 10
13.6570
 20
8.3565
 30
0.0000
  0
VERTEX
  8
20
 10
13.9282
 20
8.6277
 30
0.0000
  0
SEQEND
  8
0
  0
POLYLINE
  8
20
 66
1
 10
0.0000
 20
0.0000
 30
0.0000
 40
0.0762
 41
0.0762
 70
0
  0
VERTEX
  8
20
 10
13.9551
 20
8.6007
 30
0.0000
 42
1.0000
  0
VERTEX
  8
20
 10
13.9012
 20
8.6546
 30
0.0000
  0
SEQEND
  8
0
  0
POLYLINE
  8
20
 66
1
 10
0.0000
 20
0.0000
 30
0.0000
 40
0.0762
 41
0.0762
 70
0
  0
VERTEX
  8
20
 10
13.6300
 20
8.3835
 30
0.0000
 42
1.0000
  0
VERTEX
  8
20
 10
13.6839
 20
8.3296
 30
0.0000
  0
SEQEND
  8
0
  0
POLYLINE
  8
20
 66
1
 10
0.0000
 20
0.0000
 30
0.0000
 40
0.1524
 41
0.1524
 70
0
  0
VERTEX
  8
20
 10
13.9282
 20
8.6277
 30
0.0000
  0
VERTEX
  8
20
 10
14.4705
 20
8.6277
 30
0.0000
  0
SEQEND
  8
0
  0
POLYLINE
  8
20
 66
1
 10
0.0000
 20
0.0000
 30
0.0000
 40
0.0762
 41
0.0762
 70
0
  0
VERTEX
  8
20
 10
14.4705
 20
8.5896
 30
0.0000
 42
1.0000
  0
VERTEX
  8
20
 10
14.4705
 20
8.6658
 30
0.0000
  0
SEQEND
  8
0
  0
POLYLINE
  8
20
 66
1
 10
0.0000
 20
0.0000
 30
0.0000
 40
0.0762
 41
0.0762
 70
0
  0
VERTEX
  8
20
 10
13.9282
 20
8.6658
 30
0.0000
 42
1.0000
  0
VERTEX
  8
20
 10
13.9282
 20
8.5896
 30
0.0000
  0
SEQEND
  8
0
  0
POLYLINE
  8
20
 66
1
 10
0.0000
 20
0.0000
 30
0.0000
 40
0.1524
 41
0.1524
 70
0
  0
VERTEX
  8
20
 10
14.4705
 20
8.6277
 30
0.0000
  0
VERTEX
  8
20
 10
14.7416
 20
8.3565
 30
0.0000
  0
SEQEND
  8
0
  0
POLYLINE
  8
20
 66
1
 10
0.0000
 20
0.0000
 30
0.0000
 40
0.0762
 41
0.0762
 70
0
  0
VERTEX
  8
20
 10
14.7147
 20
8.3296
 30
0.0000
 42
1.0000
  0
VERTEX
  8
20
 10
14.7686
 20
8.3835
 30
0.0000
  0
SEQEND
  8
0
  0
POLYLINE
  8
20
 66
1
 10
0.0000
 20
0.0000
 30
0.0000
 40
0.0762
 41
0.0762
 70
0
  0
VERTEX
  8
20
 10
14.4974
 20
8.6546
 30
0.0000
 42
1.0000
  0
VERTEX
  8
20
 10
14.4435
 20
8.6007
 30
0.0000
  0
SEQEND
  8
0
  0
POLYLINE
  8
20
 66
1
 10
0.0000
 20
0.0000
 30
0.0000
 40
0.1524
 41
0.1524
 70
0
  0
VERTEX
  8
20
 10
14.7416
 20
8.3565
 30
0.0000
  0
VERTEX
  8
20
 10
14.7416
 20
8.0854
 30
0.0000
  0
SEQEND
  8
0
  0
POLYLINE
  8
20
 66
1
 10
0.0000
 20
0.0000
 30
0.0000
 40
0.0762
 41
0.0762
 70
0
  0
VERTEX
  8
20
 10
14.7035
 20
8.0854
 30
0.0000
 42
1.0000
  0
VERTEX
  8
20
 10
14.7797
 20
8.0854
 30
0.0000
  0
SEQEND
  8
0
  0
POLYLINE
  8
20
 66
1
 10
0.0000
 20
0.0000
 30
0.0000
 40
0.0762
 41
0.0762
 70
0
  0
VERTEX
  8
20
 10
14.7797
 20
8.3565
 30
0.0000
 42
1.0000
  0
VERTEX
  8
20
 10
14.7035
 20
8.3565
 30
0.0000
  0
SEQEND
  8
0
  0
POLYLINE
  8
20
 66
1
 10
0.0000
 20
0.0000
 30
0.0000
 40
0.1524
 41
0.1524
 70
0
  0
VERTEX
  8
20
 10
14.7416
 20
8.0854
 30
0.0000
  0
VERTEX
  8
20
 10
14.4705
 20
7.8142
 30
0.0000
  0
SEQEND
  8
0
  0
POLYLINE
  8
20
 66
1
 10
0.0000
 20
0.0000
 30
0.0000
 40
0.0762
 41
0.0762
 70
0
  0
VERTEX
  8
20
 10
14.4435
 20
7.8411
 30
0.0000
 42
1.0000
  0
VERTEX
  8
20
 10
14.4974
 20
7.7873
 30
0.0000
  0
SEQEND
  8
0
  0
POLYLINE
  8
20
 66
1
 10
0.0000
 20
0.0000
 30
0.0000
 40
0.0762
 41
0.0762
 70
0
  0
VERTEX
  8
20
 10
14.7686
 20
8.0584
 30
0.0000
 42
1.0000
  0
VERTEX
  8
20
 10
14.7147
 20
8.1123
 30
0.0000
  0
SEQEND
  8
0
  0
POLYLINE
  8
20
 66
1
 10
0.0000
 20
0.0000
 30
0.0000
 40
0.1524
 41
0.1524
 70
0
  0
VERTEX
  8
20
 10
14.4705
 20
7.8142
 30
0.0000
  0
VERTEX
  8
20
 10
14.1993
 20
7.8142
 30
0.0000
  0
SEQEND
  8
0
  0
POLYLINE
  8
20
 66
1
 10
0.0000
 20
0.0000
 30
0.0000
 40
0.0762
 41
0.0762
 70
0
  0
VERTEX
  8
20
 10
14.1993
 20
7.8523
 30
0.0000
 42
1.0000
  0
VERTEX
  8
20
 10
14.1993
 20
7.7761
 30
0.0000
  0
SEQEND
  8
0
  0
POLYLINE
  8
20
 66
1
 10
0.0000
 20
0.0000
 30
0.0000
 40
0.0762
 41
0.0762
 70
0
  0
VERTEX
  8
20
 10
14.4705
 20
7.7761
 30
0.0000
 42
1.0000
  0
VERTEX
  8
20
 10
14.4705
 20
7.8523
 30
0.0000
  0
SEQEND
  8
0
  0
POLYLINE
  8
20
 66
1
 10
0.0000
 20
0.0000
 30
0.0000
 40
0.1524
 41
0.1524
 70
0
  0
VERTEX
  8
20
 10
14.4705
 20
7.8142
 30
0.0000
  0
VERTEX
  8
20
 10
14.7416
 20
7.5430
 30
0.0000
  0
SEQEND
  8
0
  0
POLYLINE
  8
20
 66
1
 10
0.0000
 20
0.0000
 30
0.0000
 40
0.0762
 41
0.0762
 70
0
  0
VERTEX
  8
20
 10
14.7147
 20
7.5161
 30
0.0000
 42
1.0000
  0
VERTEX
  8
20
 10
14.7686
 20
7.5700
 30
0.0000
  0
SEQEND
  8
0
  0
POLYLINE
  8
20
 66
1
 10
0.0000
 20
0.0000
 30
0.0000
 40
0.0762
 41
0.0762
 70
0
  0
VERTEX
  8
20
 10
14.4974
 20
7.8411
 30
0.0000
 42
1.0000
  0
VERTEX
  8
20
 10
14.4435
 20
7.7873
 30
0.0000
  0
SEQEND
  8
0
  0
POLYLINE
  8
20
 66
1
 10
0.0000
 20
0.0000
 30
0.0000
 40
0.1524
 41
0.1524
 70
0
  0
VERTEX
  8
20
 10
14.7416
 20
7.5430
 30
0.0000
  0
VERTEX
  8
20
 10
14.7416
 20
7.2719
 30
0.0000
  0
SEQEND
  8
0
  0
POLYLINE
  8
20
 66
1
 10
0.0000
 20
0.0000
 30
0.0000
 40
0.0762
 41
0.0762
 70
0
  0
VERTEX
  8
20
 10
14.7035
 20
7.2719
 30
0.0000
 42
1.0000
  0
VERTEX
  8
20
 10
14.7797
 20
7.2719
 30
0.0000
  0
SEQEND
  8
0
  0
POLYLINE
  8
20
 66
1
 10
0.0000
 20
0.0000
 30
0.0000
 40
0.0762
 41
0.0762
 70
0
  0
VERTEX
  8
20
 10
14.7797
 20
7.5430
 30
0.0000
 42
1.0000
  0
VERTEX
  8
20
 10
14.7035
 20
7.5430
 30
0.0000
  0
SEQEND
  8
0
  0
POLYLINE
  8
20
 66
1
 10
0.0000
 20
0.0000
 30
0.0000
 40
0.1524
 41
0.1524
 70
0
  0
VERTEX
  8
20
 10
14.7416
 20
7.2719
 30
0.0000
  0
VERTEX
  8
20
 10
14.4705
 20
7.0007
 30
0.0000
  0
SEQEND
  8
0
  0
POLYLINE
  8
20
 66
1
 10
0.0000
 20
0.0000
 30
0.0000
 40
0.0762
 41
0.0762
 70
0
  0
VERTEX
  8
20
 10
14.4435
 20
7.0276
 30
0.0000
 42
1.0000
  0
VERTEX
  8
20
 10
14.4974
 20
6.9738
 30
0.0000
  0
SEQEND
  8
0
  0
POLYLINE
  8
20
 66
1
 10
0.0000
 20
0.0000
 30
0.0000
 40
0.0762
 41
0.0762
 70
0
  0
VERTEX
  8
20
 10
14.7686
 20
7.2449
 30
0.0000
 42
1.0000
  0
VERTEX
  8
20
 10
14.7147
 20
7.2988
 30
0.0000
  0
SEQEND
  8
0
  0
POLYLINE
  8
20
 66
1
 10
0.0000
 20
0.0000
 30
0.0000
 40
0.1524
 41
0.1524
 70
0
  0
VERTEX
  8
20
 10
14.4705
 20
7.0007
 30
0.0000
  0
VERTEX
  8
20
 10
13.9282
 20
7.0007
 30
0.0000
  0
SEQEND
  8
0
  0
POLYLINE
  8
20
 66
1
 10
0.0000
 20
0.0000
 30
0.0000
 40
0.0762
 41
0.0762
 70
0
  0
VERTEX
  8
20
 10
13.9282
 20
7.0388
 30
0.0000
 42
1.0000
  0
VERTEX
  8
20
 10
13.9282
 20
6.9626
 30
0.0000
  0
SEQEND
  8
0
  0
POLYLINE
  8
20
 66
1
 10
0.0000
 20
0.0000
 30
0.0000
 40
0.0762
 41
0.0762
 70
0
  0
VERTEX
  8
20
 10
14.4705
 20
6.9626
 30
0.0000
 42
1.0000
  0
VERTEX
  8
20
 10
14.4705
 20
7.0388
 30
0.0000
  0
SEQEND
  8
0
  0
POLYLINE
  8
20
 66
1
 10
0.0000
 20
0.0000
 30
0.0000
 40
0.1524
 41
0.1524
 70
0
  0
VERTEX
  8
20
 10
13.9282
 20
7.0007
 30
0.0000
  0
VERTEX
  8
20
 10
13.6570
 20
7.2719
 30
0.0000
  0
SEQEND
  8
0
  0
POLYLINE
  8
20
 66
1
 10
0.0000
 20
0.0000
 30
0.0000
 40
0.0762
 41
0.0762
 70
0
  0
VERTEX
  8
20
 10
13.6839
 20
7.2988
 30
0.0000
 42
1.0000
  0
VERTEX
  8
20
 10
13.6300
 20
7.2449
 30
0.0000
  0
SEQEND
  8
0
  0
POLYLINE
  8
20
 66
1
 10
0.0000
 20
0.0000
 30
0.0000
 40
0.0762
 41
0.0762
 70
0
  0
VERTEX
  8
20
 10
13.9012
 20
6.9738
 30
0.0000
 42
1.0000
  0
VERTEX
  8
20
 10
13.9551
 20
7.0276
 30
0.0000
  0
SEQEND
  8
0
  0
POLYLINE
  8
20
 66
1
 10
0.0000
 20
0.0000
 30
0.0000
 40
0.1524
 41
0.1524
 70
0
  0
VERTEX
  8
20
 10
15.2941
 20
7.2719
 30
0.0000
  0
VERTEX
  8
20
 10
15.2941
 20
8.3565
 30
0.0000
  0
SEQEND
  8
0
  0
POLYLINE
  8
20
 66
1
 10
0.0000
 20
0.0000
 30
0.0000
 40
0.0762
 41
0.0762
 70
0
  0
VERTEX
  8
20
 10
15.3322
 20
8.3565
 30
0.0000
 42
1.0000
  0
VERTEX
  8
20
 10
15.2560
 20
8.3565
 30
0.0000
  0
SEQEND
  8
0
  0
POLYLINE
  8
20
 66
1
 10
0.0000
 20
0.0000
 30
0.0000
 40
0.0762
 41
0.0762
 70
0
  0
VERTEX
  8
20
 10
15.2560
 20
7.2719
 30
0.0000
 42
1.0000
  0
VERTEX
  8
20
 10
15.3322
 20
7.2719
 30
0.0000
  0
SEQEND
  8
0
  0
POLYLINE
  8
20
 66
1
 10
0.0000
 20
0.0000
 30
0.0000
 40
0.1524
 41
0.1524
 70
0
  0
VERTEX
  8
20
 10
15.2941
 20
8.3565
 30
0.0000
  0
VERTEX
  8
20
 10
15.5653
 20
8.6277
 30
0.0000
  0
SEQEND
  8
0
  0
POLYLINE
  8
20
 66
1
 10
0.0000
 20
0.0000
 30
0.0000
 40
0.0762
 41
0.0762
 70
0
  0
VERTEX
  8
20
 10
15.5922
 20
8.6007
 30
0.0000
 42
1.0000
  0
VERTEX
  8
20
 10
15.5384
 20
8.6546
 30
0.0000
  0
SEQEND
  8
0
  0
POLYLINE
  8
20
 66
1
 10
0.0000
 20
0.0000
 30
0.0000
 40
0.0762
 41
0.0762
 70
0
  0
VERTEX
  8
20
 10
15.2672
 20
8.3835
 30
0.0000
 42
1.0000
  0
VERTEX
  8
20
 10
15.3211
 20
8.3296
 30
0.0000
  0
SEQEND
  8
0
  0
POLYLINE
  8
20
 66
1
 10
0.0000
 20
0.0000
 30
0.0000
 40
0.1524
 41
0.1524
 70
0
  0
VERTEX
  8
20
 10
15.5653
 20
8.6277
 30
0.0000
  0
VERTEX
  8
20
 10
16.1076
 20
8.6277
 30
0.0000
  0
SEQEND
  8
0
  0
POLYLINE
  8
20
 66
1
 10
0.0000
 20
0.0000
 30
0.0000
 40
0.0762
 41
0.0762
 70
0
  0
VERTEX
  8
20
 10
16.1076
 20
8.5896
 30
0.0000
 42
1.0000
  0
VERTEX
  8
20
 10
16.1076
 20
8.6658
 30
0.0000
  0
SEQEND
  8
0
  0
POLYLINE
  8
20
 66
1
 10
0.0000
 20
0.0000
 30
0.0000
 40
0.0762
 41
0.0762
 70
0
  0
VERTEX
  8
20
 10
15.5653
 20
8.6658
 30
0.0000
 42
1.0000
  0
VERTEX
  8
20
 10
15.5653
 20
8.5896
 30
0.0000
  0
SEQEND
  8
0
  0
POLYLINE
  8
20
 66
1
 10
0.0000
 20
0.0000
 30
0.0000
 40
0.1524
 41
0.1524
 70
0
  0
VERTEX
  8
20
 10
16.1076
 20
8.6277
 30
0.0000
  0
VERTEX
  8
20
 10
16.3788
 20
8.3565
 30
0.0000
  0
SEQEND
  8
0
  0
POLYLINE
  8
20
 66
1
 10
0.0000
 20
0.0000
 30
0.0000
 40
0.0762
 41
0.0762
 70
0
  0
VERTEX
  8
20
 10
16.3519
 20
8.3296
 30
0.0000
 42
1.0000
  0
VERTEX
  8
20
 10
16.4057
 20
8.3835
 30
0.0000
  0
SEQEND
  8
0
  0
POLYLINE
  8
20
 66
1
 10
0.0000
 20
0.0000
 30
0.0000
 40
0.0762
 41
0.0762
 70
0
  0
VERTEX
  8
20
 10
16.1346
 20
8.6546
 30
0.0000
 42
1.0000
  0
VERTEX
  8
20
 10
16.0807
 20
8.6007
 30
0.0000
  0
SEQEND
  8
0
  0
POLYLINE
  8
20
 66
1
 10
0.0000
 20
0.0000
 30
0.0000
 40
0.1524
 41
0.1524
 70
0
  0
VERTEX
  8
20
 10
16.3788
 20
8.3565
 30
0.0000
  0
VERTEX
  8
20
 10
16.3788
 20
7.2719
 30
0.0000
  0
SEQEND
  8
0
  0
POLYLINE
  8
20
 66
1
 10
0.0000
 20
0.0000
 30
0.0000
 40
0.0762
 41
0.0762
 70
0
  0
VERTEX
  8
20
 10
16.3407
 20
7.2719
 30
0.0000
 42
1.0000
  0
VERTEX
  8
20
 10
16.4169
 20
7.2719
 30
0.0000
  0
SEQEND
  8
0
  0
POLYLINE
  8
20
 66
1
 10
0.0000
 20
0.0000
 30
0.0000
 40
0.0762
 41
0.0762
 70
0
  0
VERTEX
  8
20
 10
16.4169
 20
8.3565
 30
0.0000
 42
1.0000
  0
VERTEX
  8
20
 10
16.3407
 20
8.3565
 30
0.0000
  0
SEQEND
  8
0
  0
POLYLINE
  8
20
 66
1
 10
0.0000
 20
0.0000
 30
0.0000
 40
0.1524
 41
0.1524
 70
0
  0
VERTEX
  8
20
 10
16.3788
 20
7.2719
 30
0.0000
  0
VERTEX
  8
20
 10
16.1076
 20
7.0007
 30
0.0000
  0
SEQEND
  8
0
  0
POLYLINE
  8
20
 66
1
 10
0.0000
 20
0.0000
 30
0.0000
 40
0.0762
 41
0.0762
 70
0
  0
VERTEX
  8
20
 10
16.0807
 20
7.0276
 30
0.0000
 42
1.0000
  0
VERTEX
  8
20
 10
16.1346
 20
6.9738
 30
0.0000
  0
SEQEND
  8
0
  0
POLYLINE
  8
20
 66
1
 10
0.0000
 20
0.0000
 30
0.0000
 40
0.0762
 41
0.0762
 70
0
  0
VERTEX
  8
20
 10
16.4057
 20
7.2449
 30
0.0000
 42
1.0000
  0
VERTEX
  8
20
 10
16.3519
 20
7.2988
 30
0.0000
  0
SEQEND
  8
0
  0
POLYLINE
  8
20
 66
1
 10
0.0000
 20
0.0000
 30
0.0000
 40
0.1524
 41
0.1524
 70
0
  0
VERTEX
  8
20
 10
16.1076
 20
7.0007
 30
0.0000
  0
VERTEX
  8
20
 10
15.5653
 20
7.0007
 30
0.0000
  0
SEQEND
  8
0
  0
POLYLINE
  8
20
 66
1
 10
0.0000
 20
0.0000
 30
0.0000
 40
0.0762
 41
0.0762
 70
0
  0
VERTEX
  8
20
 10
15.5653
 20
7.0388
 30
0.0000
 42
1.0000
  0
VERTEX
  8
20
 10
15.5653
 20
6.9626
 30
0.0000
  0
SEQEND
  8
0
  0
POLYLINE
  8
20
 66
1
 10
0.0000
 20
0.0000
 30
0.0000
 40
0.0762
 41
0.0762
 70
0
  0
VERTEX
  8
20
 10
16.1076
 20
6.9626
 30
0.0000
 42
1.0000
  0
VERTEX
  8
20
 10
16.1076
 20
7.0388
 30
0.0000
  0
SEQEND
  8
0
  0
POLYLINE
  8
20
 66
1
 10
0.0000
 20
0.0000
 30
0.0000
 40
0.1524
 41
0.1524
 70
0
  0
VERTEX
  8
20
 10
15.5653
 20
7.0007
 30
0.0000
  0
VERTEX
  8
20
 10
15.2941
 20
7.2719
 30
0.0000
  0
SEQEND
  8
0
  0
POLYLINE
  8
20
 66
1
 10
0.0000
 20
0.0000
 30
0.0000
 40
0.0762
 41
0.0762
 70
0
  0
VERTEX
  8
20
 10
15.3211
 20
7.2988
 30
0.0000
 42
1.0000
  0
VERTEX
  8
20
 10
15.2672
 20
7.2449
 30
0.0000
  0
SEQEND
  8
0
  0
POLYLINE
  8
20
 66
1
 10
0.0000
 20
0.0000
 30
0.0000
 40
0.0762
 41
0.0762
 70
0
  0
VERTEX
  8
20
 10
15.5384
 20
6.9738
 30
0.0000
 42
1.0000
  0
VERTEX
  8
20
 10
15.5922
 20
7.0276
 30
0.0000
  0
SEQEND
  8
0
  0
POLYLINE
  8
20
 66
1
 10
0.0000
 20
0.0000
 30
0.0000
 40
0.1524
 41
0.1524
 70
0
  0
VERTEX
  8
20
 10
15.2941
 20
7.2719
 30
0.0000
  0
VERTEX
  8
20
 10
16.3788
 20
8.3565
 30
0.0000
  0
SEQEND
  8
0
  0
POLYLINE
  8
20
 66
1
 10
0.0000
 20
0.0000
 30
0.0000
 40
0.0762
 41
0.0762
 70
0
  0
VERTEX
  8
20
 10
16.4057
 20
8.3296
 30
0.0000
 42
1.0000
  0
VERTEX
  8
20
 10
16.3519
 20
8.3835
 30
0.0000
  0
SEQEND
  8
0
  0
POLYLINE
  8
20
 66
1
 10
0.0000
 20
0.0000
 30
0.0000
 40
0.0762
 41
0.0762
 70
0
  0
VERTEX
  8
20
 10
15.2672
 20
7.2988
 30
0.0000
 42
1.0000
  0
VERTEX
  8
20
 10
15.3211
 20
7.2449
 30
0.0000
  0
SEQEND
  8
0
  0
POLYLINE
  8
20
 66
1
 10
0.0000
 20
0.0000
 30
0.0000
 40
0.1300
 41
0.1300
 70
0
  0
VERTEX
  8
20
 10
30.0000
 20
2.0000
 30
0.0000
  0
VERTEX
  8
20
 10
30.0000
 20
8.3000
 30
0.0000
  0
SEQEND
  8
0
  0
POLYLINE
  8
20
 66
1
 10
0.0000
 20
0.0000
 30
0.0000
 40
0.0650
 41
0.0650
 70
0
  0
VERTEX
  8
20
 10
30.0325
 20
8.3000
 30
0.0000
 42
1.0000
  0
VERTEX
  8
20
 10
29.9675
 20
8.3000
 30
0.0000
  0
SEQEND
  8
0
  0
POLYLINE
  8
20
 66
1
 10
0.0000
 20
0.0000
 30
0.0000
 40
0.0650
 41
0.0650
 70
0
  0
VERTEX
  8
20
 10
29.9675
 20
2.0000
 30
0.0000
 42
1.0000
  0
VERTEX
  8
20
 10
30.0325
 20
2.0000
 30
0.0000
  0
SEQEND
  8
0
  0
POLYLINE
  8
20
 66
1
 10
0.0000
 20
0.0000
 30
0.0000
 40
0.1300
 41
0.1300
 70
0
  0
VERTEX
  8
20
 10
77.0000
 20
2.0000
 30
0.0000
  0
VERTEX
  8
20
 10
77.0000
 20
8.3000
 30
0.0000
  0
SEQEND
  8
0
  0
POLYLINE
  8
20
 66
1
 10
0.0000
 20
0.0000
 30
0.0000
 40
0.0650
 41
0.0650
 70
0
  0
VERTEX
  8
20
 10
77.0325
 20
8.3000
 30
0.0000
 42
1.0000
  0
VERTEX
  8
20
 10
76.9675
 20
8.3000
 30
0.0000
  0
SEQEND
  8
0
  0
POLYLINE
  8
20
 66
1
 10
0.0000
 20
0.0000
 30
0.0000
 40
0.0650
 41
0.0650
 70
0
  0
VERTEX
  8
20
 10
76.9675
 20
2.0000
 30
0.0000
 42
1.0000
  0
VERTEX
  8
20
 10
77.0325
 20
2.0000
 30
0.0000
  0
SEQEND
  8
0
  0
POLYLINE
  8
20
 66
1
 10
0.0000
 20
0.0000
 30
0.0000
 40
0.1300
 41
0.1300
 70
0
  0
VERTEX
  8
20
 10
30.0650
 20
6.3500
 30
0.0000
  0
VERTEX
  8
20
 10
76.9350
 20
6.3500
 30
0.0000
  0
SEQEND
  8
0
  0
POLYLINE
  8
20
 66
1
 10
0.0000
 20
0.0000
 30
0.0000
 40
0.0650
 41
0.0650
 70
0
  0
VERTEX
  8
20
 10
76.9350
 20
6.3175
 30
0.0000
 42
1.0000
  0
VERTEX
  8
20
 10
76.9350
 20
6.3825
 30
0.0000
  0
SEQEND
  8
0
  0
POLYLINE
  8
20
 66
1
 10
0.0000
 20
0.0000
 30
0.0000
 40
0.0650
 41
0.0650
 70
0
  0
VERTEX
  8
20
 10
30.0650
 20
6.3825
 30
0.0000
 42
1.0000
  0
VERTEX
  8
20
 10
30.0650
 20
6.3175
 30
0.0000
  0
SEQEND
  8
0
  0
POLYLINE
  8
20
 66
1
 10
0.0000
 20
0.0000
 30
0.0000
 40
0.1300
 41
0.1300
 70
0
  0
VERTEX
  8
20
 10
30.0650
 20
6.3500
 30
0.0000
  0
VERTEX
  8
20
 10
32.6000
 20
6.6692
 30
0.0000
  0
SEQEND
  8
0
  0
POLYLINE
  8
20
 66
1
 10
0.0000
 20
0.0000
 30
0.0000
 40
0.0650
 41
0.0650
 70
0
  0
VERTEX
  8
20
 10
32.6041
 20
6.6370
 30
0.0000
 42
1.0000
  0
VERTEX
  8
20
 10
32.5959
 20
6.7015
 30
0.0000
  0
SEQEND
  8
0
  0
POLYLINE
  8
20
 66
1
 10
0.0000
 20
0.0000
 30
0.0000
 40
0.0650
 41
0.0650
 70
0
  0
VERTEX
  8
20
 10
30.0609
 20
6.3822
 30
0.0000
 42
1.0000
  0
VERTEX
  8
20
 10
30.0691
 20
6.3178
 30
0.0000
  0
SEQEND
  8
0
  0
POLYLINE
  8
20
 66
1
 10
0.0000
 20
0.0000
 30
0.0000
 40
0.1300
 41
0.1300
 70
0
  0
VERTEX
  8
20
 10
32.6000
 20
6.6692
 30
0.0000
  0
VERTEX
  8
20
 10
32.6000
 20
6.0308
 30
0.0000
  0
SEQEND
  8
0
  0
POLYLINE
  8
20
 66
1
 10
0.0000
 20
0.0000
 30
0.0000
 40
0.0650
 41
0.0650
 70
0
  0
VERTEX
  8
20
 10
32.5675
 20
6.0308
 30
0.0000
 42
1.0000
  0
VERTEX
  8
20
 10
32.6325
 20
6.0308
 30
0.0000
  0
SEQEND
  8
0
  0
POLYLINE
  8
20
 66
1
 10
0.0000
 20
0.0000
 30
0.0000
 40
0.0650
 41
0.0650
 70
0
  0
VERTEX
  8
20
 10
32.6325
 20
6.6692
 30
0.0000
 42
1.0000
  0
VERTEX
  8
20
 10
32.5675
 20
6.6692
 30
0.0000
  0
SEQEND
  8
0
  0
POLYLINE
  8
20
 66
1
 10
0.0000
 20
0.0000
 30
0.0000
 40
0.1300
 41
0.1300
 70
0
  0
VERTEX
  8
20
 10
32.6000
 20
6.0308
 30
0.0000
  0
VERTEX
  8
20
 10
30.0650
 20
6.3500
 30
0.0000
  0
SEQEND
  8
0
  0
POLYLINE
  8
20
 66
1
 10
0.0000
 20
0.0000
 30
0.0000
 40
0.0650
 41
0.0650
 70
0
  0
VERTEX
  8
20
 10
30.0691
 20
6.3822
 30
0.0000
 42
1.0000
  0
VERTEX
  8
20
 10
30.0609
 20
6.3178
 30
0.0000
  0
SEQEND
  8
0
  0
POLYLINE
  8
20
 66
1
 10
0.0000
 20
0.0000
 30
0.0000
 40
0.0650
 41
0.0650
 70
0
  0
VERTEX
  8
20
 10
32.5959
 20
5.9985
 30
0.0000
 42
1.0000
  0
VERTEX
  8
20
 10
32.6041
 20
6.0630
 30
0.0000
  0
SEQEND
  8
0
  0
POLYLINE
  8
20
 66
1
 10
0.0000
 20
0.0000
 30
0.0000
 40
0.1300
 41
0.1300
 70
0
  0
VERTEX
  8
20
 10
30.0650
 20
6.3500
 30
0.0000
  0
VERTEX
  8
20
 10
32.6000
 20
6.4800
 30
0.0000
  0
SEQEND
  8
0
  0
POLYLINE
  8
20
 66
1
 10
0.0000
 20
0.0000
 30
0.0000
 40
0.0650
 41
0.0650
 70
0
  0
VERTEX
  8
20
 10
32.6017
 20
6.4475
 30
0.0000
 42
1.0000
  0
VERTEX
  8
20
 10
32.5983
 20
6.5125
 30
0.0000
  0
SEQEND
  8
0
  0
POLYLINE
  8
20
 66
1
 10
0.0000
 20
0.0000
 30
0.0000
 40
0.0650
 41
0.0650
 70
0
  0
VERTEX
  8
20
 10
30.0633
 20
6.3825
 30
0.0000
 42
1.0000
  0
VERTEX
  8
20
 10
30.0667
 20
6.3175
 30
0.0000
  0
SEQEND
  8
0
  0
POLYLINE
  8
20
 66
1
 10
0.0000
 20
0.0000
 30
0.0000
 40
0.1300
 41
0.1300
 70
0
  0
VERTEX
  8
20
 10
32.6000
 20
6.2200
 30
0.0000
  0
VERTEX
  8
20
 10
30.0650
 20
6.3500
 30
0.0000
  0
SEQEND
  8
0
  0
POLYLINE
  8
20
 66
1
 10
0.0000
 20
0.0000
 30
0.0000
 40
0.0650
 41
0.0650
 70
0
  0
VERTEX
  8
20
 10
30.0667
 20
6.3825
 30
0.0000
 42
1.0000
  0
VERTEX
  8
20
 10
30.0633
 20
6.3175
 30
0.0000
  0
SEQEND
  8
0
  0
POLYLINE
  8
20
 66
1
 10
0.0000
 20
0.0000
 30
0.0000
 40
0.0650
 41
0.0650
 70
0
  0
VERTEX
  8
20
 10
32.5983
 20
6.1875
 30
0.0000
 42
1.0000
  0
VERTEX
  8
20
 10
32.6017
 20
6.2525
 30
0.0000
  0
SEQEND
  8
0
  0
POLYLINE
  8
20
 66
1
 10
0.0000
 20
0.0000
 30
0.0000
 40
0.1300
 41
0.1300
 70
0
  0
VERTEX
  8
20
 10
30.0650
 20
6.3500
 30
0.0000
  0
VERTEX
  8
20
 10
32.6000
 20
6.6100
 30
0.0000
  0
SEQEND
  8
0
  0
POLYLINE
  8
20
 66
1
 10
0.0000
 20
0.0000
 30
0.0000
 40
0.0650
 41
0.0650
 70
0
  0
VERTEX
  8
20
 10
32.6033
 20
6.5777
 30
0.0000
 42
1.0000
  0
VERTEX
  8
20
 10
32.5967
 20
6.6423
 30
0.0000
  0
SEQEND
  8
0
  0
POLYLINE
  8
20
 66
1
 10
0.0000
 20
0.0000
 30
0.0000
 40
0.0650
 41
0.0650
 70
0
  0
VERTEX
  8
20
 10
30.0617
 20
6.3823
 30
0.0000
 42
1.0000
  0
VERTEX
  8
20
 10
30.0683
 20
6.3177
 30
0.0000
  0
SEQEND
  8
0
  0
POLYLINE
  8
20
 66
1
 10
0.0000
 20
0.0000
 30
0.0000
 40
0.1300
 41
0.1300
 70
0
  0
VERTEX
  8
20
 10
32.6000
 20
6.0900
 30
0.0000
  0
VERTEX
  8
20
 10
30.0650
 20
6.3500
 30
0.0000
  0
SEQEND
  8
0
  0
POLYLINE
  8
20
 66
1
 10
0.0000
 20
0.0000
 30
0.0000
 40
0.0650
 41
0.0650
 70
0
  0
VERTEX
  8
20
 10
30.0683
 20
6.3823
 30
0.0000
 42
1.0000
  0
VERTEX
  8
20
 10
30.0617
 20
6.3177
 30
0.0000
  0
SEQEND
  8
0
  0
POLYLINE
  8
20
 66
1
 10
0.0000
 20
0.0000
 30
0.0000
 40
0.0650
 41
0.0650
 70
0
  0
VERTEX
  8
20
 10
32.5967
 20
6.0577
 30
0.0000
 42
1.0000
  0
VERTEX
  8
20
 10
32.6033
 20
6.1223
 30
0.0000
  0
SEQEND
  8
0
  0
POLYLINE
  8
20
 66
1
 10
0.0000
 20
0.0000
 30
0.0000
 40
0.1300
 41
0.1300
 70
0
  0
VERTEX
  8
20
 10
76.9350
 20
6.3500
 30
0.0000
  0
VERTEX
  8
20
 10
74.4000
 20
6.6692
 30
0.0000
  0
SEQEND
  8
0
  0
POLYLINE
  8
20
 66
1
 10
0.0000
 20
0.0000
 30
0.0000
 40
0.0650
 41
0.0650
 70
0
  0
VERTEX
  8
20
 10
74.4041
 20
6.7015
 30
0.0000
 42
1.0000
  0
VERTEX
  8
20
 10
74.3959
 20
6.6370
 30
0.0000
  0
SEQEND
  8
0
  0
POLYLINE
  8
20
 66
1
 10
0.0000
 20
0.0000
 30
0.0000
 40
0.0650
 41
0.0650
 70
0
  0
VERTEX
  8
20
 10
76.9309
 20
6.3178
 30
0.0000
 42
1.0000
  0
VERTEX
  8
20
 10
76.9391
 20
6.3822
 30
0.0000
  0
SEQEND
  8
0
  0
POLYLINE
  8
20
 66
1
 10
0.0000
 20
0.0000
 30
0.0000
 40
0.1300
 41
0.1300
 70
0
  0
VERTEX
  8
20
 10
74.4000
 20
6.6692
 30
0.0000
  0
VERTEX
  8
20
 10
74.4000
 20
6.0308
 30
0.0000
  0
SEQEND
  8
0
  0
POLYLINE
  8
20
 66
1
 10
0.0000
 20
0.0000
 30
0.0000
 40
0.0650
 41
0.0650
 70
0
  0
VERTEX
  8
20
 10
74.3675
 20
6.0308
 30
0.0000
 42
1.0000
  0
VERTEX
  8
20
 10
74.4325
 20
6.0308
 30
0.0000
  0
SEQEND
  8
0
  0
POLYLINE
  8
20
 66
1
 10
0.0000
 20
0.0000
 30
0.0000
 40
0.0650
 41
0.0650
 70
0
  0
VERTEX
  8
20
 10
74.4325
 20
6.6692
 30
0.0000
 42
1.0000
  0
VERTEX
  8
20
 10
74.3675
 20
6.6692
 30
0.0000
  0
SEQEND
  8
0
  0
POLYLINE
  8
20
 66
1
 10
0.0000
 20
0.0000
 30
0.0000
 40
0.1300
 41
0.1300
 70
0
  0
VERTEX
  8
20
 10
74.4000
 20
6.0308
 30
0.0000
  0
VERTEX
  8
20
 10
76.9350
 20
6.3500
 30
0.0000
  0
SEQEND
  8
0
  0
POLYLINE
  8
20
 66
1
 10
0.0000
 20
0.0000
 30
0.0000
 40
0.0650
 41
0.0650
 70
0
  0
VERTEX
  8
20
 10
76.9391
 20
6.3178
 30
0.0000
 42
1.0000
  0
VERTEX
  8
20
 10
76.9309
 20
6.3822
 30
0.0000
  0
SEQEND
  8
0
  0
POLYLINE
  8
20
 66
1
 10
0.0000
 20
0.0000
 30
0.0000
 40
0.0650
 41
0.0650
 70
0
  0
VERTEX
  8
20
 10
74.3959
 20
6.0630
 30
0.0000
 42
1.0000
  0
VERTEX
  8
20
 10
74.4041
 20
5.9985
 30
0.0000
  0
SEQEND
  8
0
  0
POLYLINE
  8
20
 66
1
 10
0.0000
 20
0.0000
 30
0.0000
 40
0.1300
 41
0.1300
 70
0
  0
VERTEX
  8
20
 10
76.9350
 20
6.3500
 30
0.0000
  0
VERTEX
  8
20
 10
74.4000
 20
6.4800
 30
0.0000
  0
SEQEND
  8
0
  0
POLYLINE
  8
20
 66
1
 10
0.0000
 20
0.0000
 30
0.0000
 40
0.0650
 41
0.0650
 70
0
  0
VERTEX
  8
20
 10
74.4017
 20
6.5125
 30
0.0000
 42
1.0000
  0
VERTEX
  8
20
 10
74.3983
 20
6.4475
 30
0.0000
  0
SEQEND
  8
0
  0
POLYLINE
  8
20
 66
1
 10
0.0000
 20
0.0000
 30
0.0000
 40
0.0650
 41
0.0650
 70
0
  0
VERTEX
  8
20
 10
76.9333
 20
6.3175
 30
0.0000
 42
1.0000
  0
VERTEX
  8
20
 10
76.9367
 20
6.3825
 30
0.0000
  0
SEQEND
  8
0
  0
POLYLINE
  8
20
 66
1
 10
0.0000
 20
0.0000
 30
0.0000
 40
0.1300
 41
0.1300
 70
0
  0
VERTEX
  8
20
 10
74.4000
 20
6.2200
 30
0.0000
  0
VERTEX
  8
20
 10
76.9350
 20
6.3500
 30
0.0000
  0
SEQEND
  8
0
  0
POLYLINE
  8
20
 66
1
 10
0.0000
 20
0.0000
 30
0.0000
 40
0.0650
 41
0.0650
 70
0
  0
VERTEX
  8
20
 10
76.9367
 20
6.3175
 30
0.0000
 42
1.0000
  0
VERTEX
  8
20
 10
76.9333
 20
6.3825
 30
0.0000
  0
SEQEND
  8
0
  0
POLYLINE
  8
20
 66
1
 10
0.0000
 20
0.0000
 30
0.0000
 40
0.0650
 41
0.0650
 70
0
  0
VERTEX
  8
20
 10
74.3983
 20
6.2525
 30
0.0000
 42
1.0000
  0
VERTEX
  8
20
 10
74.4017
 20
6.1875
 30
0.0000
  0
SEQEND
  8
0
  0
POLYLINE
  8
20
 66
1
 10
0.0000
 20
0.0000
 30
0.0000
 40
0.1300
 41
0.1300
 70
0
  0
VERTEX
  8
20
 10
76.9350
 20
6.3500
 30
0.0000
  0
VERTEX
  8
20
 10
74.4000
 20
6.6100
 30
0.0000
  0
SEQEND
  8
0
  0
POLYLINE
  8
20
 66
1
 10
0.0000
 20
0.0000
 30
0.0000
 40
0.0650
 41
0.0650
 70
0
  0
VERTEX
  8
20
 10
74.4033
 20
6.6423
 30
0.0000
 42
1.0000
  0
VERTEX
  8
20
 10
74.3967
 20
6.5777
 30
0.0000
  0
SEQEND
  8
0
  0
POLYLINE
  8
20
 66
1
 10
0.0000
 20
0.0000
 30
0.0000
 40
0.0650
 41
0.0650
 70
0
  0
VERTEX
  8
20
 10
76.9317
 20
6.3177
 30
0.0000
 42
1.0000
  0
VERTEX
  8
20
 10
76.9383
 20
6.3823
 30
0.0000
  0
SEQEND
  8
0
  0
POLYLINE
  8
20
 66
1
 10
0.0000
 20
0.0000
 30
0.0000
 40
0.1300
 41
0.1300
 70
0
  0
VERTEX
  8
20
 10
74.4000
 20
6.0900
 30
0.0000
  0
VERTEX
  8
20
 10
76.9350
 20
6.3500
 30
0.0000
  0
SEQEND
  8
0
  0
POLYLINE
  8
20
 66
1
 10
0.0000
 20
0.0000
 30
0.0000
 40
0.0650
 41
0.0650
 70
0
  0
VERTEX
  8
20
 10
76.9383
 20
6.3177
 30
0.0000
 42
1.0000
  0
VERTEX
  8
20
 10
76.9317
 20
6.3823
 30
0.0000
  0
SEQEND
  8
0
  0
POLYLINE
  8
20
 66
1
 10
0.0000
 20
0.0000
 30
0.0000
 40
0.0650
 41
0.0650
 70
0
  0
VERTEX
  8
20
 10
74.3967
 20
6.1223
 30
0.0000
 42
1.0000
  0
VERTEX
  8
20
 10
74.4033
 20
6.0577
 30
0.0000
  0
SEQEND
  8
0
  0
POLYLINE
  8
20
 66
1
 10
0.0000
 20
0.0000
 30
0.0000
 40
0.1524
 41
0.1524
 70
0
  0
VERTEX
  8
20
 10
52.9705
 20
7.0007
 30
0.0000
  0
VERTEX
  8
20
 10
52.9705
 20
8.6277
 30
0.0000
  0
SEQEND
  8
0
  0
POLYLINE
  8
20
 66
1
 10
0.0000
 20
0.0000
 30
0.0000
 40
0.0762
 41
0.0762
 70
0
  0
VERTEX
  8
20
 10
53.0086
 20
8.6277
 30
0.0000
 42
1.0000
  0
VERTEX
  8
20
 10
52.9324
 20
8.6277
 30
0.0000
  0
SEQEND
  8
0
  0
POLYLINE
  8
20
 66
1
 10
0.0000
 20
0.0000
 30
0.0000
 40
0.0762
 41
0.0762
 70
0
  0
VERTEX
  8
20
 10
52.9324
 20
7.0007
 30
0.0000
 42
1.0000
  0
VERTEX
  8
20
 10
53.0086
 20
7.0007
 30
0.0000
  0
SEQEND
  8
0
  0
POLYLINE
  8
20
 66
1
 10
0.0000
 20
0.0000
 30
0.0000
 40
0.1524
 41
0.1524
 70
0
  0
VERTEX
  8
20
 10
52.9705
 20
8.6277
 30
0.0000
  0
VERTEX
  8
20
 10
52.1570
 20
7.8142
 30
0.0000
  0
SEQEND
  8
0
  0
POLYLINE
  8
20
 66
1
 10
0.0000
 20
0.0000
 30
0.0000
 40
0.0762
 41
0.0762
 70
0
  0
VERTEX
  8
20
 10
52.1300
 20
7.8411
 30
0.0000
 42
1.0000
  0
VERTEX
  8
20
 10
52.1839
 20
7.7873
 30
0.0000
  0
SEQEND
  8
0
  0
POLYLINE
  8
20
 66
1
 10
0.0000
 20
0.0000
 30
0.0000
 40
0.0762
 41
0.0762
 70
0
  0
VERTEX
  8
20
 10
52.9974
 20
8.6007
 30
0.0000
 42
1.0000
  0
VERTEX
  8
20
 10
52.9435
 20
8.6546
 30
0.0000
  0
SEQEND
  8
0
  0
POLYLINE
  8
20
 66
1
 10
0.0000
 20
0.0000
 30
0.0000
 40
0.1524
 41
0.1524
 70
0
  0
VERTEX
  8
20
 10
52.1570
 20
7.8142
 30
0.0000
  0
VERTEX
  8
20
 10
53.2416
 20
7.8142
 30
0.0000
  0
SEQEND
  8
0
  0
POLYLINE
  8
20
 66
1
 10
0.0000
 20
0.0000
 30
0.0000
 40
0.0762
 41
0.0762
 70
0
  0
VERTEX
  8
20
 10
53.2416
 20
7.7761
 30
0.0000
 42
1.0000
  0
VERTEX
  8
20
 10
53.2416
 20
7.8523
 30
0.0000
  0
SEQEND
  8
0
  0
POLYLINE
  8
20
 66
1
 10
0.0000
 20
0.0000
 30
0.0000
 40
0.0762
 41
0.0762
 70
0
  0
VERTEX
  8
20
 10
52.1570
 20
7.8523
 30
0.0000
 42
1.0000
  0
VERTEX
  8
20
 10
52.1570
 20
7.7761
 30
0.0000
  0
SEQEND
  8
0
  0
POLYLINE
  8
20
 66
1
 10
0.0000
 20
0.0000
 30
0.0000
 40
0.1524
 41
0.1524
 70
0
  0
VERTEX
  8
20
 10
53.7941
 20
8.6277
 30
0.0000
  0
VERTEX
  8
20
 10
54.8788
 20
8.6277
 30
0.0000
  0
SEQEND
  8
0
  0
POLYLINE
  8
20
 66
1
 10
0.0000
 20
0.0000
 30
0.0000
 40
0.0762
 41
0.0762
 70
0
  0
VERTEX
  8
20
 10
54.8788
 20
8.5896
 30
0.0000
 42
1.0000
  0
VERTEX
  8
20
 10
54.8788
 20
8.6658
 30
0.0000
  0
SEQEND
  8
0
  0
POLYLINE
  8
20
 66
1
 10
0.0000
 20
0.0000
 30
0.0000
 40
0.0762
 41
0.0762
 70
0
  0
VERTEX
  8
20
 10
53.7941
 20
8.6658
 30
0.0000
 42
1.0000
  0
VERTEX
  8
20
 10
53.7941
 20
8.5896
 30
0.0000
  0
SEQEND
  8
0
  0
POLYLINE
  8
20
 66
1
 10
0.0000
 20
0.0000
 30
0.0000
 40
0.1524
 41
0.1524
 70
0
  0
VERTEX
  8
20
 10
54.8788
 20
8.6277
 30
0.0000
  0
VERTEX
  8
20
 10
54.8788
 20
8.3565
 30
0.0000
  0
SEQEND
  8
0
  0
POLYLINE
  8
20
 66
1
 10
0.0000
 20
0.0000
 30
0.0000
 40
0.0762
 41
0.0762
 70
0
  0
VERTEX
  8
20
 10
54.8407
 20
8.3565
 30
0.0000
 42
1.0000
  0
VERTEX
  8
20
 10
54.9169
 20
8.3565
 30
0.0000
  0
SEQEND
  8
0
  0
POLYLINE
  8
20
 66
1
 10
0.0000
 20
0.0000
 30
0.0000
 40
0.0762
 41
0.0762
 70
0
  0
VERTEX
  8
20
 10
54.9169
 20
8.6277
 30
0.0000
 42
1.0000
  0
VERTEX
  8
20
 10
54.8407
 20
8.6277
 30
0.0000
  0
SEQEND
  8
0
  0
POLYLINE
  8
20
 66
1
 10
0.0000
 20
0.0000
 30
0.0000
 40
0.1524
 41
0.1524
 70
0
  0
VERTEX
  8
20
 10
54.8788
 20
8.3565
 30
0.0000
  0
VERTEX
  8
20
 10
53.7941
 20
7.2719
 30
0.0000
  0
SEQEND
  8
0
  0
POLYLINE
  8
20
 66
1
 10
0.0000
 20
0.0000
 30
0.0000
 40
0.0762
 41
0.0762
 70
0
  0
VERTEX
  8
20
 10
53.7672
 20
7.2988
 30
0.0000
 42
1.0000
  0
VERTEX
  8
20
 10
53.8211
 20
7.2449
 30
0.0000
  0
SEQEND
  8
0
  0
POLYLINE
  8
20
 66
1
 10
0.0000
 20
0.0000
 30
0.0000
 40
0.0762
 41
0.0762
 70
0
  0
VERTEX
  8
20
 10
54.9057
 20
8.3296
 30
0.0000
 42
1.0000
  0
VERTEX
  8
20
 10
54.8519
 20
8.3835
 30
0.0000
  0
SEQEND
  8
0
  0
POLYLINE
  8
20
 66
1
 10
0.0000
 20
0.0000
 30
0.0000
 40
0.1524
 41
0.1524
 70
0
  0
VERTEX
  8
20
 10
53.7941
 20
7.2719
 30
0.0000
  0
VERTEX
  8
20
 10
53.7941
 20
7.0007
 30
0.0000
  0
SEQEND
  8
0
  0
POLYLINE
  8
20
 66
1
 10
0.0000
 20
0.0000
 30
0.0000
 40
0.0762
 41
0.0762
 70
0
  0
VERTEX
  8
20
 10
53.7560
 20
7.0007
 30
0.0000
 42
1.0000
  0
VERTEX
  8
20
 10
53.8322
 20
7.0007
 30
0.0000
  0
SEQEND
  8
0
  0
POLYLINE
  8
20
 66
1
 10
0.0000
 20
0.0000
 30
0.0000
 40
0.0762
 41
0.0762
 70
0
  0
VERTEX
  8
20
 10
53.8322
 20
7.2719
 30
0.0000
 42
1.0000
  0
VERTEX
  8
20
 10
53.7560
 20
7.2719
 30
0.0000
  0
SEQEND
  8
0
  0
POLYLINE
  8
20
 66
1
 10
0.0000
 20
0.0000
 30
0.0000
 40
0.1300
 41
0.1300
 70
0
  0
VERTEX
  8
20
 10
77.0000
 20
2.0000
 30
0.0000
  0
VERTEX
  8
20
 10
88.3100
 20
2.0000
 30
0.0000
  0
SEQEND
  8
0
  0
POLYLINE
  8
20
 66
1
 10
0.0000
 20
0.0000
 30
0.0000
 40
0.0650
 41
0.0650
 70
0
  0
VERTEX
  8
20
 10
88.3100
 20
1.9675
 30
0.0000
 42
1.0000
  0
VERTEX
  8
20
 10
88.3100
 20
2.0325
 30
0.0000
  0
SEQEND
  8
0
  0
POLYLINE
  8
20
 66
1
 10
0.0000
 20
0.0000
 30
0.0000
 40
0.0650
 41
0.0650
 70
0
  0
VERTEX
  8
20
 10
77.0000
 20
2.0325
 30
0.0000
 42
1.0000
  0
VERTEX
  8
20
 10
77.0000
 20
1.9675
 30
0.0000
  0
SEQEND
  8
0
  0
POLYLINE
  8
20
 66
1
 10
0.0000
 20
0.0000
 30
0.0000
 40
0.1300
 41
0.1300
 70
0
  0
VERTEX
  8
20
 10
77.0000
 20
-2.0000
 30
0.0000
  0
VERTEX
  8
20
 10
88.3100
 20
-2.0000
 30
0.0000
  0
SEQEND
  8
0
  0
POLYLINE
  8
20
 66
1
 10
0.0000
 20
0.0000
 30
0.0000
 40
0.0650
 41
0.0650
 70
0
  0
VERTEX
  8
20
 10
88.3100
 20
-2.0325
 30
0.0000
 42
1.0000
  0
VERTEX
  8
20
 10
88.3100
 20
-1.9675
 30
0.0000
  0
SEQEND
  8
0
  0
POLYLINE
  8
20
 66
1
 10
0.0000
 20
0.0000
 30
0.0000
 40
0.0650
 41
0.0650
 70
0
  0
VERTEX
  8
20
 10
77.0000
 20
-1.9675
 30
0.0000
 42
1.0000
  0
VERTEX
  8
20
 10
77.0000
 20
-2.0325
 30
0.0000
  0
SEQEND
  8
0
  0
POLYLINE
  8
20
 66
1
 10
0.0000
 20
0.0000
 30
0.0000
 40
0.1300
 41
0.1300
 70
0
  0
VERTEX
  8
20
 10
86.3600
 20
1.9350
 30
0.0000
  0
VERTEX
  8
20
 10
86.3600
 20
-1.9350
 30
0.0000
  0
SEQEND
  8
0
  0
POLYLINE
  8
20
 66
1
 10
0.0000
 20
0.0000
 30
0.0000
 40
0.0650
 41
0.0650
 70
0
  0
VERTEX
  8
20
 10
86.3275
 20
-1.9350
 30
0.0000
 42
1.0000
  0
VERTEX
  8
20
 10
86.3925
 20
-1.9350
 30
0.0000
  0
SEQEND
  8
0
  0
POLYLINE
  8
20
 66
1
 10
0.0000
 20
0.0000
 30
0.0000
 40
0.0650
 41
0.0650
 70
0
  0
VERTEX
  8
20
 10
86.3925
 20
1.9350
 30
0.0000
 42
1.0000
  0
VERTEX
  8
20
 10
86.3275
 20
1.9350
 30
0.0000
  0
SEQEND
  8
0
  0
POLYLINE
  8
20
 66
1
 10
0.0000
 20
0.0000
 30
0.0000
 40
0.1300
 41
0.1300
 70
0
  0
VERTEX
  8
20
 10
86.3600
 20
1.9350
 30
0.0000
  0
VERTEX
  8
20
 10
86.0408
 20
-0.6000
 30
0.0000
  0
SEQEND
  8
0
  0
POLYLINE
  8
20
 66
1
 10
0.0000
 20
0.0000
 30
0.0000
 40
0.0650
 41
0.0650
 70
0
  0
VERTEX
  8
20
 10
86.0085
 20
-0.5959
 30
0.0000
 42
1.0000
  0
VERTEX
  8
20
 10
86.0730
 20
-0.6041
 30
0.0000
  0
SEQEND
  8
0
  0
POLYLINE
  8
20
 66
1
 10
0.0000
 20
0.0000
 30
0.0000
 40
0.0650
 41
0.0650
 70
0
  0
VERTEX
  8
20
 10
86.3922
 20
1.9309
 30
0.0000
 42
1.0000
  0
VERTEX
  8
20
 10
86.3278
 20
1.9391
 30
0.0000
  0
SEQEND
  8
0
  0
POLYLINE
  8
20
 66
1
 10
0.0000
 20
0.0000
 30
0.0000
 40
0.1300
 41
0.1300
 70
0
  0
VERTEX
  8
20
 10
86.0408
 20
-0.6000
 30
0.0000
  0
VERTEX
  8
20
 10
86.6792
 20
-0.6000
 30
0.0000
  0
SEQEND
  8
0
  0
POLYLINE
  8
20
 66
1
 10
0.0000
 20
0.0000
 30
0.0000
 40
0.0650
 41
0.0650
 70
0
  0
VERTEX
  8
20
 10
86.6792
 20
-0.6325
 30
0.0000
 42
1.0000
  0
VERTEX
  8
20
 10
86.6792
 20
-0.5675
 30
0.0000
  0
SEQEND
  8
0
  0
POLYLINE
  8
20
 66
1
 10
0.0000
 20
0.0000
 30
0.0000
 40
0.0650
 41
0.0650
 70
0
  0
VERTEX
  8
20
 10
86.0408
 20
-0.5675
 30
0.0000
 42
1.0000
  0
VERTEX
  8
20
 10
86.0408
 20
-0.6325
 30
0.0000
  0
SEQEND
  8
0
  0
POLYLINE
  8
20
 66
1
 10
0.0000
 20
0.0000
 30
0.0000
 40
0.1300
 41
0.1300
 70
0
  0
VERTEX
  8
20
 10
86.6792
 20
-0.6000
 30
0.0000
  0
VERTEX
  8
20
 10
86.3600
 20
1.9350
 30
0.0000
  0
SEQEND
  8
0
  0
POLYLINE
  8
20
 66
1
 10
0.0000
 20
0.0000
 30
0.0000
 40
0.0650
 41
0.0650
 70
0
  0
VERTEX
  8
20
 10
86.3922
 20
1.9391
 30
0.0000
 42
1.0000
  0
VERTEX
  8
20
 10
86.3278
 20
1.9309
 30
0.0000
  0
SEQEND
  8
0
  0
POLYLINE
  8
20
 66
1
 10
0.0000
 20
0.0000
 30
0.0000
 40
0.0650
 41
0.0650
 70
0
  0
VERTEX
  8
20
 10
86.6470
 20
-0.6041
 30
0.0000
 42
1.0000
  0
VERTEX
  8
20
 10
86.7115
 20
-0.5959
 30
0.0000
  0
SEQEND
  8
0
  0
POLYLINE
  8
20
 66
1
 10
0.0000
 20
0.0000
 30
0.0000
 40
0.1300
 41
0.1300
 70
0
  0
VERTEX
  8
20
 10
86.3600
 20
1.9350
 30
0.0000
  0
VERTEX
  8
20
 10
86.2300
 20
-0.6000
 30
0.0000
  0
SEQEND
  8
0
  0
POLYLINE
  8
20
 66
1
 10
0.0000
 20
0.0000
 30
0.0000
 40
0.0650
 41
0.0650
 70
0
  0
VERTEX
  8
20
 10
86.1975
 20
-0.5983
 30
0.0000
 42
1.0000
  0
VERTEX
  8
20
 10
86.2625
 20
-0.6017
 30
0.0000
  0
SEQEND
  8
0
  0
POLYLINE
  8
20
 66
1
 10
0.0000
 20
0.0000
 30
0.0000
 40
0.0650
 41
0.0650
 70
0
  0
VERTEX
  8
20
 10
86.3925
 20
1.9333
 30
0.0000
 42
1.0000
  0
VERTEX
  8
20
 10
86.3275
 20
1.9367
 30
0.0000
  0
SEQEND
  8
0
  0
POLYLINE
  8
20
 66
1
 10
0.0000
 20
0.0000
 30
0.0000
 40
0.1300
 41
0.1300
 70
0
  0
VERTEX
  8
20
 10
86.4900
 20
-0.6000
 30
0.0000
  0
VERTEX
  8
20
 10
86.3600
 20
1.9350
 30
0.0000
  0
SEQEND
  8
0
  0
POLYLINE
  8
20
 66
1
 10
0.0000
 20
0.0000
 30
0.0000
 40
0.0650
 41
0.0650
 70
0
  0
VERTEX
  8
20
 10
86.3925
 20
1.9367
 30
0.0000
 42
1.0000
  0
VERTEX
  8
20
 10
86.3275
 20
1.9333
 30
0.0000
  0
SEQEND
  8
0
  0
POLYLINE
  8
20
 66
1
 10
0.0000
 20
0.0000
 30
0.0000
 40
0.0650
 41
0.0650
 70
0
  0
VERTEX
  8
20
 10
86.4575
 20
-0.6017
 30
0.0000
 42
1.0000
  0
VERTEX
  8
20
 10
86.5225
 20
-0.5983
 30
0.0000
  0
SEQEND
  8
0
  0
POLYLINE
  8
20
 66
1
 10
0.0000
 20
0.0000
 30
0.0000
 40
0.1300
 41
0.1300
 70
0
  0
VERTEX
  8
20
 10
86.3600
 20
1.9350
 30
0.0000
  0
VERTEX
  8
20
 10
86.1000
 20
-0.6000
 30
0.0000
  0
SEQEND
  8
0
  0
POLYLINE
  8
20
 66
1
 10
0.0000
 20
0.0000
 30
0.0000
 40
0.0650
 41
0.0650
 70
0
  0
VERTEX
  8
20
 10
86.0677
 20
-0.5967
 30
0.0000
 42
1.0000
  0
VERTEX
  8
20
 10
86.1323
 20
-0.6033
 30
0.0000
  0
SEQEND
  8
0
  0
POLYLINE
  8
20
 66
1
 10
0.0000
 20
0.0000
 30
0.0000
 40
0.0650
 41
0.0650
 70
0
  0
VERTEX
  8
20
 10
86.3923
 20
1.9317
 30
0.0000
 42
1.0000
  0
VERTEX
  8
20
 10
86.3277
 20
1.9383
 30
0.0000
  0
SEQEND
  8
0
  0
POLYLINE
  8
20
 66
1
 10
0.0000
 20
0.0000
 30
0.0000
 40
0.1300
 41
0.1300
 70
0
  0
VERTEX
  8
20
 10
86.6200
 20
-0.6000
 30
0.0000
  0
VERTEX
  8
20
 10
86.3600
 20
1.9350
 30
0.0000
  0
SEQEND
  8
0
  0
POLYLINE
  8
20
 66
1
 10
0.0000
 20
0.0000
 30
0.0000
 40
0.0650
 41
0.0650
 70
0
  0
VERTEX
  8
20
 10
86.3923
 20
1.9383
 30
0.0000
 42
1.0000
  0
VERTEX
  8
20
 10
86.3277
 20
1.9317
 30
0.0000
  0
SEQEND
  8
0
  0
POLYLINE
  8
20
 66
1
 10
0.0000
 20
0.0000
 30
0.0000
 40
0.0650
 41
0.0650
 70
0
  0
VERTEX
  8
20
 10
86.5877
 20
-0.6033
 30
0.0000
 42
1.0000
  0
VERTEX
  8
20
 10
86.6523
 20
-0.5967
 30
0.0000
  0
SEQEND
  8
0
  0
POLYLINE
  8
20
 66
1
 10
0.0000
 20
0.0000
 30
0.0000
 40
0.1300
 41
0.1300
 70
0
  0
VERTEX
  8
20
 10
86.3600
 20
-1.9350
 30
0.0000
  0
VERTEX
  8
20
 10
86.0408
 20
0.6000
 30
0.0000
  0
SEQEND
  8
0
  0
POLYLINE
  8
20
 66
1
 10
0.0000
 20
0.0000
 30
0.0000
 40
0.0650
 41
0.0650
 70
0
  0
VERTEX
  8
20
 10
86.0730
 20
0.6041
 30
0.0000
 42
1.0000
  0
VERTEX
  8
20
 10
86.0085
 20
0.5959
 30
0.0000
  0
SEQEND
  8
0
  0
POLYLINE
  8
20
 66
1
 10
0.0000
 20
0.0000
 30
0.0000
 40
0.0650
 41
0.0650
 70
0
  0
VERTEX
  8
20
 10
86.3278
 20
-1.9391
 30
0.0000
 42
1.0000
  0
VERTEX
  8
20
 10
86.3922
 20
-1.9309
 30
0.0000
  0
SEQEND
  8
0
  0
POLYLINE
  8
20
 66
1
 10
0.0000
 20
0.0000
 30
0.0000
 40
0.1300
 41
0.1300
 70
0
  0
VERTEX
  8
20
 10
86.0408
 20
0.6000
 30
0.0000
  0
VERTEX
  8
20
 10
86.6792
 20
0.6000
 30
0.0000
  0
SEQEND
  8
0
  0
POLYLINE
  8
20
 66
1
 10
0.0000
 20
0.0000
 30
0.0000
 40
0.0650
 41
0.0650
 70
0
  0
VERTEX
  8
20
 10
86.6792
 20
0.5675
 30
0.0000
 42
1.0000
  0
VERTEX
  8
20
 10
86.6792
 20
0.6325
 30
0.0000
  0
SEQEND
  8
0
  0
POLYLINE
  8
20
 66
1
 10
0.0000
 20
0.0000
 30
0.0000
 40
0.0650
 41
0.0650
 70
0
  0
VERTEX
  8
20
 10
86.0408
 20
0.6325
 30
0.0000
 42
1.0000
  0
VERTEX
  8
20
 10
86.0408
 20
0.5675
 30
0.0000
  0
SEQEND
  8
0
  0
POLYLINE
  8
20
 66
1
 10
0.0000
 20
0.0000
 30
0.0000
 40
0.1300
 41
0.1300
 70
0
  0
VERTEX
  8
20
 10
86.6792
 20
0.6000
 30
0.0000
  0
VERTEX
  8
20
 10
86.3600
 20
-1.9350
 30
0.0000
  0
SEQEND
  8
0
  0
POLYLINE
  8
20
 66
1
 10
0.0000
 20
0.0000
 30
0.0000
 40
0.0650
 41
0.0650
 70
0
  0
VERTEX
  8
20
 10
86.3278
 20
-1.9309
 30
0.0000
 42
1.0000
  0
VERTEX
  8
20
 10
86.3922
 20
-1.9391
 30
0.0000
  0
SEQEND
  8
0
  0
POLYLINE
  8
20
 66
1
 10
0.0000
 20
0.0000
 30
0.0000
 40
0.0650
 41
0.0650
 70
0
  0
VERTEX
  8
20
 10
86.7115
 20
0.5959
 30
0.0000
 42
1.0000
  0
VERTEX
  8
20
 10
86.6470
 20
0.6041
 30
0.0000
  0
SEQEND
  8
0
  0
POLYLINE
  8
20
 66
1
 10
0.0000
 20
0.0000
 30
0.0000
 40
0.1300
 41
0.1300
 70
0
  0
VERTEX
  8
20
 10
86.3600
 20
-1.9350
 30
0.0000
  0
VERTEX
  8
20
 10
86.2300
 20
0.6000
 30
0.0000
  0
SEQEND
  8
0
  0
POLYLINE
  8
20
 66
1
 10
0.0000
 20
0.0000
 30
0.0000
 40
0.0650
 41
0.0650
 70
0
  0
VERTEX
  8
20
 10
86.2625
 20
0.6017
 30
0.0000
 42
1.0000
  0
VERTEX
  8
20
 10
86.1975
 20
0.5983
 30
0.0000
  0
SEQEND
  8
0
  0
POLYLINE
  8
20
 66
1
 10
0.0000
 20
0.0000
 30
0.0000
 40
0.0650
 41
0.0650
 70
0
  0
VERTEX
  8
20
 10
86.3275
 20
-1.9367
 30
0.0000
 42
1.0000
  0
VERTEX
  8
20
 10
86.3925
 20
-1.9333
 30
0.0000
  0
SEQEND
  8
0
  0
POLYLINE
  8
20
 66
1
 10
0.0000
 20
0.0000
 30
0.0000
 40
0.1300
 41
0.1300
 70
0
  0
VERTEX
  8
20
 10
86.4900
 20
0.6000
 30
0.0000
  0
VERTEX
  8
20
 10
86.3600
 20
-1.9350
 30
0.0000
  0
SEQEND
  8
0
  0
POLYLINE
  8
20
 66
1
 10
0.0000
 20
0.0000
 30
0.0000
 40
0.0650
 41
0.0650
 70
0
  0
VERTEX
  8
20
 10
86.3275
 20
-1.9333
 30
0.0000
 42
1.0000
  0
VERTEX
  8
20
 10
86.3925
 20
-1.9367
 30
0.0000
  0
SEQEND
  8
0
  0
POLYLINE
  8
20
 66
1
 10
0.0000
 20
0.0000
 30
0.0000
 40
0.0650
 41
0.0650
 70
0
  0
VERTEX
  8
20
 10
86.5225
 20
0.5983
 30
0.0000
 42
1.0000
  0
VERTEX
  8
20
 10
86.4575
 20
0.6017
 30
0.0000
  0
SEQEND
  8
0
  0
POLYLINE
  8
20
 66
1
 10
0.0000
 20
0.0000
 30
0.0000
 40
0.1300
 41
0.1300
 70
0
  0
VERTEX
  8
20
 10
86.3600
 20
-1.9350
 30
0.0000
  0
VERTEX
  8
20
 10
86.1000
 20
0.6000
 30
0.0000
  0
SEQEND
  8
0
  0
POLYLINE
  8
20
 66
1
 10
0.0000
 20
0.0000
 30
0.0000
 40
0.0650
 41
0.0650
 70
0
  0
VERTEX
  8
20
 10
86.1323
 20
0.6033
 30
0.0000
 42
1.0000
  0
VERTEX
  8
20
 10
86.0677
 20
0.5967
 30
0.0000
  0
SEQEND
  8
0
  0
POLYLINE
  8
20
 66
1
 10
0.0000
 20
0.0000
 30
0.0000
 40
0.0650
 41
0.0650
 70
0
  0
VERTEX
  8
20
 10
86.3277
 20
-1.9383
 30
0.0000
 42
1.0000
  0
VERTEX
  8
20
 10
86.3923
 20
-1.9317
 30
0.0000
  0
SEQEND
  8
0
  0
POLYLINE
  8
20
 66
1
 10
0.0000
 20
0.0000
 30
0.0000
 40
0.1300
 41
0.1300
 70
0
  0
VERTEX
  8
20
 10
86.6200
 20
0.6000
 30
0.0000
  0
VERTEX
  8
20
 10
86.3600
 20
-1.9350
 30
0.0000
  0
SEQEND
  8
0
  0
POLYLINE
  8
20
 66
1
 10
0.0000
 20
0.0000
 30
0.0000
 40
0.0650
 41
0.0650
 70
0
  0
VERTEX
  8
20
 10
86.3277
 20
-1.9317
 30
0.0000
 42
1.0000
  0
VERTEX
  8
20
 10
86.3923
 20
-1.9383
 30
0.0000
  0
SEQEND
  8
0
  0
POLYLINE
  8
20
 66
1
 10
0.0000
 20
0.0000
 30
0.0000
 40
0.0650
 41
0.0650
 70
0
  0
VERTEX
  8
20
 10
86.6523
 20
0.5967
 30
0.0000
 42
1.0000
  0
VERTEX
  8
20
 10
86.5877
 20
0.6033
 30
0.0000
  0
SEQEND
  8
0
  0
POLYLINE
  8
20
 66
1
 10
0.0000
 20
0.0000
 30
0.0000
 40
0.1524
 41
0.1524
 70
0
  0
VERTEX
  8
20
 10
85.7093
 20
0.1801
 30
0.0000
  0
VERTEX
  8
20
 10
84.0823
 20
0.1801
 30
0.0000
  0
SEQEND
  8
0
  0
POLYLINE
  8
20
 66
1
 10
0.0000
 20
0.0000
 30
0.0000
 40
0.0762
 41
0.0762
 70
0
  0
VERTEX
  8
20
 10
84.0823
 20
0.2182
 30
0.0000
 42
1.0000
  0
VERTEX
  8
20
 10
84.0823
 20
0.1420
 30
0.0000
  0
SEQEND
  8
0
  0
POLYLINE
  8
20
 66
1
 10
0.0000
 20
0.0000
 30
0.0000
 40
0.0762
 41
0.0762
 70
0
  0
VERTEX
  8
20
 10
85.7093
 20
0.1420
 30
0.0000
 42
1.0000
  0
VERTEX
  8
20
 10
85.7093
 20
0.2182
 30
0.0000
  0
SEQEND
  8
0
  0
POLYLINE
  8
20
 66
1
 10
0.0000
 20
0.0000
 30
0.0000
 40
0.1524
 41
0.1524
 70
0
  0
VERTEX
  8
20
 10
84.0823
 20
0.1801
 30
0.0000
  0
VERTEX
  8
20
 10
84.8958
 20
-0.6334
 30
0.0000
  0
SEQEND
  8
0
  0
POLYLINE
  8
20
 66
1
 10
0.0000
 20
0.0000
 30
0.0000
 40
0.0762
 41
0.0762
 70
0
  0
VERTEX
  8
20
 10
84.8689
 20
-0.6603
 30
0.0000
 42
1.0000
  0
VERTEX
  8
20
 10
84.9227
 20
-0.6065
 30
0.0000
  0
SEQEND
  8
0
  0
POLYLINE
  8
20
 66
1
 10
0.0000
 20
0.0000
 30
0.0000
 40
0.0762
 41
0.0762
 70
0
  0
VERTEX
  8
20
 10
84.1093
 20
0.2070
 30
0.0000
 42
1.0000
  0
VERTEX
  8
20
 10
84.0554
 20
0.1531
 30
0.0000
  0
SEQEND
  8
0
  0
POLYLINE
  8
20
 66
1
 10
0.0000
 20
0.0000
 30
0.0000
 40
0.1524
 41
0.1524
 70
0
  0
VERTEX
  8
20
 10
84.8958
 20
-0.6334
 30
0.0000
  0
VERTEX
  8
20
 10
84.8958
 20
0.4513
 30
0.0000
  0
SEQEND
  8
0
  0
POLYLINE
  8
20
 66
1
 10
0.0000
 20
0.0000
 30
0.0000
 40
0.0762
 41
0.0762
 70
0
  0
VERTEX
  8
20
 10
84.9339
 20
0.4513
 30
0.0000
 42
1.0000
  0
VERTEX
  8
20
 10
84.8577
 20
0.4513
 30
0.0000
  0
SEQEND
  8
0
  0
POLYLINE
  8
20
 66
1
 10
0.0000
 20
0.0000
 30
0.0000
 40
0.0762
 41
0.0762
 70
0
  0
VERTEX
  8
20
 10
84.8577
 20
-0.6334
 30
0.0000
 42
1.0000
  0
VERTEX
  8
20
 10
84.9339
 20
-0.6334
 30
0.0000
  0
SEQEND
  8
0
  0
POLYLINE
  8
20
 66
1
 10
0.0000
 20
0.0000
 30
0.0000
 40
0.1300
 41
0.1300
 70
0
  0
VERTEX
  8
20
 10
30.0000
 20
-2.0000
 30
0.0000
  0
VERTEX
  8
20
 10
93.3900
 20
-2.0000
 30
0.0000
  0
SEQEND
  8
0
  0
POLYLINE
  8
20
 66
1
 10
0.0000
 20
0.0000
 30
0.0000
 40
0.0650
 41
0.0650
 70
0
  0
VERTEX
  8
20
 10
93.3900
 20
-2.0325
 30
0.0000
 42
1.0000
  0
VERTEX
  8
20
 10
93.3900
 20
-1.9675
 30
0.0000
  0
SEQEND
  8
0
  0
POLYLINE
  8
20
 66
1
 10
0.0000
 20
0.0000
 30
0.0000
 40
0.0650
 41
0.0650
 70
0
  0
VERTEX
  8
20
 10
30.0000
 20
-1.9675
 30
0.0000
 42
1.0000
  0
VERTEX
  8
20
 10
30.0000
 20
-2.0325
 30
0.0000
  0
SEQEND
  8
0
  0
POLYLINE
  8
20
 66
1
 10
0.0000
 20
0.0000
 30
0.0000
 40
0.1300
 41
0.1300
 70
0
  0
VERTEX
  8
20
 10
30.0000
 20
-3.0000
 30
0.0000
  0
VERTEX
  8
20
 10
93.3900
 20
-3.0000
 30
0.0000
  0
SEQEND
  8
0
  0
POLYLINE
  8
20
 66
1
 10
0.0000
 20
0.0000
 30
0.0000
 40
0.0650
 41
0.0650
 70
0
  0
VERTEX
  8
20
 10
93.3900
 20
-3.0325
 30
0.0000
 42
1.0000
  0
VERTEX
  8
20
 10
93.3900
 20
-2.9675
 30
0.0000
  0
SEQEND
  8
0
  0
POLYLINE
  8
20
 66
1
 10
0.0000
 20
0.0000
 30
0.0000
 40
0.0650
 41
0.0650
 70
0
  0
VERTEX
  8
20
 10
30.0000
 20
-2.9675
 30
0.0000
 42
1.0000
  0
VERTEX
  8
20
 10
30.0000
 20
-3.0325
 30
0.0000
  0
SEQEND
  8
0
  0
POLYLINE
  8
20
 66
1
 10
0.0000
 20
0.0000
 30
0.0000
 40
0.1300
 41
0.1300
 70
0
  0
VERTEX
  8
20
 10
91.4400
 20
-3.0650
 30
0.0000
  0
VERTEX
  8
20
 10
91.4400
 20
-8.2000
 30
0.0000
  0
SEQEND
  8
0
  0
POLYLINE
  8
20
 66
1
 10
0.0000
 20
0.0000
 30
0.0000
 40
0.0650
 41
0.0650
 70
0
  0
VERTEX
  8
20
 10
91.4075
 20
-8.2000
 30
0.0000
 42
1.0000
  0
VERTEX
  8
20
 10
91.4725
 20
-8.2000
 30
0.0000
  0
SEQEND
  8
0
  0
POLYLINE
  8
20
 66
1
 10
0.0000
 20
0.0000
 30
0.0000
 40
0.0650
 41
0.0650
 70
0
  0
VERTEX
  8
20
 10
91.4725
 20
-3.0650
 30
0.0000
 42
1.0000
  0
VERTEX
  8
20
 10
91.4075
 20
-3.0650
 30
0.0000
  0
SEQEND
  8
0
  0
POLYLINE
  8
20
 66
1
 10
0.0000
 20
0.0000
 30
0.0000
 40
0.1300
 41
0.1300
 70
0
  0
VERTEX
  8
20
 10
91.4400
 20
-1.9350
 30
0.0000
  0
VERTEX
  8
20
 10
91.4400
 20
2.0192
 30
0.0000
  0
SEQEND
  8
0
  0
POLYLINE
  8
20
 66
1
 10
0.0000
 20
0.0000
 30
0.0000
 40
0.0650
 41
0.0650
 70
0
  0
VERTEX
  8
20
 10
91.4725
 20
2.0192
 30
0.0000
 42
1.0000
  0
VERTEX
  8
20
 10
91.4075
 20
2.0192
 30
0.0000
  0
SEQEND
  8
0
  0
POLYLINE
  8
20
 66
1
 10
0.0000
 20
0.0000
 30
0.0000
 40
0.0650
 41
0.0650
 70
0
  0
VERTEX
  8
20
 10
91.4075
 20
-1.9350
 30
0.0000
 42
1.0000
  0
VERTEX
  8
20
 10
91.4725
 20
-1.9350
 30
0.0000
  0
SEQEND
  8
0
  0
POLYLINE
  8
20
 66
1
 10
0.0000
 20
0.0000
 30
0.0000
 40
0.1300
 41
0.1300
 70
0
  0
VERTEX
  8
20
 10
91.4400
 20
-1.9350
 30
0.0000
  0
VERTEX
  8
20
 10
91.1208
 20
0.6000
 30
0.0000
  0
SEQEND
  8
0
  0
POLYLINE
  8
20
 66
1
 10
0.0000
 20
0.0000
 30
0.0000
 40
0.0650
 41
0.0650
 70
0
  0
VERTEX
  8
20
 10
91.1530
 20
0.6041
 30
0.0000
 42
1.0000
  0
VERTEX
  8
20
 10
91.0885
 20
0.5959
 30
0.0000
  0
SEQEND
  8
0
  0
POLYLINE
  8
20
 66
1
 10
0.0000
 20
0.0000
 30
0.0000
 40
0.0650
 41
0.0650
 70
0
  0
VERTEX
  8
20
 10
91.4078
 20
-1.9391
 30
0.0000
 42
1.0000
  0
VERTEX
  8
20
 10
91.4722
 20
-1.9309
 30
0.0000
  0
SEQEND
  8
0
  0
POLYLINE
  8
20
 66
1
 10
0.0000
 20
0.0000
 30
0.0000
 40
0.1300
 41
0.1300
 70
0
  0
VERTEX
  8
20
 10
91.1208
 20
0.6000
 30
0.0000
  0
VERTEX
  8
20
 10
91.7592
 20
0.6000
 30
0.0000
  0
SEQEND
  8
0
  0
POLYLINE
  8
20
 66
1
 10
0.0000
 20
0.0000
 30
0.0000
 40
0.0650
 41
0.0650
 70
0
  0
VERTEX
  8
20
 10
91.7592
 20
0.5675
 30
0.0000
 42
1.0000
  0
VERTEX
  8
20
 10
91.7592
 20
0.6325
 30
0.0000
  0
SEQEND
  8
0
  0
POLYLINE
  8
20
 66
1
 10
0.0000
 20
0.0000
 30
0.0000
 40
0.0650
 41
0.0650
 70
0
  0
VERTEX
  8
20
 10
91.1208
 20
0.6325
 30
0.0000
 42
1.0000
  0
VERTEX
  8
20
 10
91.1208
 20
0.5675
 30
0.0000
  0
SEQEND
  8
0
  0
POLYLINE
  8
20
 66
1
 10
0.0000
 20
0.0000
 30
0.0000
 40
0.1300
 41
0.1300
 70
0
  0
VERTEX
  8
20
 10
91.7592
 20
0.6000
 30
0.0000
  0
VERTEX
  8
20
 10
91.4400
 20
-1.9350
 30
0.0000
  0
SEQEND
  8
0
  0
POLYLINE
  8
20
 66
1
 10
0.0000
 20
0.0000
 30
0.0000
 40
0.0650
 41
0.0650
 70
0
  0
VERTEX
  8
20
 10
91.4078
 20
-1.9309
 30
0.0000
 42
1.0000
  0
VERTEX
  8
20
 10
91.4722
 20
-1.9391
 30
0.0000
  0
SEQEND
  8
0
  0
POLYLINE
  8
20
 66
1
 10
0.0000
 20
0.0000
 30
0.0000
 40
0.0650
 41
0.0650
 70
0
  0
VERTEX
  8
20
 10
91.7915
 20
0.5959
 30
0.0000
 42
1.0000
  0
VERTEX
  8
20
 10
91.7270
 20
0.6041
 30
0.0000
  0
SEQEND
  8
0
  0
POLYLINE
  8
20
 66
1
 10
0.0000
 20
0.0000
 30
0.0000
 40
0.1300
 41
0.1300
 70
0
  0
VERTEX
  8
20
 10
91.4400
 20
-1.9350
 30
0.0000
  0
VERTEX
  8
20
 10
91.3100
 20
0.6000
 30
0.0000
  0
SEQEND
  8
0
  0
POLYLINE
  8
20
 66
1
 10
0.0000
 20
0.0000
 30
0.0000
 40
0.0650
 41
0.0650
 70
0
  0
VERTEX
  8
20
 10
91.3425
 20
0.6017
 30
0.0000
 42
1.0000
  0
VERTEX
  8
20
 10
91.2775
 20
0.5983
 30
0.0000
  0
SEQEND
  8
0
  0
POLYLINE
  8
20
 66
1
 10
0.0000
 20
0.0000
 30
0.0000
 40
0.0650
 41
0.0650
 70
0
  0
VERTEX
  8
20
 10
91.4075
 20
-1.9367
 30
0.0000
 42
1.0000
  0
VERTEX
  8
20
 10
91.4725
 20
-1.9333
 30
0.0000
  0
SEQEND
  8
0
  0
POLYLINE
  8
20
 66
1
 10
0.0000
 20
0.0000
 30
0.0000
 40
0.1300
 41
0.1300
 70
0
  0
VERTEX
  8
20
 10
91.5700
 20
0.6000
 30
0.0000
  0
VERTEX
  8
20
 10
91.4400
 20
-1.9350
 30
0.0000
  0
SEQEND
  8
0
  0
POLYLINE
  8
20
 66
1
 10
0.0000
 20
0.0000
 30
0.0000
 40
0.0650
 41
0.0650
 70
0
  0
VERTEX
  8
20
 10
91.4075
 20
-1.9333
 30
0.0000
 42
1.0000
  0
VERTEX
  8
20
 10
91.4725
 20
-1.9367
 30
0.0000
  0
SEQEND
  8
0
  0
POLYLINE
  8
20
 66
1
 10
0.0000
 20
0.0000
 30
0.0000
 40
0.0650
 41
0.0650
 70
0
  0
VERTEX
  8
20
 10
91.6025
 20
0.5983
 30
0.0000
 42
1.0000
  0
VERTEX
  8
20
 10
91.5375
 20
0.6017
 30
0.0000
  0
SEQEND
  8
0
  0
POLYLINE
  8
20
 66
1
 10
0.0000
 20
0.0000
 30
0.0000
 40
0.1300
 41
0.1300
 70
0
  0
VERTEX
  8
20
 10
91.4400
 20
-1.9350
 30
0.0000
  0
VERTEX
  8
20
 10
91.1800
 20
0.6000
 30
0.0000
  0
SEQEND
  8
0
  0
POLYLINE
  8
20
 66
1
 10
0.0000
 20
0.0000
 30
0.0000
 40
0.0650
 41
0.0650
 70
0
  0
VERTEX
  8
20
 10
91.2123
 20
0.6033
 30
0.0000
 42
1.0000
  0
VERTEX
  8
20
 10
91.1477
 20
0.5967
 30
0.0000
  0
SEQEND
  8
0
  0
POLYLINE
  8
20
 66
1
 10
0.0000
 20
0.0000
 30
0.0000
 40
0.0650
 41
0.0650
 70
0
  0
VERTEX
  8
20
 10
91.4077
 20
-1.9383
 30
0.0000
 42
1.0000
  0
VERTEX
  8
20
 10
91.4723
 20
-1.9317
 30
0.0000
  0
SEQEND
  8
0
  0
POLYLINE
  8
20
 66
1
 10
0.0000
 20
0.0000
 30
0.0000
 40
0.1300
 41
0.1300
 70
0
  0
VERTEX
  8
20
 10
91.7000
 20
0.6000
 30
0.0000
  0
VERTEX
  8
20
 10
91.4400
 20
-1.9350
 30
0.0000
  0
SEQEND
  8
0
  0
POLYLINE
  8
20
 66
1
 10
0.0000
 20
0.0000
 30
0.0000
 40
0.0650
 41
0.0650
 70
0
  0
VERTEX
  8
20
 10
91.4077
 20
-1.9317
 30
0.0000
 42
1.0000
  0
VERTEX
  8
20
 10
91.4723
 20
-1.9383
 30
0.0000
  0
SEQEND
  8
0
  0
POLYLINE
  8
20
 66
1
 10
0.0000
 20
0.0000
 30
0.0000
 40
0.0650
 41
0.0650
 70
0
  0
VERTEX
  8
20
 10
91.7323
 20
0.5967
 30
0.0000
 42
1.0000
  0
VERTEX
  8
20
 10
91.6677
 20
0.6033
 30
0.0000
  0
SEQEND
  8
0
  0
POLYLINE
  8
20
 66
1
 10
0.0000
 20
0.0000
 30
0.0000
 40
0.1300
 41
0.1300
 70
0
  0
VERTEX
  8
20
 10
91.4400
 20
-3.0650
 30
0.0000
  0
VERTEX
  8
20
 10
91.1208
 20
-5.6000
 30
0.0000
  0
SEQEND
  8
0
  0
POLYLINE
  8
20
 66
1
 10
0.0000
 20
0.0000
 30
0.0000
 40
0.0650
 41
0.0650
 70
0
  0
VERTEX
  8
20
 10
91.0885
 20
-5.5959
 30
0.0000
 42
1.0000
  0
VERTEX
  8
20
 10
91.1530
 20
-5.6041
 30
0.0000
  0
SEQEND
  8
0
  0
POLYLINE
  8
20
 66
1
 10
0.0000
 20
0.0000
 30
0.0000
 40
0.0650
 41
0.0650
 70
0
  0
VERTEX
  8
20
 10
91.4722
 20
-3.0691
 30
0.0000
 42
1.0000
  0
VERTEX
  8
20
 10
91.4078
 20
-3.0609
 30
0.0000
  0
SEQEND
  8
0
  0
POLYLINE
  8
20
 66
1
 10
0.0000
 20
0.0000
 30
0.0000
 40
0.1300
 41
0.1300
 70
0
  0
VERTEX
  8
20
 10
91.1208
 20
-5.6000
 30
0.0000
  0
VERTEX
  8
20
 10
91.7592
 20
-5.6000
 30
0.0000
  0
SEQEND
  8
0
  0
POLYLINE
  8
20
 66
1
 10
0.0000
 20
0.0000
 30
0.0000
 40
0.0650
 41
0.0650
 70
0
  0
VERTEX
  8
20
 10
91.7592
 20
-5.6325
 30
0.0000
 42
1.0000
  0
VERTEX
  8
20
 10
91.7592
 20
-5.5675
 30
0.0000
  0
SEQEND
  8
0
  0
POLYLINE
  8
20
 66
1
 10
0.0000
 20
0.0000
 30
0.0000
 40
0.0650
 41
0.0650
 70
0
  0
VERTEX
  8
20
 10
91.1208
 20
-5.5675
 30
0.0000
 42
1.0000
  0
VERTEX
  8
20
 10
91.1208
 20
-5.6325
 30
0.0000
  0
SEQEND
  8
0
  0
POLYLINE
  8
20
 66
1
 10
0.0000
 20
0.0000
 30
0.0000
 40
0.1300
 41
0.1300
 70
0
  0
VERTEX
  8
20
 10
91.7592
 20
-5.6000
 30
0.0000
  0
VERTEX
  8
20
 10
91.4400
 20
-3.0650
 30
0.0000
  0
SEQEND
  8
0
  0
POLYLINE
  8
20
 66
1
 10
0.0000
 20
0.0000
 30
0.0000
 40
0.0650
 41
0.0650
 70
0
  0
VERTEX
  8
20
 10
91.4722
 20
-3.0609
 30
0.0000
 42
1.0000
  0
VERTEX
  8
20
 10
91.4078
 20
-3.0691
 30
0.0000
  0
SEQEND
  8
0
  0
POLYLINE
  8
20
 66
1
 10
0.0000
 20
0.0000
 30
0.0000
 40
0.0650
 41
0.0650
 70
0
  0
VERTEX
  8
20
 10
91.7270
 20
-5.6041
 30
0.0000
 42
1.0000
  0
VERTEX
  8
20
 10
91.7915
 20
-5.5959
 30
0.0000
  0
SEQEND
  8
0
  0
POLYLINE
  8
20
 66
1
 10
0.0000
 20
0.0000
 30
0.0000
 40
0.1300
 41
0.1300
 70
0
  0
VERTEX
  8
20
 10
91.4400
 20
-3.0650
 30
0.0000
  0
VERTEX
  8
20
 10
91.3100
 20
-5.6000
 30
0.0000
  0
SEQEND
  8
0
  0
POLYLINE
  8
20
 66
1
 10
0.0000
 20
0.0000
 30
0.0000
 40
0.0650
 41
0.0650
 70
0
  0
VERTEX
  8
20
 10
91.2775
 20
-5.5983
 30
0.0000
 42
1.0000
  0
VERTEX
  8
20
 10
91.3425
 20
-5.6017
 30
0.0000
  0
SEQEND
  8
0
  0
POLYLINE
  8
20
 66
1
 10
0.0000
 20
0.0000
 30
0.0000
 40
0.0650
 41
0.0650
 70
0
  0
VERTEX
  8
20
 10
91.4725
 20
-3.0667
 30
0.0000
 42
1.0000
  0
VERTEX
  8
20
 10
91.4075
 20
-3.0633
 30
0.0000
  0
SEQEND
  8
0
  0
POLYLINE
  8
20
 66
1
 10
0.0000
 20
0.0000
 30
0.0000
 40
0.1300
 41
0.1300
 70
0
  0
VERTEX
  8
20
 10
91.5700
 20
-5.6000
 30
0.0000
  0
VERTEX
  8
20
 10
91.4400
 20
-3.0650
 30
0.0000
  0
SEQEND
  8
0
  0
POLYLINE
  8
20
 66
1
 10
0.0000
 20
0.0000
 30
0.0000
 40
0.0650
 41
0.0650
 70
0
  0
VERTEX
  8
20
 10
91.4725
 20
-3.0633
 30
0.0000
 42
1.0000
  0
VERTEX
  8
20
 10
91.4075
 20
-3.0667
 30
0.0000
  0
SEQEND
  8
0
  0
POLYLINE
  8
20
 66
1
 10
0.0000
 20
0.0000
 30
0.0000
 40
0.0650
 41
0.0650
 70
0
  0
VERTEX
  8
20
 10
91.5375
 20
-5.6017
 30
0.0000
 42
1.0000
  0
VERTEX
  8
20
 10
91.6025
 20
-5.5983
 30
0.0000
  0
SEQEND
  8
0
  0
POLYLINE
  8
20
 66
1
 10
0.0000
 20
0.0000
 30
0.0000
 40
0.1300
 41
0.1300
 70
0
  0
VERTEX
  8
20
 10
91.4400
 20
-3.0650
 30
0.0000
  0
VERTEX
  8
20
 10
91.1800
 20
-5.6000
 30
0.0000
  0
SEQEND
  8
0
  0
POLYLINE
  8
20
 66
1
 10
0.0000
 20
0.0000
 30
0.0000
 40
0.0650
 41
0.0650
 70
0
  0
VERTEX
  8
20
 10
91.1477
 20
-5.5967
 30
0.0000
 42
1.0000
  0
VERTEX
  8
20
 10
91.2123
 20
-5.6033
 30
0.0000
  0
SEQEND
  8
0
  0
POLYLINE
  8
20
 66
1
 10
0.0000
 20
0.0000
 30
0.0000
 40
0.0650
 41
0.0650
 70
0
  0
VERTEX
  8
20
 10
91.4723
 20
-3.0683
 30
0.0000
 42
1.0000
  0
VERTEX
  8
20
 10
91.4077
 20
-3.0617
 30
0.0000
  0
SEQEND
  8
0
  0
POLYLINE
  8
20
 66
1
 10
0.0000
 20
0.0000
 30
0.0000
 40
0.1300
 41
0.1300
 70
0
  0
VERTEX
  8
20
 10
91.7000
 20
-5.6000
 30
0.0000
  0
VERTEX
  8
20
 10
91.4400
 20
-3.0650
 30
0.0000
  0
SEQEND
  8
0
  0
POLYLINE
  8
20
 66
1
 10
0.0000
 20
0.0000
 30
0.0000
 40
0.0650
 41
0.0650
 70
0
  0
VERTEX
  8
20
 10
91.4723
 20
-3.0617
 30
0.0000
 42
1.0000
  0
VERTEX
  8
20
 10
91.4077
 20
-3.0683
 30
0.0000
  0
SEQEND
  8
0
  0
POLYLINE
  8
20
 66
1
 10
0.0000
 20
0.0000
 30
0.0000
 40
0.0650
 41
0.0650
 70
0
  0
VERTEX
  8
20
 10
91.6677
 20
-5.6033
 30
0.0000
 42
1.0000
  0
VERTEX
  8
20
 10
91.7323
 20
-5.5967
 30
0.0000
  0
SEQEND
  8
0
  0
POLYLINE
  8
20
 66
1
 10
0.0000
 20
0.0000
 30
0.0000
 40
0.1524
 41
0.1524
 70
0
  0
VERTEX
  8
20
 10
89.7046
 20
0.6762
 30
0.0000
  0
VERTEX
  8
20
 10
89.1623
 20
1.2185
 30
0.0000
  0
SEQEND
  8
0
  0
POLYLINE
  8
20
 66
1
 10
0.0000
 20
0.0000
 30
0.0000
 40
0.0762
 41
0.0762
 70
0
  0
VERTEX
  8
20
 10
89.1893
 20
1.2455
 30
0.0000
 42
1.0000
  0
VERTEX
  8
20
 10
89.1354
 20
1.1916
 30
0.0000
  0
SEQEND
  8
0
  0
POLYLINE
  8
20
 66
1
 10
0.0000
 20
0.0000
 30
0.0000
 40
0.0762
 41
0.0762
 70
0
  0
VERTEX
  8
20
 10
89.6777
 20
0.6493
 30
0.0000
 42
1.0000
  0
VERTEX
  8
20
 10
89.7316
 20
0.7031
 30
0.0000
  0
SEQEND
  8
0
  0
POLYLINE
  8
20
 66
1
 10
0.0000
 20
0.0000
 30
0.0000
 40
0.1524
 41
0.1524
 70
0
  0
VERTEX
  8
20
 10
89.1623
 20
1.2185
 30
0.0000
  0
VERTEX
  8
20
 10
90.7893
 20
1.2185
 30
0.0000
  0
SEQEND
  8
0
  0
POLYLINE
  8
20
 66
1
 10
0.0000
 20
0.0000
 30
0.0000
 40
0.0762
 41
0.0762
 70
0
  0
VERTEX
  8
20
 10
90.7893
 20
1.1804
 30
0.0000
 42
1.0000
  0
VERTEX
  8
20
 10
90.7893
 20
1.2566
 30
0.0000
  0
SEQEND
  8
0
  0
POLYLINE
  8
20
 66
1
 10
0.0000
 20
0.0000
 30
0.0000
 40
0.0762
 41
0.0762
 70
0
  0
VERTEX
  8
20
 10
89.1623
 20
1.2566
 30
0.0000
 42
1.0000
  0
VERTEX
  8
20
 10
89.1623
 20
1.1804
 30
0.0000
  0
SEQEND
  8
0
  0
POLYLINE
  8
20
 66
1
 10
0.0000
 20
0.0000
 30
0.0000
 40
0.1524
 41
0.1524
 70
0
  0
VERTEX
  8
20
 10
90.7893
 20
0.6762
 30
0.0000
  0
VERTEX
  8
20
 10
90.7893
 20
1.7609
 30
0.0000
  0
SEQEND
  8
0
  0
POLYLINE
  8
20
 66
1
 10
0.0000
 20
0.0000
 30
0.0000
 40
0.0762
 41
0.0762
 70
0
  0
VERTEX
  8
20
 10
90.8274
 20
1.7609
 30
0.0000
 42
1.0000
  0
VERTEX
  8
20
 10
90.7512
 20
1.7609
 30
0.0000
  0
SEQEND
  8
0
  0
POLYLINE
  8
20
 66
1
 10
0.0000
 20
0.0000
 30
0.0000
 40
0.0762
 41
0.0762
 70
0
  0
VERTEX
  8
20
 10
90.7512
 20
0.6762
 30
0.0000
 42
1.0000
  0
VERTEX
  8
20
 10
90.8274
 20
0.6762
 30
0.0000
  0
SEQEND
  8
0
  0
POLYLINE
  8
47
 66
1
 10
0.0000
 20
0.0000
 30
0.0000
 40
0.1300
 41
0.1300
 70
0
  0
VERTEX
  8
47
 10
35.0000
 20
0.0000
 30
0.0000
  0
VERTEX
  8
47
 10
35.0000
 20
-10.8400
 30
0.0000
  0
SEQEND
  8
0
  0
POLYLINE
  8
47
 66
1
 10
0.0000
 20
0.0000
 30
0.0000
 40
0.0650
 41
0.0650
 70
0
  0
VERTEX
  8
47
 10
34.9675
 20
-10.8400
 30
0.0000
 42
1.0000
  0
VERTEX
  8
47
 10
35.0325
 20
-10.8400
 30
0.0000
  0
SEQEND
  8
0
  0
POLYLINE
  8
47
 66
1
 10
0.0000
 20
0.0000
 30
0.0000
 40
0.0650
 41
0.0650
 70
0
  0
VERTEX
  8
47
 10
35.0325
 20
0.0000
 30
0.0000
 42
1.0000
  0
VERTEX
  8
47
 10
34.9675
 20
0.0000
 30
0.0000
  0
SEQEND
  8
0
  0
POLYLINE
  8
47
 66
1
 10
0.0000
 20
0.0000
 30
0.0000
 40
0.1300
 41
0.1300
 70
0
  0
VERTEX
  8
47
 10
30.0000
 20
-2.0000
 30
0.0000
  0
VERTEX
  8
47
 10
30.0000
 20
-10.8400
 30
0.0000
  0
SEQEND
  8
0
  0
POLYLINE
  8
47
 66
1
 10
0.0000
 20
0.0000
 30
0.0000
 40
0.0650
 41
0.0650
 70
0
  0
VERTEX
  8
47
 10
29.9675
 20
-10.8400
 30
0.0000
 42
1.0000
  0
VERTEX
  8
47
 10
30.0325
 20
-10.8400
 30
0.0000
  0
SEQEND
  8
0
  0
POLYLINE
  8
47
 66
1
 10
0.0000
 20
0.0000
 30
0.0000
 40
0.0650
 41
0.0650
 70
0
  0
VERTEX
  8
47
 10
30.0325
 20
-2.0000
 30
0.0000
 42
1.0000
  0
VERTEX
  8
47
 10
29.9675
 20
-2.0000
 30
0.0000
  0
SEQEND
  8
0
  0
POLYLINE
  8
47
 66
1
 10
0.0000
 20
0.0000
 30
0.0000
 40
0.1300
 41
0.1300
 70
0
  0
VERTEX
  8
47
 10
34.9350
 20
-8.8900
 30
0.0000
  0
VERTEX
  8
47
 10
30.0650
 20
-8.8900
 30
0.0000
  0
SEQEND
  8
0
  0
POLYLINE
  8
47
 66
1
 10
0.0000
 20
0.0000
 30
0.0000
 40
0.0650
 41
0.0650
 70
0
  0
VERTEX
  8
47
 10
30.0650
 20
-8.8575
 30
0.0000
 42
1.0000
  0
VERTEX
  8
47
 10
30.0650
 20
-8.9225
 30
0.0000
  0
SEQEND
  8
0
  0
POLYLINE
  8
47
 66
1
 10
0.0000
 20
0.0000
 30
0.0000
 40
0.0650
 41
0.0650
 70
0
  0
VERTEX
  8
47
 10
34.9350
 20
-8.9225
 30
0.0000
 42
1.0000
  0
VERTEX
  8
47
 10
34.9350
 20
-8.8575
 30
0.0000
  0
SEQEND
  8
0
  0
POLYLINE
  8
47
 66
1
 10
0.0000
 20
0.0000
 30
0.0000
 40
0.1300
 41
0.1300
 70
0
  0
VERTEX
  8
47
 10
34.9350
 20
-8.8900
 30
0.0000
  0
VERTEX
  8
47
 10
32.4000
 20
-8.5708
 30
0.0000
  0
SEQEND
  8
0
  0
POLYLINE
  8
47
 66
1
 10
0.0000
 20
0.0000
 30
0.0000
 40
0.0650
 41
0.0650
 70
0
  0
VERTEX
  8
47
 10
32.4041
 20
-8.5385
 30
0.0000
 42
1.0000
  0
VERTEX
  8
47
 10
32.3959
 20
-8.6030
 30
0.0000
  0
SEQEND
  8
0
  0
POLYLINE
  8
47
 66
1
 10
0.0000
 20
0.0000
 30
0.0000
 40
0.0650
 41
0.0650
 70
0
  0
VERTEX
  8
47
 10
34.9309
 20
-8.9222
 30
0.0000
 42
1.0000
  0
VERTEX
  8
47
 10
34.9391
 20
-8.8578
 30
0.0000
  0
SEQEND
  8
0
  0
POLYLINE
  8
47
 66
1
 10
0.0000
 20
0.0000
 30
0.0000
 40
0.1300
 41
0.1300
 70
0
  0
VERTEX
  8
47
 10
32.4000
 20
-8.5708
 30
0.0000
  0
VERTEX
  8
47
 10
32.4000
 20
-9.2092
 30
0.0000
  0
SEQEND
  8
0
  0
POLYLINE
  8
47
 66
1
 10
0.0000
 20
0.0000
 30
0.0000
 40
0.0650
 41
0.0650
 70
0
  0
VERTEX
  8
47
 10
32.3675
 20
-9.2092
 30
0.0000
 42
1.0000
  0
VERTEX
  8
47
 10
32.4325
 20
-9.2092
 30
0.0000
  0
SEQEND
  8
0
  0
POLYLINE
  8
47
 66
1
 10
0.0000
 20
0.0000
 30
0.0000
 40
0.0650
 41
0.0650
 70
0
  0
VERTEX
  8
47
 10
32.4325
 20
-8.5708
 30
0.0000
 42
1.0000
  0
VERTEX
  8
47
 10
32.3675
 20
-8.5708
 30
0.0000
  0
SEQEND
  8
0
  0
POLYLINE
  8
47
 66
1
 10
0.0000
 20
0.0000
 30
0.0000
 40
0.1300
 41
0.1300
 70
0
  0
VERTEX
  8
47
 10
32.4000
 20
-9.2092
 30
0.0000
  0
VERTEX
  8
47
 10
34.9350
 20
-8.8900
 30
0.0000
  0
SEQEND
  8
0
  0
POLYLINE
  8
47
 66
1
 10
0.0000
 20
0.0000
 30
0.0000
 40
0.0650
 41
0.0650
 70
0
  0
VERTEX
  8
47
 10
34.9391
 20
-8.9222
 30
0.0000
 42
1.0000
  0
VERTEX
  8
47
 10
34.9309
 20
-8.8578
 30
0.0000
  0
SEQEND
  8
0
  0
POLYLINE
  8
47
 66
1
 10
0.0000
 20
0.0000
 30
0.0000
 40
0.0650
 41
0.0650
 70
0
  0
VERTEX
  8
47
 10
32.3959
 20
-9.1770
 30
0.0000
 42
1.0000
  0
VERTEX
  8
47
 10
32.4041
 20
-9.2415
 30
0.0000
  0
SEQEND
  8
0
  0
POLYLINE
  8
47
 66
1
 10
0.0000
 20
0.0000
 30
0.0000
 40
0.1300
 41
0.1300
 70
0
  0
VERTEX
  8
47
 10
34.9350
 20
-8.8900
 30
0.0000
  0
VERTEX
  8
47
 10
32.4000
 20
-8.7600
 30
0.0000
  0
SEQEND
  8
0
  0
POLYLINE
  8
47
 66
1
 10
0.0000
 20
0.0000
 30
0.0000
 40
0.0650
 41
0.0650
 70
0
  0
VERTEX
  8
47
 10
32.4017
 20
-8.7275
 30
0.0000
 42
1.0000
  0
VERTEX
  8
47
 10
32.3983
 20
-8.7925
 30
0.0000
  0
SEQEND
  8
0
  0
POLYLINE
  8
47
 66
1
 10
0.0000
 20
0.0000
 30
0.0000
 40
0.0650
 41
0.0650
 70
0
  0
VERTEX
  8
47
 10
34.9333
 20
-8.9225
 30
0.0000
 42
1.0000
  0
VERTEX
  8
47
 10
34.9367
 20
-8.8575
 30
0.0000
  0
SEQEND
  8
0
  0
POLYLINE
  8
47
 66
1
 10
0.0000
 20
0.0000
 30
0.0000
 40
0.1300
 41
0.1300
 70
0
  0
VERTEX
  8
47
 10
32.4000
 20
-9.0200
 30
0.0000
  0
VERTEX
  8
47
 10
34.9350
 20
-8.8900
 30
0.0000
  0
SEQEND
  8
0
  0
POLYLINE
  8
47
 66
1
 10
0.0000
 20
0.0000
 30
0.0000
 40
0.0650
 41
0.0650
 70
0
  0
VERTEX
  8
47
 10
34.9367
 20
-8.9225
 30
0.0000
 42
1.0000
  0
VERTEX
  8
47
 10
34.9333
 20
-8.8575
 30
0.0000
  0
SEQEND
  8
0
  0
POLYLINE
  8
47
 66
1
 10
0.0000
 20
0.0000
 30
0.0000
 40
0.0650
 41
0.0650
 70
0
  0
VERTEX
  8
47
 10
32.3983
 20
-8.9875
 30
0.0000
 42
1.0000
  0
VERTEX
  8
47
 10
32.4017
 20
-9.0525
 30
0.0000
  0
SEQEND
  8
0
  0
POLYLINE
  8
47
 66
1
 10
0.0000
 20
0.0000
 30
0.0000
 40
0.1300
 41
0.1300
 70
0
  0
VERTEX
  8
47
 10
34.9350
 20
-8.8900
 30
0.0000
  0
VERTEX
  8
47
 10
32.4000
 20
-8.6300
 30
0.0000
  0
SEQEND
  8
0
  0
POLYLINE
  8
47
 66
1
 10
0.0000
 20
0.0000
 30
0.0000
 40
0.0650
 41
0.0650
 70
0
  0
VERTEX
  8
47
 10
32.4033
 20
-8.5977
 30
0.0000
 42
1.0000
  0
VERTEX
  8
47
 10
32.3967
 20
-8.6623
 30
0.0000
  0
SEQEND
  8
0
  0
POLYLINE
  8
47
 66
1
 10
0.0000
 20
0.0000
 30
0.0000
 40
0.0650
 41
0.0650
 70
0
  0
VERTEX
  8
47
 10
34.9317
 20
-8.9223
 30
0.0000
 42
1.0000
  0
VERTEX
  8
47
 10
34.9383
 20
-8.8577
 30
0.0000
  0
SEQEND
  8
0
  0
POLYLINE
  8
47
 66
1
 10
0.0000
 20
0.0000
 30
0.0000
 40
0.1300
 41
0.1300
 70
0
  0
VERTEX
  8
47
 10
32.4000
 20
-9.1500
 30
0.0000
  0
VERTEX
  8
47
 10
34.9350
 20
-8.8900
 30
0.0000
  0
SEQEND
  8
0
  0
POLYLINE
  8
47
 66
1
 10
0.0000
 20
0.0000
 30
0.0000
 40
0.0650
 41
0.0650
 70
0
  0
VERTEX
  8
47
 10
34.9383
 20
-8.9223
 30
0.0000
 42
1.0000
  0
VERTEX
  8
47
 10
34.9317
 20
-8.8577
 30
0.0000
  0
SEQEND
  8
0
  0
POLYLINE
  8
47
 66
1
 10
0.0000
 20
0.0000
 30
0.0000
 40
0.0650
 41
0.0650
 70
0
  0
VERTEX
  8
47
 10
32.3967
 20
-9.1177
 30
0.0000
 42
1.0000
  0
VERTEX
  8
47
 10
32.4033
 20
-9.1823
 30
0.0000
  0
SEQEND
  8
0
  0
POLYLINE
  8
47
 66
1
 10
0.0000
 20
0.0000
 30
0.0000
 40
0.1300
 41
0.1300
 70
0
  0
VERTEX
  8
47
 10
30.0650
 20
-8.8900
 30
0.0000
  0
VERTEX
  8
47
 10
32.6000
 20
-8.5708
 30
0.0000
  0
SEQEND
  8
0
  0
POLYLINE
  8
47
 66
1
 10
0.0000
 20
0.0000
 30
0.0000
 40
0.0650
 41
0.0650
 70
0
  0
VERTEX
  8
47
 10
32.6041
 20
-8.6030
 30
0.0000
 42
1.0000
  0
VERTEX
  8
47
 10
32.5959
 20
-8.5385
 30
0.0000
  0
SEQEND
  8
0
  0
POLYLINE
  8
47
 66
1
 10
0.0000
 20
0.0000
 30
0.0000
 40
0.0650
 41
0.0650
 70
0
  0
VERTEX
  8
47
 10
30.0609
 20
-8.8578
 30
0.0000
 42
1.0000
  0
VERTEX
  8
47
 10
30.0691
 20
-8.9222
 30
0.0000
  0
SEQEND
  8
0
  0
POLYLINE
  8
47
 66
1
 10
0.0000
 20
0.0000
 30
0.0000
 40
0.1300
 41
0.1300
 70
0
  0
VERTEX
  8
47
 10
32.6000
 20
-8.5708
 30
0.0000
  0
VERTEX
  8
47
 10
32.6000
 20
-9.2092
 30
0.0000
  0
SEQEND
  8
0
  0
POLYLINE
  8
47
 66
1
 10
0.0000
 20
0.0000
 30
0.0000
 40
0.0650
 41
0.0650
 70
0
  0
VERTEX
  8
47
 10
32.5675
 20
-9.2092
 30
0.0000
 42
1.0000
  0
VERTEX
  8
47
 10
32.6325
 20
-9.2092
 30
0.0000
  0
SEQEND
  8
0
  0
POLYLINE
  8
47
 66
1
 10
0.0000
 20
0.0000
 30
0.0000
 40
0.0650
 41
0.0650
 70
0
  0
VERTEX
  8
47
 10
32.6325
 20
-8.5708
 30
0.0000
 42
1.0000
  0
VERTEX
  8
47
 10
32.5675
 20
-8.5708
 30
0.0000
  0
SEQEND
  8
0
  0
POLYLINE
  8
47
 66
1
 10
0.0000
 20
0.0000
 30
0.0000
 40
0.1300
 41
0.1300
 70
0
  0
VERTEX
  8
47
 10
32.6000
 20
-9.2092
 30
0.0000
  0
VERTEX
  8
47
 10
30.0650
 20
-8.8900
 30
0.0000
  0
SEQEND
  8
0
  0
POLYLINE
  8
47
 66
1
 10
0.0000
 20
0.0000
 30
0.0000
 40
0.0650
 41
0.0650
 70
0
  0
VERTEX
  8
47
 10
30.0691
 20
-8.8578
 30
0.0000
 42
1.0000
  0
VERTEX
  8
47
 10
30.0609
 20
-8.9222
 30
0.0000
  0
SEQEND
  8
0
  0
POLYLINE
  8
47
 66
1
 10
0.0000
 20
0.0000
 30
0.0000
 40
0.0650
 41
0.0650
 70
0
  0
VERTEX
  8
47
 10
32.5959
 20
-9.2415
 30
0.0000
 42
1.0000
  0
VERTEX
  8
47
 10
32.6041
 20
-9.1770
 30
0.0000
  0
SEQEND
  8
0
  0
POLYLINE
  8
47
 66
1
 10
0.0000
 20
0.0000
 30
0.0000
 40
0.1300
 41
0.1300
 70
0
  0
VERTEX
  8
47
 10
30.0650
 20
-8.8900
 30
0.0000
  0
VERTEX
  8
47
 10
32.6000
 20
-8.7600
 30
0.0000
  0
SEQEND
  8
0
  0
POLYLINE
  8
47
 66
1
 10
0.0000
 20
0.0000
 30
0.0000
 40
0.0650
 41
0.0650
 70
0
  0
VERTEX
  8
47
 10
32.6017
 20
-8.7925
 30
0.0000
 42
1.0000
  0
VERTEX
  8
47
 10
32.5983
 20
-8.7275
 30
0.0000
  0
SEQEND
  8
0
  0
POLYLINE
  8
47
 66
1
 10
0.0000
 20
0.0000
 30
0.0000
 40
0.0650
 41
0.0650
 70
0
  0
VERTEX
  8
47
 10
30.0633
 20
-8.8575
 30
0.0000
 42
1.0000
  0
VERTEX
  8
47
 10
30.0667
 20
-8.9225
 30
0.0000
  0
SEQEND
  8
0
  0
POLYLINE
  8
47
 66
1
 10
0.0000
 20
0.0000
 30
0.0000
 40
0.1300
 41
0.1300
 70
0
  0
VERTEX
  8
47
 10
32.6000
 20
-9.0200
 30
0.0000
  0
VERTEX
  8
47
 10
30.0650
 20
-8.8900
 30
0.0000
  0
SEQEND
  8
0
  0
POLYLINE
  8
47
 66
1
 10
0.0000
 20
0.0000
 30
0.0000
 40
0.0650
 41
0.0650
 70
0
  0
VERTEX
  8
47
 10
30.0667
 20
-8.8575
 30
0.0000
 42
1.0000
  0
VERTEX
  8
47
 10
30.0633
 20
-8.9225
 30
0.0000
  0
SEQEND
  8
0
  0
POLYLINE
  8
47
 66
1
 10
0.0000
 20
0.0000
 30
0.0000
 40
0.0650
 41
0.0650
 70
0
  0
VERTEX
  8
47
 10
32.5983
 20
-9.0525
 30
0.0000
 42
1.0000
  0
VERTEX
  8
47
 10
32.6017
 20
-8.9875
 30
0.0000
  0
SEQEND
  8
0
  0
POLYLINE
  8
47
 66
1
 10
0.0000
 20
0.0000
 30
0.0000
 40
0.1300
 41
0.1300
 70
0
  0
VERTEX
  8
47
 10
30.0650
 20
-8.8900
 30
0.0000
  0
VERTEX
  8
47
 10
32.6000
 20
-8.6300
 30
0.0000
  0
SEQEND
  8
0
  0
POLYLINE
  8
47
 66
1
 10
0.0000
 20
0.0000
 30
0.0000
 40
0.0650
 41
0.0650
 70
0
  0
VERTEX
  8
47
 10
32.6033
 20
-8.6623
 30
0.0000
 42
1.0000
  0
VERTEX
  8
47
 10
32.5967
 20
-8.5977
 30
0.0000
  0
SEQEND
  8
0
  0
POLYLINE
  8
47
 66
1
 10
0.0000
 20
0.0000
 30
0.0000
 40
0.0650
 41
0.0650
 70
0
  0
VERTEX
  8
47
 10
30.0617
 20
-8.8577
 30
0.0000
 42
1.0000
  0
VERTEX
  8
47
 10
30.0683
 20
-8.9223
 30
0.0000
  0
SEQEND
  8
0
  0
POLYLINE
  8
47
 66
1
 10
0.0000
 20
0.0000
 30
0.0000
 40
0.1300
 41
0.1300
 70
0
  0
VERTEX
  8
47
 10
32.6000
 20
-9.1500
 30
0.0000
  0
VERTEX
  8
47
 10
30.0650
 20
-8.8900
 30
0.0000
  0
SEQEND
  8
0
  0
POLYLINE
  8
47
 66
1
 10
0.0000
 20
0.0000
 30
0.0000
 40
0.0650
 41
0.0650
 70
0
  0
VERTEX
  8
47
 10
30.0683
 20
-8.8577
 30
0.0000
 42
1.0000
  0
VERTEX
  8
47
 10
30.0617
 20
-8.9223
 30
0.0000
  0
SEQEND
  8
0
  0
POLYLINE
  8
47
 66
1
 10
0.0000
 20
0.0000
 30
0.0000
 40
0.0650
 41
0.0650
 70
0
  0
VERTEX
  8
47
 10
32.5967
 20
-9.1823
 30
0.0000
 42
1.0000
  0
VERTEX
  8
47
 10
32.6033
 20
-9.1177
 30
0.0000
  0
SEQEND
  8
0
  0
POLYLINE
  8
47
 66
1
 10
0.0000
 20
0.0000
 30
0.0000
 40
0.1524
 41
0.1524
 70
0
  0
VERTEX
  8
47
 10
32.9513
 20
-6.6123
 30
0.0000
  0
VERTEX
  8
47
 10
31.8666
 20
-6.6123
 30
0.0000
  0
SEQEND
  8
0
  0
POLYLINE
  8
47
 66
1
 10
0.0000
 20
0.0000
 30
0.0000
 40
0.0762
 41
0.0762
 70
0
  0
VERTEX
  8
47
 10
31.8666
 20
-6.5742
 30
0.0000
 42
1.0000
  0
VERTEX
  8
47
 10
31.8666
 20
-6.6504
 30
0.0000
  0
SEQEND
  8
0
  0
POLYLINE
  8
47
 66
1
 10
0.0000
 20
0.0000
 30
0.0000
 40
0.0762
 41
0.0762
 70
0
  0
VERTEX
  8
47
 10
32.9513
 20
-6.6504
 30
0.0000
 42
1.0000
  0
VERTEX
  8
47
 10
32.9513
 20
-6.5742
 30
0.0000
  0
SEQEND
  8
0
  0
POLYLINE
  8
47
 66
1
 10
0.0000
 20
0.0000
 30
0.0000
 40
0.1524
 41
0.1524
 70
0
  0
VERTEX
  8
47
 10
31.8666
 20
-6.6123
 30
0.0000
  0
VERTEX
  8
47
 10
31.8666
 20
-7.4258
 30
0.0000
  0
SEQEND
  8
0
  0
POLYLINE
  8
47
 66
1
 10
0.0000
 20
0.0000
 30
0.0000
 40
0.0762
 41
0.0762
 70
0
  0
VERTEX
  8
47
 10
31.8285
 20
-7.4258
 30
0.0000
 42
1.0000
  0
VERTEX
  8
47
 10
31.9047
 20
-7.4258
 30
0.0000
  0
SEQEND
  8
0
  0
POLYLINE
  8
47
 66
1
 10
0.0000
 20
0.0000
 30
0.0000
 40
0.0762
 41
0.0762
 70
0
  0
VERTEX
  8
47
 10
31.9047
 20
-6.6123
 30
0.0000
 42
1.0000
  0
VERTEX
  8
47
 10
31.8285
 20
-6.6123
 30
0.0000
  0
SEQEND
  8
0
  0
POLYLINE
  8
47
 66
1
 10
0.0000
 20
0.0000
 30
0.0000
 40
0.1524
 41
0.1524
 70
0
  0
VERTEX
  8
47
 10
31.8666
 20
-7.4258
 30
0.0000
  0
VERTEX
  8
47
 10
32.4089
 20
-7.1546
 30
0.0000
  0
SEQEND
  8
0
  0
POLYLINE
  8
47
 66
1
 10
0.0000
 20
0.0000
 30
0.0000
 40
0.0762
 41
0.0762
 70
0
  0
VERTEX
  8
47
 10
32.4260
 20
-7.1887
 30
0.0000
 42
1.0000
  0
VERTEX
  8
47
 10
32.3919
 20
-7.1206
 30
0.0000
  0
SEQEND
  8
0
  0
POLYLINE
  8
47
 66
1
 10
0.0000
 20
0.0000
 30
0.0000
 40
0.0762
 41
0.0762
 70
0
  0
VERTEX
  8
47
 10
31.8496
 20
-7.3917
 30
0.0000
 42
1.0000
  0
VERTEX
  8
47
 10
31.8836
 20
-7.4599
 30
0.0000
  0
SEQEND
  8
0
  0
POLYLINE
  8
47
 66
1
 10
0.0000
 20
0.0000
 30
0.0000
 40
0.1524
 41
0.1524
 70
0
  0
VERTEX
  8
47
 10
32.4089
 20
-7.1546
 30
0.0000
  0
VERTEX
  8
47
 10
32.6801
 20
-7.1546
 30
0.0000
  0
SEQEND
  8
0
  0
POLYLINE
  8
47
 66
1
 10
0.0000
 20
0.0000
 30
0.0000
 40
0.0762
 41
0.0762
 70
0
  0
VERTEX
  8
47
 10
32.6801
 20
-7.1927
 30
0.0000
 42
1.0000
  0
VERTEX
  8
47
 10
32.6801
 20
-7.1165
 30
0.0000
  0
SEQEND
  8
0
  0
POLYLINE
  8
47
 66
1
 10
0.0000
 20
0.0000
 30
0.0000
 40
0.0762
 41
0.0762
 70
0
  0
VERTEX
  8
47
 10
32.4089
 20
-7.1165
 30
0.0000
 42
1.0000
  0
VERTEX
  8
47
 10
32.4089
 20
-7.1927
 30
0.0000
  0
SEQEND
  8
0
  0
POLYLINE
  8
47
 66
1
 10
0.0000
 20
0.0000
 30
0.0000
 40
0.1524
 41
0.1524
 70
0
  0
VERTEX
  8
47
 10
32.6801
 20
-7.1546
 30
0.0000
  0
VERTEX
  8
47
 10
32.9513
 20
-7.4258
 30
0.0000
  0
SEQEND
  8
0
  0
POLYLINE
  8
47
 66
1
 10
0.0000
 20
0.0000
 30
0.0000
 40
0.0762
 41
0.0762
 70
0
  0
VERTEX
  8
47
 10
32.9243
 20
-7.4527
 30
0.0000
 42
1.0000
  0
VERTEX
  8
47
 10
32.9782
 20
-7.3989
 30
0.0000
  0
SEQEND
  8
0
  0
POLYLINE
  8
47
 66
1
 10
0.0000
 20
0.0000
 30
0.0000
 40
0.0762
 41
0.0762
 70
0
  0
VERTEX
  8
47
 10
32.7070
 20
-7.1277
 30
0.0000
 42
1.0000
  0
VERTEX
  8
47
 10
32.6531
 20
-7.1816
 30
0.0000
  0
SEQEND
  8
0
  0
POLYLINE
  8
47
 66
1
 10
0.0000
 20
0.0000
 30
0.0000
 40
0.1524
 41
0.1524
 70
0
  0
VERTEX
  8
47
 10
32.9513
 20
-7.4258
 30
0.0000
  0
VERTEX
  8
47
 10
32.9513
 20
-7.9681
 30
0.0000
  0
SEQEND
  8
0
  0
POLYLINE
  8
47
 66
1
 10
0.0000
 20
0.0000
 30
0.0000
 40
0.0762
 41
0.0762
 70
0
  0
VERTEX
  8
47
 10
32.9132
 20
-7.9681
 30
0.0000
 42
1.0000
  0
VERTEX
  8
47
 10
32.9894
 20
-7.9681
 30
0.0000
  0
SEQEND
  8
0
  0
POLYLINE
  8
47
 66
1
 10
0.0000
 20
0.0000
 30
0.0000
 40
0.0762
 41
0.0762
 70
0
  0
VERTEX
  8
47
 10
32.9894
 20
-7.4258
 30
0.0000
 42
1.0000
  0
VERTEX
  8
47
 10
32.9132
 20
-7.4258
 30
0.0000
  0
SEQEND
  8
0
  0
POLYLINE
  8
47
 66
1
 10
0.0000
 20
0.0000
 30
0.0000
 40
0.1524
 41
0.1524
 70
0
  0
VERTEX
  8
47
 10
32.9513
 20
-7.9681
 30
0.0000
  0
VERTEX
  8
47
 10
32.6801
 20
-8.2393
 30
0.0000
  0
SEQEND
  8
0
  0
POLYLINE
  8
47
 66
1
 10
0.0000
 20
0.0000
 30
0.0000
 40
0.0762
 41
0.0762
 70
0
  0
VERTEX
  8
47
 10
32.6531
 20
-8.2124
 30
0.0000
 42
1.0000
  0
VERTEX
  8
47
 10
32.7070
 20
-8.2662
 30
0.0000
  0
SEQEND
  8
0
  0
POLYLINE
  8
47
 66
1
 10
0.0000
 20
0.0000
 30
0.0000
 40
0.0762
 41
0.0762
 70
0
  0
VERTEX
  8
47
 10
32.9782
 20
-7.9951
 30
0.0000
 42
1.0000
  0
VERTEX
  8
47
 10
32.9243
 20
-7.9412
 30
0.0000
  0
SEQEND
  8
0
  0
POLYLINE
  8
47
 66
1
 10
0.0000
 20
0.0000
 30
0.0000
 40
0.1524
 41
0.1524
 70
0
  0
VERTEX
  8
47
 10
32.6801
 20
-8.2393
 30
0.0000
  0
VERTEX
  8
47
 10
32.1378
 20
-8.2393
 30
0.0000
  0
SEQEND
  8
0
  0
POLYLINE
  8
47
 66
1
 10
0.0000
 20
0.0000
 30
0.0000
 40
0.0762
 41
0.0762
 70
0
  0
VERTEX
  8
47
 10
32.1378
 20
-8.2012
 30
0.0000
 42
1.0000
  0
VERTEX
  8
47
 10
32.1378
 20
-8.2774
 30
0.0000
  0
SEQEND
  8
0
  0
POLYLINE
  8
47
 66
1
 10
0.0000
 20
0.0000
 30
0.0000
 40
0.0762
 41
0.0762
 70
0
  0
VERTEX
  8
47
 10
32.6801
 20
-8.2774
 30
0.0000
 42
1.0000
  0
VERTEX
  8
47
 10
32.6801
 20
-8.2012
 30
0.0000
  0
SEQEND
  8
0
  0
POLYLINE
  8
47
 66
1
 10
0.0000
 20
0.0000
 30
0.0000
 40
0.1524
 41
0.1524
 70
0
  0
VERTEX
  8
47
 10
32.1378
 20
-8.2393
 30
0.0000
  0
VERTEX
  8
47
 10
31.8666
 20
-7.9681
 30
0.0000
  0
SEQEND
  8
0
  0
POLYLINE
  8
47
 66
1
 10
0.0000
 20
0.0000
 30
0.0000
 40
0.0762
 41
0.0762
 70
0
  0
VERTEX
  8
47
 10
31.8935
 20
-7.9412
 30
0.0000
 42
1.0000
  0
VERTEX
  8
47
 10
31.8397
 20
-7.9951
 30
0.0000
  0
SEQEND
  8
0
  0
POLYLINE
  8
47
 66
1
 10
0.0000
 20
0.0000
 30
0.0000
 40
0.0762
 41
0.0762
 70
0
  0
VERTEX
  8
47
 10
32.1108
 20
-8.2662
 30
0.0000
 42
1.0000
  0
VERTEX
  8
47
 10
32.1647
 20
-8.2124
 30
0.0000
  0
SEQEND
  8
0
  0
POLYLINE
  8
47
 66
1
 10
0.0000
 20
0.0000
 30
0.0000
 40
0.1300
 41
0.1300
 70
0
  0
VERTEX
  8
47
 10
35.0000
 20
0.0000
 30
0.0000
  0
VERTEX
  8
47
 10
35.0000
 20
-10.8400
 30
0.0000
  0
SEQEND
  8
0
  0
POLYLINE
  8
47
 66
1
 10
0.0000
 20
0.0000
 30
0.0000
 40
0.0650
 41
0.0650
 70
0
  0
VERTEX
  8
47
 10
34.9675
 20
-10.8400
 30
0.0000
 42
1.0000
  0
VERTEX
  8
47
 10
35.0325
 20
-10.8400
 30
0.0000
  0
SEQEND
  8
0
  0
POLYLINE
  8
47
 66
1
 10
0.0000
 20
0.0000
 30
0.0000
 40
0.0650
 41
0.0650
 70
0
  0
VERTEX
  8
47
 10
35.0325
 20
0.0000
 30
0.0000
 42
1.0000
  0
VERTEX
  8
47
 10
34.9675
 20
0.0000
 30
0.0000
  0
SEQEND
  8
0
  0
POLYLINE
  8
47
 66
1
 10
0.0000
 20
0.0000
 30
0.0000
 40
0.1300
 41
0.1300
 70
0
  0
VERTEX
  8
47
 10
72.0000
 20
0.0000
 30
0.0000
  0
VERTEX
  8
47
 10
72.0000
 20
-10.8400
 30
0.0000
  0
SEQEND
  8
0
  0
POLYLINE
  8
47
 66
1
 10
0.0000
 20
0.0000
 30
0.0000
 40
0.0650
 41
0.0650
 70
0
  0
VERTEX
  8
47
 10
71.9675
 20
-10.8400
 30
0.0000
 42
1.0000
  0
VERTEX
  8
47
 10
72.0325
 20
-10.8400
 30
0.0000
  0
SEQEND
  8
0
  0
POLYLINE
  8
47
 66
1
 10
0.0000
 20
0.0000
 30
0.0000
 40
0.0650
 41
0.0650
 70
0
  0
VERTEX
  8
47
 10
72.0325
 20
0.0000
 30
0.0000
 42
1.0000
  0
VERTEX
  8
47
 10
71.9675
 20
0.0000
 30
0.0000
  0
SEQEND
  8
0
  0
POLYLINE
  8
47
 66
1
 10
0.0000
 20
0.0000
 30
0.0000
 40
0.1300
 41
0.1300
 70
0
  0
VERTEX
  8
47
 10
35.0650
 20
-8.8900
 30
0.0000
  0
VERTEX
  8
47
 10
71.9350
 20
-8.8900
 30
0.0000
  0
SEQEND
  8
0
  0
POLYLINE
  8
47
 66
1
 10
0.0000
 20
0.0000
 30
0.0000
 40
0.0650
 41
0.0650
 70
0
  0
VERTEX
  8
47
 10
71.9350
 20
-8.9225
 30
0.0000
 42
1.0000
  0
VERTEX
  8
47
 10
71.9350
 20
-8.8575
 30
0.0000
  0
SEQEND
  8
0
  0
POLYLINE
  8
47
 66
1
 10
0.0000
 20
0.0000
 30
0.0000
 40
0.0650
 41
0.0650
 70
0
  0
VERTEX
  8
47
 10
35.0650
 20
-8.8575
 30
0.0000
 42
1.0000
  0
VERTEX
  8
47
 10
35.0650
 20
-8.9225
 30
0.0000
  0
SEQEND
  8
0
  0
POLYLINE
  8
47
 66
1
 10
0.0000
 20
0.0000
 30
0.0000
 40
0.1300
 41
0.1300
 70
0
  0
VERTEX
  8
47
 10
35.0650
 20
-8.8900
 30
0.0000
  0
VERTEX
  8
47
 10
37.6000
 20
-8.5708
 30
0.0000
  0
SEQEND
  8
0
  0
POLYLINE
  8
47
 66
1
 10
0.0000
 20
0.0000
 30
0.0000
 40
0.0650
 41
0.0650
 70
0
  0
VERTEX
  8
47
 10
37.6041
 20
-8.6030
 30
0.0000
 42
1.0000
  0
VERTEX
  8
47
 10
37.5959
 20
-8.5385
 30
0.0000
  0
SEQEND
  8
0
  0
POLYLINE
  8
47
 66
1
 10
0.0000
 20
0.0000
 30
0.0000
 40
0.0650
 41
0.0650
 70
0
  0
VERTEX
  8
47
 10
35.0609
 20
-8.8578
 30
0.0000
 42
1.0000
  0
VERTEX
  8
47
 10
35.0691
 20
-8.9222
 30
0.0000
  0
SEQEND
  8
0
  0
POLYLINE
  8
47
 66
1
 10
0.0000
 20
0.0000
 30
0.0000
 40
0.1300
 41
0.1300
 70
0
  0
VERTEX
  8
47
 10
37.6000
 20
-8.5708
 30
0.0000
  0
VERTEX
  8
47
 10
37.6000
 20
-9.2092
 30
0.0000
  0
SEQEND
  8
0
  0
POLYLINE
  8
47
 66
1
 10
0.0000
 20
0.0000
 30
0.0000
 40
0.0650
 41
0.0650
 70
0
  0
VERTEX
  8
47
 10
37.5675
 20
-9.2092
 30
0.0000
 42
1.0000
  0
VERTEX
  8
47
 10
37.6325
 20
-9.2092
 30
0.0000
  0
SEQEND
  8
0
  0
POLYLINE
  8
47
 66
1
 10
0.0000
 20
0.0000
 30
0.0000
 40
0.0650
 41
0.0650
 70
0
  0
VERTEX
  8
47
 10
37.6325
 20
-8.5708
 30
0.0000
 42
1.0000
  0
VERTEX
  8
47
 10
37.5675
 20
-8.5708
 30
0.0000
  0
SEQEND
  8
0
  0
POLYLINE
  8
47
 66
1
 10
0.0000
 20
0.0000
 30
0.0000
 40
0.1300
 41
0.1300
 70
0
  0
VERTEX
  8
47
 10
37.6000
 20
-9.2092
 30
0.0000
  0
VERTEX
  8
47
 10
35.0650
 20
-8.8900
 30
0.0000
  0
SEQEND
  8
0
  0
POLYLINE
  8
47
 66
1
 10
0.0000
 20
0.0000
 30
0.0000
 40
0.0650
 41
0.0650
 70
0
  0
VERTEX
  8
47
 10
35.0691
 20
-8.8578
 30
0.0000
 42
1.0000
  0
VERTEX
  8
47
 10
35.0609
 20
-8.9222
 30
0.0000
  0
SEQEND
  8
0
  0
POLYLINE
  8
47
 66
1
 10
0.0000
 20
0.0000
 30
0.0000
 40
0.0650
 41
0.0650
 70
0
  0
VERTEX
  8
47
 10
37.5959
 20
-9.2415
 30
0.0000
 42
1.0000
  0
VERTEX
  8
47
 10
37.6041
 20
-9.1770
 30
0.0000
  0
SEQEND
  8
0
  0
POLYLINE
  8
47
 66
1
 10
0.0000
 20
0.0000
 30
0.0000
 40
0.1300
 41
0.1300
 70
0
  0
VERTEX
  8
47
 10
35.0650
 20
-8.8900
 30
0.0000
  0
VERTEX
  8
47
 10
37.6000
 20
-8.7600
 30
0.0000
  0
SEQEND
  8
0
  0
POLYLINE
  8
47
 66
1
 10
0.0000
 20
0.0000
 30
0.0000
 40
0.0650
 41
0.0650
 70
0
  0
VERTEX
  8
47
 10
37.6017
 20
-8.7925
 30
0.0000
 42
1.0000
  0
VERTEX
  8
47
 10
37.5983
 20
-8.7275
 30
0.0000
  0
SEQEND
  8
0
  0
POLYLINE
  8
47
 66
1
 10
0.0000
 20
0.0000
 30
0.0000
 40
0.0650
 41
0.0650
 70
0
  0
VERTEX
  8
47
 10
35.0633
 20
-8.8575
 30
0.0000
 42
1.0000
  0
VERTEX
  8
47
 10
35.0667
 20
-8.9225
 30
0.0000
  0
SEQEND
  8
0
  0
POLYLINE
  8
47
 66
1
 10
0.0000
 20
0.0000
 30
0.0000
 40
0.1300
 41
0.1300
 70
0
  0
VERTEX
  8
47
 10
37.6000
 20
-9.0200
 30
0.0000
  0
VERTEX
  8
47
 10
35.0650
 20
-8.8900
 30
0.0000
  0
SEQEND
  8
0
  0
POLYLINE
  8
47
 66
1
 10
0.0000
 20
0.0000
 30
0.0000
 40
0.0650
 41
0.0650
 70
0
  0
VERTEX
  8
47
 10
35.0667
 20
-8.8575
 30
0.0000
 42
1.0000
  0
VERTEX
  8
47
 10
35.0633
 20
-8.9225
 30
0.0000
  0
SEQEND
  8
0
  0
POLYLINE
  8
47
 66
1
 10
0.0000
 20
0.0000
 30
0.0000
 40
0.0650
 41
0.0650
 70
0
  0
VERTEX
  8
47
 10
37.5983
 20
-9.0525
 30
0.0000
 42
1.0000
  0
VERTEX
  8
47
 10
37.6017
 20
-8.9875
 30
0.0000
  0
SEQEND
  8
0
  0
POLYLINE
  8
47
 66
1
 10
0.0000
 20
0.0000
 30
0.0000
 40
0.1300
 41
0.1300
 70
0
  0
VERTEX
  8
47
 10
35.0650
 20
-8.8900
 30
0.0000
  0
VERTEX
  8
47
 10
37.6000
 20
-8.6300
 30
0.0000
  0
SEQEND
  8
0
  0
POLYLINE
  8
47
 66
1
 10
0.0000
 20
0.0000
 30
0.0000
 40
0.0650
 41
0.0650
 70
0
  0
VERTEX
  8
47
 10
37.6033
 20
-8.6623
 30
0.0000
 42
1.0000
  0
VERTEX
  8
47
 10
37.5967
 20
-8.5977
 30
0.0000
  0
SEQEND
  8
0
  0
POLYLINE
  8
47
 66
1
 10
0.0000
 20
0.0000
 30
0.0000
 40
0.0650
 41
0.0650
 70
0
  0
VERTEX
  8
47
 10
35.0617
 20
-8.8577
 30
0.0000
 42
1.0000
  0
VERTEX
  8
47
 10
35.0683
 20
-8.9223
 30
0.0000
  0
SEQEND
  8
0
  0
POLYLINE
  8
47
 66
1
 10
0.0000
 20
0.0000
 30
0.0000
 40
0.1300
 41
0.1300
 70
0
  0
VERTEX
  8
47
 10
37.6000
 20
-9.1500
 30
0.0000
  0
VERTEX
  8
47
 10
35.0650
 20
-8.8900
 30
0.0000
  0
SEQEND
  8
0
  0
POLYLINE
  8
47
 66
1
 10
0.0000
 20
0.0000
 30
0.0000
 40
0.0650
 41
0.0650
 70
0
  0
VERTEX
  8
47
 10
35.0683
 20
-8.8577
 30
0.0000
 42
1.0000
  0
VERTEX
  8
47
 10
35.0617
 20
-8.9223
 30
0.0000
  0
SEQEND
  8
0
  0
POLYLINE
  8
47
 66
1
 10
0.0000
 20
0.0000
 30
0.0000
 40
0.0650
 41
0.0650
 70
0
  0
VERTEX
  8
47
 10
37.5967
 20
-9.1823
 30
0.0000
 42
1.0000
  0
VERTEX
  8
47
 10
37.6033
 20
-9.1177
 30
0.0000
  0
SEQEND
  8
0
  0
POLYLINE
  8
47
 66
1
 10
0.0000
 20
0.0000
 30
0.0000
 40
0.1300
 41
0.1300
 70
0
  0
VERTEX
  8
47
 10
71.9350
 20
-8.8900
 30
0.0000
  0
VERTEX
  8
47
 10
69.4000
 20
-8.5708
 30
0.0000
  0
SEQEND
  8
0
  0
POLYLINE
  8
47
 66
1
 10
0.0000
 20
0.0000
 30
0.0000
 40
0.0650
 41
0.0650
 70
0
  0
VERTEX
  8
47
 10
69.4041
 20
-8.5385
 30
0.0000
 42
1.0000
  0
VERTEX
  8
47
 10
69.3959
 20
-8.6030
 30
0.0000
  0
SEQEND
  8
0
  0
POLYLINE
  8
47
 66
1
 10
0.0000
 20
0.0000
 30
0.0000
 40
0.0650
 41
0.0650
 70
0
  0
VERTEX
  8
47
 10
71.9309
 20
-8.9222
 30
0.0000
 42
1.0000
  0
VERTEX
  8
47
 10
71.9391
 20
-8.8578
 30
0.0000
  0
SEQEND
  8
0
  0
POLYLINE
  8
47
 66
1
 10
0.0000
 20
0.0000
 30
0.0000
 40
0.1300
 41
0.1300
 70
0
  0
VERTEX
  8
47
 10
69.4000
 20
-8.5708
 30
0.0000
  0
VERTEX
  8
47
 10
69.4000
 20
-9.2092
 30
0.0000
  0
SEQEND
  8
0
  0
POLYLINE
  8
47
 66
1
 10
0.0000
 20
0.0000
 30
0.0000
 40
0.0650
 41
0.0650
 70
0
  0
VERTEX
  8
47
 10
69.3675
 20
-9.2092
 30
0.0000
 42
1.0000
  0
VERTEX
  8
47
 10
69.4325
 20
-9.2092
 30
0.0000
  0
SEQEND
  8
0
  0
POLYLINE
  8
47
 66
1
 10
0.0000
 20
0.0000
 30
0.0000
 40
0.0650
 41
0.0650
 70
0
  0
VERTEX
  8
47
 10
69.4325
 20
-8.5708
 30
0.0000
 42
1.0000
  0
VERTEX
  8
47
 10
69.3675
 20
-8.5708
 30
0.0000
  0
SEQEND
  8
0
  0
POLYLINE
  8
47
 66
1
 10
0.0000
 20
0.0000
 30
0.0000
 40
0.1300
 41
0.1300
 70
0
  0
VERTEX
  8
47
 10
69.4000
 20
-9.2092
 30
0.0000
  0
VERTEX
  8
47
 10
71.9350
 20
-8.8900
 30
0.0000
  0
SEQEND
  8
0
  0
POLYLINE
  8
47
 66
1
 10
0.0000
 20
0.0000
 30
0.0000
 40
0.0650
 41
0.0650
 70
0
  0
VERTEX
  8
47
 10
71.9391
 20
-8.9222
 30
0.0000
 42
1.0000
  0
VERTEX
  8
47
 10
71.9309
 20
-8.8578
 30
0.0000
  0
SEQEND
  8
0
  0
POLYLINE
  8
47
 66
1
 10
0.0000
 20
0.0000
 30
0.0000
 40
0.0650
 41
0.0650
 70
0
  0
VERTEX
  8
47
 10
69.3959
 20
-9.1770
 30
0.0000
 42
1.0000
  0
VERTEX
  8
47
 10
69.4041
 20
-9.2415
 30
0.0000
  0
SEQEND
  8
0
  0
POLYLINE
  8
47
 66
1
 10
0.0000
 20
0.0000
 30
0.0000
 40
0.1300
 41
0.1300
 70
0
  0
VERTEX
  8
47
 10
71.9350
 20
-8.8900
 30
0.0000
  0
VERTEX
  8
47
 10
69.4000
 20
-8.7600
 30
0.0000
  0
SEQEND
  8
0
  0
POLYLINE
  8
47
 66
1
 10
0.0000
 20
0.0000
 30
0.0000
 40
0.0650
 41
0.0650
 70
0
  0
VERTEX
  8
47
 10
69.4017
 20
-8.7275
 30
0.0000
 42
1.0000
  0
VERTEX
  8
47
 10
69.3983
 20
-8.7925
 30
0.0000
  0
SEQEND
  8
0
  0
POLYLINE
  8
47
 66
1
 10
0.0000
 20
0.0000
 30
0.0000
 40
0.0650
 41
0.0650
 70
0
  0
VERTEX
  8
47
 10
71.9333
 20
-8.9225
 30
0.0000
 42
1.0000
  0
VERTEX
  8
47
 10
71.9367
 20
-8.8575
 30
0.0000
  0
SEQEND
  8
0
  0
POLYLINE
  8
47
 66
1
 10
0.0000
 20
0.0000
 30
0.0000
 40
0.1300
 41
0.1300
 70
0
  0
VERTEX
  8
47
 10
69.4000
 20
-9.0200
 30
0.0000
  0
VERTEX
  8
47
 10
71.9350
 20
-8.8900
 30
0.0000
  0
SEQEND
  8
0
  0
POLYLINE
  8
47
 66
1
 10
0.0000
 20
0.0000
 30
0.0000
 40
0.0650
 41
0.0650
 70
0
  0
VERTEX
  8
47
 10
71.9367
 20
-8.9225
 30
0.0000
 42
1.0000
  0
VERTEX
  8
47
 10
71.9333
 20
-8.8575
 30
0.0000
  0
SEQEND
  8
0
  0
POLYLINE
  8
47
 66
1
 10
0.0000
 20
0.0000
 30
0.0000
 40
0.0650
 41
0.0650
 70
0
  0
VERTEX
  8
47
 10
69.3983
 20
-8.9875
 30
0.0000
 42
1.0000
  0
VERTEX
  8
47
 10
69.4017
 20
-9.0525
 30
0.0000
  0
SEQEND
  8
0
  0
POLYLINE
  8
47
 66
1
 10
0.0000
 20
0.0000
 30
0.0000
 40
0.1300
 41
0.1300
 70
0
  0
VERTEX
  8
47
 10
71.9350
 20
-8.8900
 30
0.0000
  0
VERTEX
  8
47
 10
69.4000
 20
-8.6300
 30
0.0000
  0
SEQEND
  8
0
  0
POLYLINE
  8
47
 66
1
 10
0.0000
 20
0.0000
 30
0.0000
 40
0.0650
 41
0.0650
 70
0
  0
VERTEX
  8
47
 10
69.4033
 20
-8.5977
 30
0.0000
 42
1.0000
  0
VERTEX
  8
47
 10
69.3967
 20
-8.6623
 30
0.0000
  0
SEQEND
  8
0
  0
POLYLINE
  8
47
 66
1
 10
0.0000
 20
0.0000
 30
0.0000
 40
0.0650
 41
0.0650
 70
0
  0
VERTEX
  8
47
 10
71.9317
 20
-8.9223
 30
0.0000
 42
1.0000
  0
VERTEX
  8
47
 10
71.9383
 20
-8.8577
 30
0.0000
  0
SEQEND
  8
0
  0
POLYLINE
  8
47
 66
1
 10
0.0000
 20
0.0000
 30
0.0000
 40
0.1300
 41
0.1300
 70
0
  0
VERTEX
  8
47
 10
69.4000
 20
-9.1500
 30
0.0000
  0
VERTEX
  8
47
 10
71.9350
 20
-8.8900
 30
0.0000
  0
SEQEND
  8
0
  0
POLYLINE
  8
47
 66
1
 10
0.0000
 20
0.0000
 30
0.0000
 40
0.0650
 41
0.0650
 70
0
  0
VERTEX
  8
47
 10
71.9383
 20
-8.9223
 30
0.0000
 42
1.0000
  0
VERTEX
  8
47
 10
71.9317
 20
-8.8577
 30
0.0000
  0
SEQEND
  8
0
  0
POLYLINE
  8
47
 66
1
 10
0.0000
 20
0.0000
 30
0.0000
 40
0.0650
 41
0.0650
 70
0
  0
VERTEX
  8
47
 10
69.3967
 20
-9.1177
 30
0.0000
 42
1.0000
  0
VERTEX
  8
47
 10
69.4033
 20
-9.1823
 30
0.0000
  0
SEQEND
  8
0
  0
POLYLINE
  8
47
 66
1
 10
0.0000
 20
0.0000
 30
0.0000
 40
0.1524
 41
0.1524
 70
0
  0
VERTEX
  8
47
 10
52.1570
 20
-6.8835
 30
0.0000
  0
VERTEX
  8
47
 10
52.4282
 20
-6.6123
 30
0.0000
  0
SEQEND
  8
0
  0
POLYLINE
  8
47
 66
1
 10
0.0000
 20
0.0000
 30
0.0000
 40
0.0762
 41
0.0762
 70
0
  0
VERTEX
  8
47
 10
52.4551
 20
-6.6393
 30
0.0000
 42
1.0000
  0
VERTEX
  8
47
 10
52.4012
 20
-6.5854
 30
0.0000
  0
SEQEND
  8
0
  0
POLYLINE
  8
47
 66
1
 10
0.0000
 20
0.0000
 30
0.0000
 40
0.0762
 41
0.0762
 70
0
  0
VERTEX
  8
47
 10
52.1300
 20
-6.8565
 30
0.0000
 42
1.0000
  0
VERTEX
  8
47
 10
52.1839
 20
-6.9104
 30
0.0000
  0
SEQEND
  8
0
  0
POLYLINE
  8
47
 66
1
 10
0.0000
 20
0.0000
 30
0.0000
 40
0.1524
 41
0.1524
 70
0
  0
VERTEX
  8
47
 10
52.4282
 20
-6.6123
 30
0.0000
  0
VERTEX
  8
47
 10
52.9705
 20
-6.6123
 30
0.0000
  0
SEQEND
  8
0
  0
POLYLINE
  8
47
 66
1
 10
0.0000
 20
0.0000
 30
0.0000
 40
0.0762
 41
0.0762
 70
0
  0
VERTEX
  8
47
 10
52.9705
 20
-6.6504
 30
0.0000
 42
1.0000
  0
VERTEX
  8
47
 10
52.9705
 20
-6.5742
 30
0.0000
  0
SEQEND
  8
0
  0
POLYLINE
  8
47
 66
1
 10
0.0000
 20
0.0000
 30
0.0000
 40
0.0762
 41
0.0762
 70
0
  0
VERTEX
  8
47
 10
52.4282
 20
-6.5742
 30
0.0000
 42
1.0000
  0
VERTEX
  8
47
 10
52.4282
 20
-6.6504
 30
0.0000
  0
SEQEND
  8
0
  0
POLYLINE
  8
47
 66
1
 10
0.0000
 20
0.0000
 30
0.0000
 40
0.1524
 41
0.1524
 70
0
  0
VERTEX
  8
47
 10
52.9705
 20
-6.6123
 30
0.0000
  0
VERTEX
  8
47
 10
53.2416
 20
-6.8835
 30
0.0000
  0
SEQEND
  8
0
  0
POLYLINE
  8
47
 66
1
 10
0.0000
 20
0.0000
 30
0.0000
 40
0.0762
 41
0.0762
 70
0
  0
VERTEX
  8
47
 10
53.2147
 20
-6.9104
 30
0.0000
 42
1.0000
  0
VERTEX
  8
47
 10
53.2686
 20
-6.8565
 30
0.0000
  0
SEQEND
  8
0
  0
POLYLINE
  8
47
 66
1
 10
0.0000
 20
0.0000
 30
0.0000
 40
0.0762
 41
0.0762
 70
0
  0
VERTEX
  8
47
 10
52.9974
 20
-6.5854
 30
0.0000
 42
1.0000
  0
VERTEX
  8
47
 10
52.9435
 20
-6.6393
 30
0.0000
  0
SEQEND
  8
0
  0
POLYLINE
  8
47
 66
1
 10
0.0000
 20
0.0000
 30
0.0000
 40
0.1524
 41
0.1524
 70
0
  0
VERTEX
  8
47
 10
53.2416
 20
-6.8835
 30
0.0000
  0
VERTEX
  8
47
 10
53.2416
 20
-7.1546
 30
0.0000
  0
SEQEND
  8
0
  0
POLYLINE
  8
47
 66
1
 10
0.0000
 20
0.0000
 30
0.0000
 40
0.0762
 41
0.0762
 70
0
  0
VERTEX
  8
47
 10
53.2035
 20
-7.1546
 30
0.0000
 42
1.0000
  0
VERTEX
  8
47
 10
53.2797
 20
-7.1546
 30
0.0000
  0
SEQEND
  8
0
  0
POLYLINE
  8
47
 66
1
 10
0.0000
 20
0.0000
 30
0.0000
 40
0.0762
 41
0.0762
 70
0
  0
VERTEX
  8
47
 10
53.2797
 20
-6.8835
 30
0.0000
 42
1.0000
  0
VERTEX
  8
47
 10
53.2035
 20
-6.8835
 30
0.0000
  0
SEQEND
  8
0
  0
POLYLINE
  8
47
 66
1
 10
0.0000
 20
0.0000
 30
0.0000
 40
0.1524
 41
0.1524
 70
0
  0
VERTEX
  8
47
 10
53.2416
 20
-7.1546
 30
0.0000
  0
VERTEX
  8
47
 10
52.9705
 20
-7.4258
 30
0.0000
  0
SEQEND
  8
0
  0
POLYLINE
  8
47
 66
1
 10
0.0000
 20
0.0000
 30
0.0000
 40
0.0762
 41
0.0762
 70
0
  0
VERTEX
  8
47
 10
52.9435
 20
-7.3989
 30
0.0000
 42
1.0000
  0
VERTEX
  8
47
 10
52.9974
 20
-7.4527
 30
0.0000
  0
SEQEND
  8
0
  0
POLYLINE
  8
47
 66
1
 10
0.0000
 20
0.0000
 30
0.0000
 40
0.0762
 41
0.0762
 70
0
  0
VERTEX
  8
47
 10
53.2686
 20
-7.1816
 30
0.0000
 42
1.0000
  0
VERTEX
  8
47
 10
53.2147
 20
-7.1277
 30
0.0000
  0
SEQEND
  8
0
  0
POLYLINE
  8
47
 66
1
 10
0.0000
 20
0.0000
 30
0.0000
 40
0.1524
 41
0.1524
 70
0
  0
VERTEX
  8
47
 10
52.9705
 20
-7.4258
 30
0.0000
  0
VERTEX
  8
47
 10
52.6993
 20
-7.4258
 30
0.0000
  0
SEQEND
  8
0
  0
POLYLINE
  8
47
 66
1
 10
0.0000
 20
0.0000
 30
0.0000
 40
0.0762
 41
0.0762
 70
0
  0
VERTEX
  8
47
 10
52.6993
 20
-7.3877
 30
0.0000
 42
1.0000
  0
VERTEX
  8
47
 10
52.6993
 20
-7.4639
 30
0.0000
  0
SEQEND
  8
0
  0
POLYLINE
  8
47
 66
1
 10
0.0000
 20
0.0000
 30
0.0000
 40
0.0762
 41
0.0762
 70
0
  0
VERTEX
  8
47
 10
52.9705
 20
-7.4639
 30
0.0000
 42
1.0000
  0
VERTEX
  8
47
 10
52.9705
 20
-7.3877
 30
0.0000
  0
SEQEND
  8
0
  0
POLYLINE
  8
47
 66
1
 10
0.0000
 20
0.0000
 30
0.0000
 40
0.1524
 41
0.1524
 70
0
  0
VERTEX
  8
47
 10
52.9705
 20
-7.4258
 30
0.0000
  0
VERTEX
  8
47
 10
53.2416
 20
-7.6970
 30
0.0000
  0
SEQEND
  8
0
  0
POLYLINE
  8
47
 66
1
 10
0.0000
 20
0.0000
 30
0.0000
 40
0.0762
 41
0.0762
 70
0
  0
VERTEX
  8
47
 10
53.2147
 20
-7.7239
 30
0.0000
 42
1.0000
  0
VERTEX
  8
47
 10
53.2686
 20
-7.6700
 30
0.0000
  0
SEQEND
  8
0
  0
POLYLINE
  8
47
 66
1
 10
0.0000
 20
0.0000
 30
0.0000
 40
0.0762
 41
0.0762
 70
0
  0
VERTEX
  8
47
 10
52.9974
 20
-7.3989
 30
0.0000
 42
1.0000
  0
VERTEX
  8
47
 10
52.9435
 20
-7.4527
 30
0.0000
  0
SEQEND
  8
0
  0
POLYLINE
  8
47
 66
1
 10
0.0000
 20
0.0000
 30
0.0000
 40
0.1524
 41
0.1524
 70
0
  0
VERTEX
  8
47
 10
53.2416
 20
-7.6970
 30
0.0000
  0
VERTEX
  8
47
 10
53.2416
 20
-7.9681
 30
0.0000
  0
SEQEND
  8
0
  0
POLYLINE
  8
47
 66
1
 10
0.0000
 20
0.0000
 30
0.0000
 40
0.0762
 41
0.0762
 70
0
  0
VERTEX
  8
47
 10
53.2035
 20
-7.9681
 30
0.0000
 42
1.0000
  0
VERTEX
  8
47
 10
53.2797
 20
-7.9681
 30
0.0000
  0
SEQEND
  8
0
  0
POLYLINE
  8
47
 66
1
 10
0.0000
 20
0.0000
 30
0.0000
 40
0.0762
 41
0.0762
 70
0
  0
VERTEX
  8
47
 10
53.2797
 20
-7.6970
 30
0.0000
 42
1.0000
  0
VERTEX
  8
47
 10
53.2035
 20
-7.6970
 30
0.0000
  0
SEQEND
  8
0
  0
POLYLINE
  8
47
 66
1
 10
0.0000
 20
0.0000
 30
0.0000
 40
0.1524
 41
0.1524
 70
0
  0
VERTEX
  8
47
 10
53.2416
 20
-7.9681
 30
0.0000
  0
VERTEX
  8
47
 10
52.9705
 20
-8.2393
 30
0.0000
  0
SEQEND
  8
0
  0
POLYLINE
  8
47
 66
1
 10
0.0000
 20
0.0000
 30
0.0000
 40
0.0762
 41
0.0762
 70
0
  0
VERTEX
  8
47
 10
52.9435
 20
-8.2124
 30
0.0000
 42
1.0000
  0
VERTEX
  8
47
 10
52.9974
 20
-8.2662
 30
0.0000
  0
SEQEND
  8
0
  0
POLYLINE
  8
47
 66
1
 10
0.0000
 20
0.0000
 30
0.0000
 40
0.0762
 41
0.0762
 70
0
  0
VERTEX
  8
47
 10
53.2686
 20
-7.9951
 30
0.0000
 42
1.0000
  0
VERTEX
  8
47
 10
53.2147
 20
-7.9412
 30
0.0000
  0
SEQEND
  8
0
  0
POLYLINE
  8
47
 66
1
 10
0.0000
 20
0.0000
 30
0.0000
 40
0.1524
 41
0.1524
 70
0
  0
VERTEX
  8
47
 10
52.9705
 20
-8.2393
 30
0.0000
  0
VERTEX
  8
47
 10
52.4282
 20
-8.2393
 30
0.0000
  0
SEQEND
  8
0
  0
POLYLINE
  8
47
 66
1
 10
0.0000
 20
0.0000
 30
0.0000
 40
0.0762
 41
0.0762
 70
0
  0
VERTEX
  8
47
 10
52.4282
 20
-8.2012
 30
0.0000
 42
1.0000
  0
VERTEX
  8
47
 10
52.4282
 20
-8.2774
 30
0.0000
  0
SEQEND
  8
0
  0
POLYLINE
  8
47
 66
1
 10
0.0000
 20
0.0000
 30
0.0000
 40
0.0762
 41
0.0762
 70
0
  0
VERTEX
  8
47
 10
52.9705
 20
-8.2774
 30
0.0000
 42
1.0000
  0
VERTEX
  8
47
 10
52.9705
 20
-8.2012
 30
0.0000
  0
SEQEND
  8
0
  0
POLYLINE
  8
47
 66
1
 10
0.0000
 20
0.0000
 30
0.0000
 40
0.1524
 41
0.1524
 70
0
  0
VERTEX
  8
47
 10
52.4282
 20
-8.2393
 30
0.0000
  0
VERTEX
  8
47
 10
52.1570
 20
-7.9681
 30
0.0000
  0
SEQEND
  8
0
  0
POLYLINE
  8
47
 66
1
 10
0.0000
 20
0.0000
 30
0.0000
 40
0.0762
 41
0.0762
 70
0
  0
VERTEX
  8
47
 10
52.1839
 20
-7.9412
 30
0.0000
 42
1.0000
  0
VERTEX
  8
47
 10
52.1300
 20
-7.9951
 30
0.0000
  0
SEQEND
  8
0
  0
POLYLINE
  8
47
 66
1
 10
0.0000
 20
0.0000
 30
0.0000
 40
0.0762
 41
0.0762
 70
0
  0
VERTEX
  8
47
 10
52.4012
 20
-8.2662
 30
0.0000
 42
1.0000
  0
VERTEX
  8
47
 10
52.4551
 20
-8.2124
 30
0.0000
  0
SEQEND
  8
0
  0
POLYLINE
  8
47
 66
1
 10
0.0000
 20
0.0000
 30
0.0000
 40
0.1524
 41
0.1524
 70
0
  0
VERTEX
  8
47
 10
53.7941
 20
-6.6123
 30
0.0000
  0
VERTEX
  8
47
 10
54.8788
 20
-6.6123
 30
0.0000
  0
SEQEND
  8
0
  0
POLYLINE
  8
47
 66
1
 10
0.0000
 20
0.0000
 30
0.0000
 40
0.0762
 41
0.0762
 70
0
  0
VERTEX
  8
47
 10
54.8788
 20
-6.6504
 30
0.0000
 42
1.0000
  0
VERTEX
  8
47
 10
54.8788
 20
-6.5742
 30
0.0000
  0
SEQEND
  8
0
  0
POLYLINE
  8
47
 66
1
 10
0.0000
 20
0.0000
 30
0.0000
 40
0.0762
 41
0.0762
 70
0
  0
VERTEX
  8
47
 10
53.7941
 20
-6.5742
 30
0.0000
 42
1.0000
  0
VERTEX
  8
47
 10
53.7941
 20
-6.6504
 30
0.0000
  0
SEQEND
  8
0
  0
POLYLINE
  8
47
 66
1
 10
0.0000
 20
0.0000
 30
0.0000
 40
0.1524
 41
0.1524
 70
0
  0
VERTEX
  8
47
 10
54.8788
 20
-6.6123
 30
0.0000
  0
VERTEX
  8
47
 10
54.8788
 20
-6.8835
 30
0.0000
  0
SEQEND
  8
0
  0
POLYLINE
  8
47
 66
1
 10
0.0000
 20
0.0000
 30
0.0000
 40
0.0762
 41
0.0762
 70
0
  0
VERTEX
  8
47
 10
54.8407
 20
-6.8835
 30
0.0000
 42
1.0000
  0
VERTEX
  8
47
 10
54.9169
 20
-6.8835
 30
0.0000
  0
SEQEND
  8
0
  0
POLYLINE
  8
47
 66
1
 10
0.0000
 20
0.0000
 30
0.0000
 40
0.0762
 41
0.0762
 70
0
  0
VERTEX
  8
47
 10
54.9169
 20
-6.6123
 30
0.0000
 42
1.0000
  0
VERTEX
  8
47
 10
54.8407
 20
-6.6123
 30
0.0000
  0
SEQEND
  8
0
  0
POLYLINE
  8
47
 66
1
 10
0.0000
 20
0.0000
 30
0.0000
 40
0.1524
 41
0.1524
 70
0
  0
VERTEX
  8
47
 10
54.8788
 20
-6.8835
 30
0.0000
  0
VERTEX
  8
47
 10
53.7941
 20
-7.9681
 30
0.0000
  0
SEQEND
  8
0
  0
POLYLINE
  8
47
 66
1
 10
0.0000
 20
0.0000
 30
0.0000
 40
0.0762
 41
0.0762
 70
0
  0
VERTEX
  8
47
 10
53.7672
 20
-7.9412
 30
0.0000
 42
1.0000
  0
VERTEX
  8
47
 10
53.8211
 20
-7.9951
 30
0.0000
  0
SEQEND
  8
0
  0
POLYLINE
  8
47
 66
1
 10
0.0000
 20
0.0000
 30
0.0000
 40
0.0762
 41
0.0762
 70
0
  0
VERTEX
  8
47
 10
54.9057
 20
-6.9104
 30
0.0000
 42
1.0000
  0
VERTEX
  8
47
 10
54.8519
 20
-6.8565
 30
0.0000
  0
SEQEND
  8
0
  0
POLYLINE
  8
47
 66
1
 10
0.0000
 20
0.0000
 30
0.0000
 40
0.1524
 41
0.1524
 70
0
  0
VERTEX
  8
47
 10
53.7941
 20
-7.9681
 30
0.0000
  0
VERTEX
  8
47
 10
53.7941
 20
-8.2393
 30
0.0000
  0
SEQEND
  8
0
  0
POLYLINE
  8
47
 66
1
 10
0.0000
 20
0.0000
 30
0.0000
 40
0.0762
 41
0.0762
 70
0
  0
VERTEX
  8
47
 10
53.7560
 20
-8.2393
 30
0.0000
 42
1.0000
  0
VERTEX
  8
47
 10
53.8322
 20
-8.2393
 30
0.0000
  0
SEQEND
  8
0
  0
POLYLINE
  8
47
 66
1
 10
0.0000
 20
0.0000
 30
0.0000
 40
0.0762
 41
0.0762
 70
0
  0
VERTEX
  8
47
 10
53.8322
 20
-7.9681
 30
0.0000
 42
1.0000
  0
VERTEX
  8
47
 10
53.7560
 20
-7.9681
 30
0.0000
  0
SEQEND
  8
0
  0
CIRCLE
  8
20
 10
25.0000
 20
2.0000
 30
0.0000
 40
0.6000
  0
POLYLINE
  8
29
 66
1
 10
0.0000
 20
0.0000
 30
0.0000
 40
0.7016
 41
0.7016
 70
0
  0
VERTEX
  8
29
 10
25.0000
 20
1.6492
 30
0.0000
 42
1.0000
  0
VERTEX
  8
29
 10
25.0000
 20
2.3508
 30
0.0000
 42
1.0000
  0
VERTEX
  8
29
 10
25.0000
 20
1.6492
 30
0.0000
  0
SEQEND
  8
0
  0
POLYLINE
  8
30
 66
1
 10
0.0000
 20
0.0000
 30
0.0000
 40
0.7016
 41
0.7016
 70
0
  0
VERTEX
  8
30
 10
25.0000
 20
1.6492
 30
0.0000
 42
1.0000
  0
VERTEX
  8
30
 10
25.0000
 20
2.3508
 30
0.0000
 42
1.0000
  0
VERTEX
  8
30
 10
25.0000
 20
1.6492
 30
0.0000
  0
SEQEND
  8
0
  0
CIRCLE
  8
20
 10
25.0000
 20
-2.0000
 30
0.0000
 40
0.6000
  0
POLYLINE
  8
29
 66
1
 10
0.0000
 20
0.0000
 30
0.0000
 40
0.7016
 41
0.7016
 70
0
  0
VERTEX
  8
29
 10
25.0000
 20
-2.3508
 30
0.0000
 42
1.0000
  0
VERTEX
  8
29
 10
25.0000
 20
-1.6492
 30
0.0000
 42
1.0000
  0
VERTEX
  8
29
 10
25.0000
 20
-2.3508
 30
0.0000
  0
SEQEND
  8
0
  0
POLYLINE
  8
30
 66
1
 10
0.0000
 20
0.0000
 30
0.0000
 40
0.7016
 41
0.7016
 70
0
  0
VERTEX
  8
30
 10
25.0000
 20
-2.3508
 30
0.0000
 42
1.0000
  0
VERTEX
  8
30
 10
25.0000
 20
-1.6492
 30
0.0000
 42
1.0000
  0
VERTEX
  8
30
 10
25.0000
 20
-2.3508
 30
0.0000
  0
SEQEND
  8
0
  0
POLYLINE
  8
1
 66
1
 10
0.0000
 20
0.0000
 30
0.0000
 40
0.1500
 41
0.1500
 70
0
  0
VERTEX
  8
1
 10
19.0600
 20
-2.5400
 30
0.0000
  0
VERTEX
  8
1
 10
20.8000
 20
-0.8000
 30
0.0000
  0
SEQEND
  8
0
  0
POLYLINE
  8
1
 66
1
 10
0.0000
 20
0.0000
 30
0.0000
 40
0.0750
 41
0.0750
 70
0
  0
VERTEX
  8
1
 10
20.8265
 20
-0.8265
 30
0.0000
 42
1.0000
  0
VERTEX
  8
1
 10
20.7735
 20
-0.7735
 30
0.0000
  0
SEQEND
  8
0
  0
POLYLINE
  8
1
 66
1
 10
0.0000
 20
0.0000
 30
0.0000
 40
0.0750
 41
0.0750
 70
0
  0
VERTEX
  8
1
 10
19.0335
 20
-2.5135
 30
0.0000
 42
1.0000
  0
VERTEX
  8
1
 10
19.0865
 20
-2.5665
 30
0.0000
  0
SEQEND
  8
0
  0
POLYLINE
  8
1
 66
1
 10
0.0000
 20
0.0000
 30
0.0000
 40
0.1500
 41
0.1500
 70
0
  0
VERTEX
  8
1
 10
20.8000
 20
-0.8000
 30
0.0000
  0
VERTEX
  8
1
 10
65.8000
 20
-0.8000
 30
0.0000
  0
SEQEND
  8
0
  0
POLYLINE
  8
1
 66
1
 10
0.0000
 20
0.0000
 30
0.0000
 40
0.0750
 41
0.0750
 70
0
  0
VERTEX
  8
1
 10
65.8000
 20
-0.8375
 30
0.0000
 42
1.0000
  0
VERTEX
  8
1
 10
65.8000
 20
-0.7625
 30
0.0000
  0
SEQEND
  8
0
  0
POLYLINE
  8
1
 66
1
 10
0.0000
 20
0.0000
 30
0.0000
 40
0.0750
 41
0.0750
 70
0
  0
VERTEX
  8
1
 10
20.8000
 20
-0.7625
 30
0.0000
 42
1.0000
  0
VERTEX
  8
1
 10
20.8000
 20
-0.8375
 30
0.0000
  0
SEQEND
  8
0
  0
POLYLINE
  8
1
 66
1
 10
0.0000
 20
0.0000
 30
0.0000
 40
0.1500
 41
0.1500
 70
0
  0
VERTEX
  8
1
 10
65.8000
 20
-0.8000
 30
0.0000
  0
VERTEX
  8
1
 10
66.6000
 20
-1.6000
 30
0.0000
  0
SEQEND
  8
0
  0
POLYLINE
  8
1
 66
1
 10
0.0000
 20
0.0000
 30
0.0000
 40
0.0750
 41
0.0750
 70
0
  0
VERTEX
  8
1
 10
66.5735
 20
-1.6265
 30
0.0000
 42
1.0000
  0
VERTEX
  8
1
 10
66.6265
 20
-1.5735
 30
0.0000
  0
SEQEND
  8
0
  0
POLYLINE
  8
1
 66
1
 10
0.0000
 20
0.0000
 30
0.0000
 40
0.0750
 41
0.0750
 70
0
  0
VERTEX
  8
1
 10
65.8265
 20
-0.7735
 30
0.0000
 42
1.0000
  0
VERTEX
  8
1
 10
65.7735
 20
-0.8265
 30
0.0000
  0
SEQEND
  8
0
  0
POLYLINE
  8
1
 66
1
 10
0.0000
 20
0.0000
 30
0.0000
 40
0.1500
 41
0.1500
 70
0
  0
VERTEX
  8
1
 10
66.6000
 20
-1.6000
 30
0.0000
  0
VERTEX
  8
1
 10
75.6000
 20
-1.6000
 30
0.0000
  0
SEQEND
  8
0
  0
POLYLINE
  8
1
 66
1
 10
0.0000
 20
0.0000
 30
0.0000
 40
0.0750
 41
0.0750
 70
0
  0
VERTEX
  8
1
 10
75.6000
 20
-1.6375
 30
0.0000
 42
1.0000
  0
VERTEX
  8
1
 10
75.6000
 20
-1.5625
 30
0.0000
  0
SEQEND
  8
0
  0
POLYLINE
  8
1
 66
1
 10
0.0000
 20
0.0000
 30
0.0000
 40
0.0750
 41
0.0750
 70
0
  0
VERTEX
  8
1
 10
66.6000
 20
-1.5625
 30
0.0000
 42
1.0000
  0
VERTEX
  8
1
 10
66.6000
 20
-1.6375
 30
0.0000
  0
SEQEND
  8
0
  0
POLYLINE
  8
1
 66
1
 10
0.0000
 20
0.0000
 30
0.0000
 40
0.1500
 41
0.1500
 70
0
  0
VERTEX
  8
1
 10
75.6000
 20
-1.6000
 30
0.0000
  0
VERTEX
  8
1
 10
75.6000
 20
1.2000
 30
0.0000
  0
SEQEND
  8
0
  0
POLYLINE
  8
1
 66
1
 10
0.0000
 20
0.0000
 30
0.0000
 40
0.0750
 41
0.0750
 70
0
  0
VERTEX
  8
1
 10
75.6375
 20
1.2000
 30
0.0000
 42
1.0000
  0
VERTEX
  8
1
 10
75.5625
 20
1.2000
 30
0.0000
  0
SEQEND
  8
0
  0
POLYLINE
  8
1
 66
1
 10
0.0000
 20
0.0000
 30
0.0000
 40
0.0750
 41
0.0750
 70
0
  0
VERTEX
  8
1
 10
75.5625
 20
-1.6000
 30
0.0000
 42
1.0000
  0
VERTEX
  8
1
 10
75.6375
 20
-1.6000
 30
0.0000
  0
SEQEND
  8
0
  0
POLYLINE
  8
1
 66
1
 10
0.0000
 20
0.0000
 30
0.0000
 40
0.1500
 41
0.1500
 70
0
  0
VERTEX
  8
1
 10
12.7000
 20
0.0000
 30
0.0000
  0
VERTEX
  8
1
 10
75.2000
 20
0.0000
 30
0.0000
  0
SEQEND
  8
0
  0
POLYLINE
  8
1
 66
1
 10
0.0000
 20
0.0000
 30
0.0000
 40
0.0750
 41
0.0750
 70
0
  0
VERTEX
  8
1
 10
75.2000
 20
-0.0375
 30
0.0000
 42
1.0000
  0
VERTEX
  8
1
 10
75.2000
 20
0.0375
 30
0.0000
  0
SEQEND
  8
0
  0
POLYLINE
  8
1
 66
1
 10
0.0000
 20
0.0000
 30
0.0000
 40
0.0750
 41
0.0750
 70
0
  0
VERTEX
  8
1
 10
12.7000
 20
0.0375
 30
0.0000
 42
1.0000
  0
VERTEX
  8
1
 10
12.7000
 20
-0.0375
 30
0.0000
  0
SEQEND
  8
0
  0
INSERT
  8
18
  2
SQUAREV
 10
12.7000
 20
0.0000
 30
0.0000
 41
1.0064
 42
1.0064
 43
1.0000
 50
0.0000
  0
INSERT
  8
18
  2
SQUAREV
 10
12.7000
 20
0.0000
 30
0.0000
 41
1.0064
 42
1.0064
 43
1.0000
 50
0.0000
  0
INSERT
  8
29
  2
SQUAREV
 10
12.7000
 20
0.0000
 30
0.0000
 41
1.2096
 42
1.2096
 43
1.0000
 50
0.0000
  0
INSERT
  8
30
  2
SQUAREV
 10
12.7000
 20
0.0000
 30
0.0000
 41
1.2096
 42
1.2096
 43
1.0000
 50
0.0000
  0
CIRCLE
  8
44
 10
12.7000
 20
0.0000
 30
0.0000
 40
0.3000
  0
POLYLINE
  8
1
 66
1
 10
0.0000
 20
0.0000
 30
0.0000
 40
0.1500
 41
0.1500
 70
0
  0
VERTEX
  8
1
 10
19.0500
 20
-2.5400
 30
0.0000
  0
VERTEX
  8
1
 10
12.7000
 20
-2.5400
 30
0.0000
  0
SEQEND
  8
0
  0
POLYLINE
  8
1
 66
1
 10
0.0000
 20
0.0000
 30
0.0000
 40
0.0750
 41
0.0750
 70
0
  0
VERTEX
  8
1
 10
12.7000
 20
-2.5025
 30
0.0000
 42
1.0000
  0
VERTEX
  8
1
 10
12.7000
 20
-2.5775
 30
0.0000
  0
SEQEND
  8
0
  0
POLYLINE
  8
1
 66
1
 10
0.0000
 20
0.0000
 30
0.0000
 40
0.0750
 41
0.0750
 70
0
  0
VERTEX
  8
1
 10
19.0500
 20
-2.5775
 30
0.0000
 42
1.0000
  0
VERTEX
  8
1
 10
19.0500
 20
-2.5025
 30
0.0000
  0
SEQEND
  8
0
  0
POLYLINE
  8
1
 66
1
 10
0.0000
 20
0.0000
 30
0.0000
 40
0.1500
 41
0.1500
 70
0
  0
VERTEX
  8
1
 10
12.7000
 20
-2.5400
 30
0.0000
  0
VERTEX
  8
1
 10
12.7000
 20
-1.2700
 30
0.0000
  0
SEQEND
  8
0
  0
POLYLINE
  8
1
 66
1
 10
0.0000
 20
0.0000
 30
0.0000
 40
0.0750
 41
0.0750
 70
0
  0
VERTEX
  8
1
 10
12.7375
 20
-1.2700
 30
0.0000
 42
1.0000
  0
VERTEX
  8
1
 10
12.6625
 20
-1.2700
 30
0.0000
  0
SEQEND
  8
0
  0
POLYLINE
  8
1
 66
1
 10
0.0000
 20
0.0000
 30
0.0000
 40
0.0750
 41
0.0750
 70
0
  0
VERTEX
  8
1
 10
12.6625
 20
-2.5400
 30
0.0000
 42
1.0000
  0
VERTEX
  8
1
 10
12.7375
 20
-2.5400
 30
0.0000
  0
SEQEND
  8
0
  0
INSERT
  8
18
  2
SQUAREV
 10
12.7000
 20
-1.2700
 30
0.0000
 41
1.0064
 42
1.0064
 43
1.0000
 50
0.0000
  0
INSERT
  8
18
  2
SQUAREV
 10
12.7000
 20
-1.2700
 30
0.0000
 41
1.0064
 42
1.0064
 43
1.0000
 50
0.0000
  0
INSERT
  8
29
  2
SQUAREV
 10
12.7000
 20
-1.2700
 30
0.0000
 41
1.2096
 42
1.2096
 43
1.0000
 50
0.0000
  0
INSERT
  8
30
  2
SQUAREV
 10
12.7000
 20
-1.2700
 30
0.0000
 41
1.2096
 42
1.2096
 43
1.0000
 50
0.0000
  0
CIRCLE
  8
44
 10
12.7000
 20
-1.2700
 30
0.0000
 40
0.3000
  0
POLYLINE
  8
1
 66
1
 10
0.0000
 20
0.0000
 30
0.0000
 40
0.1500
 41
0.1500
 70
0
  0
VERTEX
  8
1
 10
13.9700
 20
1.2700
 30
0.0000
  0
VERTEX
  8
1
 10
17.7800
 20
1.2700
 30
0.0000
  0
SEQEND
  8
0
  0
POLYLINE
  8
1
 66
1
 10
0.0000
 20
0.0000
 30
0.0000
 40
0.0750
 41
0.0750
 70
0
  0
VERTEX
  8
1
 10
17.7800
 20
1.2325
 30
0.0000
 42
1.0000
  0
VERTEX
  8
1
 10
17.7800
 20
1.3075
 30
0.0000
  0
SEQEND
  8
0
  0
POLYLINE
  8
1
 66
1
 10
0.0000
 20
0.0000
 30
0.0000
 40
0.0750
 41
0.0750
 70
0
  0
VERTEX
  8
1
 10
13.9700
 20
1.3075
 30
0.0000
 42
1.0000
  0
VERTEX
  8
1
 10
13.9700
 20
1.2325
 30
0.0000
  0
SEQEND
  8
0
  0
POLYLINE
  8
1
 66
1
 10
0.0000
 20
0.0000
 30
0.0000
 40
0.1500
 41
0.1500
 70
0
  0
VERTEX
  8
1
 10
17.7800
 20
1.2700
 30
0.0000
  0
VERTEX
  8
1
 10
18.4000
 20
0.4000
 30
0.0000
  0
SEQEND
  8
0
  0
POLYLINE
  8
1
 66
1
 10
0.0000
 20
0.0000
 30
0.0000
 40
0.0750
 41
0.0750
 70
0
  0
VERTEX
  8
1
 10
18.3695
 20
0.3782
 30
0.0000
 42
1.0000
  0
VERTEX
  8
1
 10
18.4305
 20
0.4218
 30
0.0000
  0
SEQEND
  8
0
  0
POLYLINE
  8
1
 66
1
 10
0.0000
 20
0.0000
 30
0.0000
 40
0.0750
 41
0.0750
 70
0
  0
VERTEX
  8
1
 10
17.8105
 20
1.2918
 30
0.0000
 42
1.0000
  0
VERTEX
  8
1
 10
17.7495
 20
1.2482
 30
0.0000
  0
SEQEND
  8
0
  0
POLYLINE
  8
1
 66
1
 10
0.0000
 20
0.0000
 30
0.0000
 40
0.1500
 41
0.1500
 70
0
  0
VERTEX
  8
1
 10
18.4000
 20
0.4000
 30
0.0000
  0
VERTEX
  8
1
 10
68.8000
 20
0.4000
 30
0.0000
  0
SEQEND
  8
0
  0
POLYLINE
  8
1
 66
1
 10
0.0000
 20
0.0000
 30
0.0000
 40
0.0750
 41
0.0750
 70
0
  0
VERTEX
  8
1
 10
68.8000
 20
0.3625
 30
0.0000
 42
1.0000
  0
VERTEX
  8
1
 10
68.8000
 20
0.4375
 30
0.0000
  0
SEQEND
  8
0
  0
POLYLINE
  8
1
 66
1
 10
0.0000
 20
0.0000
 30
0.0000
 40
0.0750
 41
0.0750
 70
0
  0
VERTEX
  8
1
 10
18.4000
 20
0.4375
 30
0.0000
 42
1.0000
  0
VERTEX
  8
1
 10
18.4000
 20
0.3625
 30
0.0000
  0
SEQEND
  8
0
  0
POLYLINE
  8
1
 66
1
 10
0.0000
 20
0.0000
 30
0.0000
 40
0.1500
 41
0.1500
 70
0
  0
VERTEX
  8
1
 10
68.8000
 20
0.4000
 30
0.0000
  0
VERTEX
  8
1
 10
68.8000
 20
1.2000
 30
0.0000
  0
SEQEND
  8
0
  0
POLYLINE
  8
1
 66
1
 10
0.0000
 20
0.0000
 30
0.0000
 40
0.0750
 41
0.0750
 70
0
  0
VERTEX
  8
1
 10
68.8375
 20
1.2000
 30
0.0000
 42
1.0000
  0
VERTEX
  8
1
 10
68.7625
 20
1.2000
 30
0.0000
  0
SEQEND
  8
0
  0
POLYLINE
  8
1
 66
1
 10
0.0000
 20
0.0000
 30
0.0000
 40
0.0750
 41
0.0750
 70
0
  0
VERTEX
  8
1
 10
68.7625
 20
0.4000
 30
0.0000
 42
1.0000
  0
VERTEX
  8
1
 10
68.8375
 20
0.4000
 30
0.0000
  0
SEQEND
  8
0
  0
INSERT
  8
18
  2
SQUAREV
 10
13.9700
 20
1.2700
 30
0.0000
 41
1.0064
 42
1.0064
 43
1.0000
 50
0.0000
  0
INSERT
  8
18
  2
SQUAREV
 10
13.9700
 20
1.2700
 30
0.0000
 41
1.0064
 42
1.0064
 43
1.0000
 50
0.0000
  0
INSERT
  8
29
  2
SQUAREV
 10
13.9700
 20
1.2700
 30
0.0000
 41
1.2096
 42
1.2096
 43
1.0000
 50
0.0000
  0
INSERT
  8
30
  2
SQUAREV
 10
13.9700
 20
1.2700
 30
0.0000
 41
1.2096
 42
1.2096
 43
1.0000
 50
0.0000
  0
CIRCLE
  8
44
 10
13.9700
 20
1.2700
 30
0.0000
 40
0.3000
  0
POLYLINE
  8
1
 66
1
 10
0.0000
 20
0.0000
 30
0.0000
 40
0.1500
 41
0.1500
 70
0
  0
VERTEX
  8
1
 10
17.7800
 20
-1.2700
 30
0.0000
  0
VERTEX
  8
1
 10
18.4000
 20
-0.4000
 30
0.0000
  0
SEQEND
  8
0
  0
POLYLINE
  8
1
 66
1
 10
0.0000
 20
0.0000
 30
0.0000
 40
0.0750
 41
0.0750
 70
0
  0
VERTEX
  8
1
 10
18.4305
 20
-0.4218
 30
0.0000
 42
1.0000
  0
VERTEX
  8
1
 10
18.3695
 20
-0.3782
 30
0.0000
  0
SEQEND
  8
0
  0
POLYLINE
  8
1
 66
1
 10
0.0000
 20
0.0000
 30
0.0000
 40
0.0750
 41
0.0750
 70
0
  0
VERTEX
  8
1
 10
17.7495
 20
-1.2482
 30
0.0000
 42
1.0000
  0
VERTEX
  8
1
 10
17.8105
 20
-1.2918
 30
0.0000
  0
SEQEND
  8
0
  0
POLYLINE
  8
1
 66
1
 10
0.0000
 20
0.0000
 30
0.0000
 40
0.1500
 41
0.1500
 70
0
  0
VERTEX
  8
1
 10
18.4000
 20
-0.4000
 30
0.0000
  0
VERTEX
  8
1
 10
68.8000
 20
-0.4000
 30
0.0000
  0
SEQEND
  8
0
  0
POLYLINE
  8
1
 66
1
 10
0.0000
 20
0.0000
 30
0.0000
 40
0.0750
 41
0.0750
 70
0
  0
VERTEX
  8
1
 10
68.8000
 20
-0.4375
 30
0.0000
 42
1.0000
  0
VERTEX
  8
1
 10
68.8000
 20
-0.3625
 30
0.0000
  0
SEQEND
  8
0
  0
POLYLINE
  8
1
 66
1
 10
0.0000
 20
0.0000
 30
0.0000
 40
0.0750
 41
0.0750
 70
0
  0
VERTEX
  8
1
 10
18.4000
 20
-0.3625
 30
0.0000
 42
1.0000
  0
VERTEX
  8
1
 10
18.4000
 20
-0.4375
 30
0.0000
  0
SEQEND
  8
0
  0
POLYLINE
  8
1
 66
1
 10
0.0000
 20
0.0000
 30
0.0000
 40
0.1500
 41
0.1500
 70
0
  0
VERTEX
  8
1
 10
68.8000
 20
-0.4000
 30
0.0000
  0
VERTEX
  8
1
 10
68.8000
 20
-1.2000
 30
0.0000
  0
SEQEND
  8
0
  0
POLYLINE
  8
1
 66
1
 10
0.0000
 20
0.0000
 30
0.0000
 40
0.0750
 41
0.0750
 70
0
  0
VERTEX
  8
1
 10
68.7625
 20
-1.2000
 30
0.0000
 42
1.0000
  0
VERTEX
  8
1
 10
68.8375
 20
-1.2000
 30
0.0000
  0
SEQEND
  8
0
  0
POLYLINE
  8
1
 66
1
 10
0.0000
 20
0.0000
 30
0.0000
 40
0.0750
 41
0.0750
 70
0
  0
VERTEX
  8
1
 10
68.8375
 20
-0.4000
 30
0.0000
 42
1.0000
  0
VERTEX
  8
1
 10
68.7625
 20
-0.4000
 30
0.0000
  0
SEQEND
  8
0
  0
POLYLINE
  8
1
 66
1
 10
0.0000
 20
0.0000
 30
0.0000
 40
0.1500
 41
0.1500
 70
0
  0
VERTEX
  8
1
 10
17.7800
 20
-1.2700
 30
0.0000
  0
VERTEX
  8
1
 10
13.9700
 20
-1.2700
 30
0.0000
  0
SEQEND
  8
0
  0
POLYLINE
  8
1
 66
1
 10
0.0000
 20
0.0000
 30
0.0000
 40
0.0750
 41
0.0750
 70
0
  0
VERTEX
  8
1
 10
13.9700
 20
-1.2325
 30
0.0000
 42
1.0000
  0
VERTEX
  8
1
 10
13.9700
 20
-1.3075
 30
0.0000
  0
SEQEND
  8
0
  0
POLYLINE
  8
1
 66
1
 10
0.0000
 20
0.0000
 30
0.0000
 40
0.0750
 41
0.0750
 70
0
  0
VERTEX
  8
1
 10
17.7800
 20
-1.3075
 30
0.0000
 42
1.0000
  0
VERTEX
  8
1
 10
17.7800
 20
-1.2325
 30
0.0000
  0
SEQEND
  8
0
  0
INSERT
  8
18
  2
SQUAREV
 10
13.9700
 20
-1.2700
 30
0.0000
 41
1.0064
 42
1.0064
 43
1.0000
 50
0.0000
  0
INSERT
  8
18
  2
SQUAREV
 10
13.9700
 20
-1.2700
 30
0.0000
 41
1.0064
 42
1.0064
 43
1.0000
 50
0.0000
  0
INSERT
  8
29
  2
SQUAREV
 10
13.9700
 20
-1.2700
 30
0.0000
 41
1.2096
 42
1.2096
 43
1.0000
 50
0.0000
  0
INSERT
  8
30
  2
SQUAREV
 10
13.9700
 20
-1.2700
 30
0.0000
 41
1.2096
 42
1.2096
 43
1.0000
 50
0.0000
  0
CIRCLE
  8
44
 10
13.9700
 20
-1.2700
 30
0.0000
 40
0.3000
  0
POLYLINE
  8
1
 66
1
 10
0.0000
 20
0.0000
 30
0.0000
 40
0.1500
 41
0.1500
 70
0
  0
VERTEX
  8
1
 10
12.7000
 20
2.5400
 30
0.0000
  0
VERTEX
  8
1
 10
19.0500
 20
2.5400
 30
0.0000
  0
SEQEND
  8
0
  0
POLYLINE
  8
1
 66
1
 10
0.0000
 20
0.0000
 30
0.0000
 40
0.0750
 41
0.0750
 70
0
  0
VERTEX
  8
1
 10
19.0500
 20
2.5025
 30
0.0000
 42
1.0000
  0
VERTEX
  8
1
 10
19.0500
 20
2.5775
 30
0.0000
  0
SEQEND
  8
0
  0
POLYLINE
  8
1
 66
1
 10
0.0000
 20
0.0000
 30
0.0000
 40
0.0750
 41
0.0750
 70
0
  0
VERTEX
  8
1
 10
12.7000
 20
2.5775
 30
0.0000
 42
1.0000
  0
VERTEX
  8
1
 10
12.7000
 20
2.5025
 30
0.0000
  0
SEQEND
  8
0
  0
POLYLINE
  8
1
 66
1
 10
0.0000
 20
0.0000
 30
0.0000
 40
0.1500
 41
0.1500
 70
0
  0
VERTEX
  8
1
 10
19.0500
 20
2.5400
 30
0.0000
  0
VERTEX
  8
1
 10
20.7900
 20
0.8000
 30
0.0000
  0
SEQEND
  8
0
  0
POLYLINE
  8
1
 66
1
 10
0.0000
 20
0.0000
 30
0.0000
 40
0.0750
 41
0.0750
 70
0
  0
VERTEX
  8
1
 10
20.7635
 20
0.7735
 30
0.0000
 42
1.0000
  0
VERTEX
  8
1
 10
20.8165
 20
0.8265
 30
0.0000
  0
SEQEND
  8
0
  0
POLYLINE
  8
1
 66
1
 10
0.0000
 20
0.0000
 30
0.0000
 40
0.0750
 41
0.0750
 70
0
  0
VERTEX
  8
1
 10
19.0765
 20
2.5665
 30
0.0000
 42
1.0000
  0
VERTEX
  8
1
 10
19.0235
 20
2.5135
 30
0.0000
  0
SEQEND
  8
0
  0
POLYLINE
  8
1
 66
1
 10
0.0000
 20
0.0000
 30
0.0000
 40
0.1500
 41
0.1500
 70
0
  0
VERTEX
  8
1
 10
20.7900
 20
0.8000
 30
0.0000
  0
VERTEX
  8
1
 10
65.8000
 20
0.8000
 30
0.0000
  0
SEQEND
  8
0
  0
POLYLINE
  8
1
 66
1
 10
0.0000
 20
0.0000
 30
0.0000
 40
0.0750
 41
0.0750
 70
0
  0
VERTEX
  8
1
 10
65.8000
 20
0.7625
 30
0.0000
 42
1.0000
  0
VERTEX
  8
1
 10
65.8000
 20
0.8375
 30
0.0000
  0
SEQEND
  8
0
  0
POLYLINE
  8
1
 66
1
 10
0.0000
 20
0.0000
 30
0.0000
 40
0.0750
 41
0.0750
 70
0
  0
VERTEX
  8
1
 10
20.7900
 20
0.8375
 30
0.0000
 42
1.0000
  0
VERTEX
  8
1
 10
20.7900
 20
0.7625
 30
0.0000
  0
SEQEND
  8
0
  0
POLYLINE
  8
1
 66
1
 10
0.0000
 20
0.0000
 30
0.0000
 40
0.1500
 41
0.1500
 70
0
  0
VERTEX
  8
1
 10
65.8000
 20
0.8000
 30
0.0000
  0
VERTEX
  8
1
 10
66.6000
 20
1.6000
 30
0.0000
  0
SEQEND
  8
0
  0
POLYLINE
  8
1
 66
1
 10
0.0000
 20
0.0000
 30
0.0000
 40
0.0750
 41
0.0750
 70
0
  0
VERTEX
  8
1
 10
66.6265
 20
1.5735
 30
0.0000
 42
1.0000
  0
VERTEX
  8
1
 10
66.5735
 20
1.6265
 30
0.0000
  0
SEQEND
  8
0
  0
POLYLINE
  8
1
 66
1
 10
0.0000
 20
0.0000
 30
0.0000
 40
0.0750
 41
0.0750
 70
0
  0
VERTEX
  8
1
 10
65.7735
 20
0.8265
 30
0.0000
 42
1.0000
  0
VERTEX
  8
1
 10
65.8265
 20
0.7735
 30
0.0000
  0
SEQEND
  8
0
  0
POLYLINE
  8
1
 66
1
 10
0.0000
 20
0.0000
 30
0.0000
 40
0.1500
 41
0.1500
 70
0
  0
VERTEX
  8
1
 10
66.6000
 20
1.6000
 30
0.0000
  0
VERTEX
  8
1
 10
76.6000
 20
1.6000
 30
0.0000
  0
SEQEND
  8
0
  0
POLYLINE
  8
1
 66
1
 10
0.0000
 20
0.0000
 30
0.0000
 40
0.0750
 41
0.0750
 70
0
  0
VERTEX
  8
1
 10
76.6000
 20
1.5625
 30
0.0000
 42
1.0000
  0
VERTEX
  8
1
 10
76.6000
 20
1.6375
 30
0.0000
  0
SEQEND
  8
0
  0
POLYLINE
  8
1
 66
1
 10
0.0000
 20
0.0000
 30
0.0000
 40
0.0750
 41
0.0750
 70
0
  0
VERTEX
  8
1
 10
66.6000
 20
1.6375
 30
0.0000
 42
1.0000
  0
VERTEX
  8
1
 10
66.6000
 20
1.5625
 30
0.0000
  0
SEQEND
  8
0
  0
POLYLINE
  8
1
 66
1
 10
0.0000
 20
0.0000
 30
0.0000
 40
0.1500
 41
0.1500
 70
0
  0
VERTEX
  8
1
 10
76.6000
 20
1.6000
 30
0.0000
  0
VERTEX
  8
1
 10
76.6000
 20
-1.6000
 30
0.0000
  0
SEQEND
  8
0
  0
POLYLINE
  8
1
 66
1
 10
0.0000
 20
0.0000
 30
0.0000
 40
0.0750
 41
0.0750
 70
0
  0
VERTEX
  8
1
 10
76.5625
 20
-1.6000
 30
0.0000
 42
1.0000
  0
VERTEX
  8
1
 10
76.6375
 20
-1.6000
 30
0.0000
  0
SEQEND
  8
0
  0
POLYLINE
  8
1
 66
1
 10
0.0000
 20
0.0000
 30
0.0000
 40
0.0750
 41
0.0750
 70
0
  0
VERTEX
  8
1
 10
76.6375
 20
1.6000
 30
0.0000
 42
1.0000
  0
VERTEX
  8
1
 10
76.5625
 20
1.6000
 30
0.0000
  0
SEQEND
  8
0
  0
POLYLINE
  8
1
 66
1
 10
0.0000
 20
0.0000
 30
0.0000
 40
0.1500
 41
0.1500
 70
0
  0
VERTEX
  8
1
 10
12.7000
 20
1.2700
 30
0.0000
  0
VERTEX
  8
1
 10
12.7000
 20
2.5400
 30
0.0000
  0
SEQEND
  8
0
  0
POLYLINE
  8
1
 66
1
 10
0.0000
 20
0.0000
 30
0.0000
 40
0.0750
 41
0.0750
 70
0
  0
VERTEX
  8
1
 10
12.7375
 20
2.5400
 30
0.0000
 42
1.0000
  0
VERTEX
  8
1
 10
12.6625
 20
2.5400
 30
0.0000
  0
SEQEND
  8
0
  0
POLYLINE
  8
1
 66
1
 10
0.0000
 20
0.0000
 30
0.0000
 40
0.0750
 41
0.0750
 70
0
  0
VERTEX
  8
1
 10
12.6625
 20
1.2700
 30
0.0000
 42
1.0000
  0
VERTEX
  8
1
 10
12.7375
 20
1.2700
 30
0.0000
  0
SEQEND
  8
0
  0
INSERT
  8
18
  2
SQUAREV
 10
12.7000
 20
1.2700
 30
0.0000
 41
1.0064
 42
1.0064
 43
1.0000
 50
0.0000
  0
INSERT
  8
18
  2
SQUAREV
 10
12.7000
 20
1.2700
 30
0.0000
 41
1.0064
 42
1.0064
 43
1.0000
 50
0.0000
  0
INSERT
  8
29
  2
SQUAREV
 10
12.7000
 20
1.2700
 30
0.0000
 41
1.2096
 42
1.2096
 43
1.0000
 50
0.0000
  0
INSERT
  8
30
  2
SQUAREV
 10
12.7000
 20
1.2700
 30
0.0000
 41
1.2096
 42
1.2096
 43
1.0000
 50
0.0000
  0
CIRCLE
  8
44
 10
12.7000
 20
1.2700
 30
0.0000
 40
0.3000
  0
ENDSEC
  0
EOF
